**ABCDEFGHIJKLMNOPQRSTUVWXYZabcdefghijklmnopqrstuvwxyz**************************
**PARASOLID !"#$%&'()*+,-./:;<=>?@[\]^_`{|}~0123456789**************************
**PART1;
MC=unknown;
MC_MODEL=unknown;
MC_ID=unknown;
OS=unknown;
OS_RELEASE=unknown;
FRU=Parasolid 35.1.246;
APPL=Onshape;
SITE=unknown;
USER=unknown;
FORMAT=text;
GUISE=transmit;
KEY=BTGapi::writeModels_.xmt;
FILE=BTGapi::writeModels_.xmt;
DATE=2024-02-13T19:20:36 (UTC);
**PART2;
SCH=SCH_3501246_35102;
USFLD_SIZE=0;
**PART3;
**END_OF_HEADER*****************************************************************
T51 : TRANSMIT FILE created by modeller version 350124623 SCH_3501246_35102_1300
6231 0 12 36 CCCI7 lattice222 0 CCCI4 mesh1006 0 I8 polyline1008 0 CCCCCCCDI5 ow
ner1040 0 CCCI16 boundary_lattice222 0 CCCI13 boundary_mesh1006 0 I17 boundary_p
olyline1008 0 CCCA16 index_map_offset0 0 1 dA9 index_map82 0 A17 node_id_index_m
ap82 0 A20 schema_embedding_map82 0 A5 child12 0 A14 lowest_node_id0 0 1 dA16 me
sh_offset_data206 0 Z1 2238 2 3 0 0 0 0 0 0 0 1e3 1e-8 0 4 5 1 0 1 2 6 0 7 8 9 0
 0 10 11 12 0 0 0 0 0 0 0 81 255 1 2 2214 13 1 14 0 0 0 15 70 11 CI9 list_type0
 0 1 uI10 notransmit0 0 1 lCCCDCCDI12 finger_index0 0 1 dI12 finger_block1012 0
 CZ3 0 4 T1 0 0 6 20 1 16 16 13 255 6 642 0 1 0 17 0 0 18 0 51 255 7 2186 19 17
 20 0 0 +.0619125 0 1409462824231156e-33 0 1 0 .0015875 1 0 0 31 255 8 2167 0 11
 21 0 0 +.0619125 .01905 1409462824231156e-33 0 1 0 1 0 0 .0015875 29 255 9 2141
 0 12 22 0 .0619125 .01905 -.0015875 19 9 CCCCCCI5 frame230 0 CA5 owner12 0 Z10
 285 0 1 18 0 23 0 V0 16 255 11 2165 24 ?25 0 26 8 0 0 1 18 255 12 2138 27 25 0
 28 9 ?1 81 1 27 2193 29 12 0 0 30 31 32 17 255 25 0 33 34 35 12 36 11 0 37 +18
 28 2134 31 38 12 39 22 ?1 81 1 31 2194 29 28 0 0 27 40 41 17 38 0 42 37 43 28 4
4 26 0 45 -18 39 2125 46 44 28 47 48 ?1 29 22 2137 0 28 48 9 .0619125 0 -.001587
5 29 48 2128 0 39 49 22 .0619125 0 .0015875 29 49 2124 0 47 50 48 .0619125 .0190
5 .0015875 18 47 2121 40 36 39 51 49 ?1 29 50 2052 0 51 52 49 -.0619125 .01905 .
0015875 18 51 2049 53 54 47 55 50 ?1 29 52 2048 0 55 56 50 -.0619125 0 .0015875
 18 55 2045 57 58 51 59 52 ?1 29 56 2039 0 59 60 52 -.0619125 0 -.0015875 18 59
 2036 61 62 55 63 56 ?1 29 60 2035 0 63 64 56 -.0619125 .01905 -.0015875 18 63 2
032 65 66 59 67 60 ?1 29 64 1689 0 67 68 60 -.00733234841870825 .0015875 0 18 67
 1685 69 70 63 71 64 ?1 29 68 1227 0 71 72 64 -.003666174209354125 .0174625 .006
35 18 71 1223 73 74 67 75 68 ?1 29 72 884 0 75 76 68 .02689395552442975 .01905 .
0015875 18 75 881 77 78 71 79 72 ?1 29 76 880 0 79 80 72 .02689395552442975 0 .0
015875 18 79 877 81 82 75 83 76 ?1 29 80 871 0 83 84 76 .02689395552442965 .0190
5 -.0015875 18 83 868 85 86 79 87 80 ?1 29 84 867 0 87 88 80 .02689395552442965
 0 -.0015875 18 87 864 89 90 83 91 84 ?1 29 88 858 0 91 92 84 -.0268939555244295
5 .01905 .0015875 18 91 855 93 94 87 95 88 ?1 29 92 854 0 95 96 88 -.02689395552
442955 0 .0015875 18 95 851 97 98 91 99 92 ?1 29 96 840 0 99 100 92 .00896465184
147664 .01905 .00899583333333333 18 99 837 101 102 95 103 96 ?1 29 100 836 0 103
 104 96 -.00896465184147646 .01905 .00899583333333333 18 103 833 105 106 99 107
 100 ?1 29 104 832 0 107 108 100 .00896465184147664 0 .00899583333333333 18 107
 829 109 110 103 111 104 ?1 29 108 828 0 111 112 104 -.00896465184147646 0 .0089
9583333333333 18 111 825 113 114 107 115 108 ?1 29 112 814 0 115 116 108 -.00896
465184147655 .01905 -.00899583333333333 18 115 811 117 118 111 119 112 ?1 29 116
 810 0 119 120 112 .00896465184147655 .01905 -.00899583333333333 18 119 807 121
 122 115 123 116 ?1 29 120 806 0 123 124 116 -.00896465184147655 0 -.00899583333
333333 18 123 803 125 126 119 127 120 ?1 29 124 802 0 127 128 120 .0089646518414
7655 0 -.00899583333333333 18 127 799 129 130 123 131 124 ?1 29 128 793 0 131 13
2 124 -.02689395552442965 .01905 -.0015875 18 131 790 133 134 127 135 128 ?1 29
 132 789 0 135 136 128 -.02689395552442965 0 -.0015875 18 135 786 137 138 131 13
9 132 ?1 29 136 1521 0 139 140 132 -.00733234841870825 .0174625 0 18 139 1421 14
1 142 135 143 136 ?1 29 140 1523 0 143 144 136 .00366617420935412 .0174625 .0063
5 18 143 1437 145 146 139 147 140 ?1 29 144 1524 0 147 148 140 .0073323484187082
5 .0174625 520417042793042e-32 18 147 1433 149 150 143 151 144 ?1 29 148 1525 0
 151 152 144 .003666174209354125 .0174625 -.00635 18 151 1429 153 154 147 155 14
8 ?1 29 152 1526 0 155 156 148 -.00366617420935412 .0174625 -.00635 18 155 1425
 157 158 151 159 152 ?1 29 156 1988 0 159 160 152 .003666174209354125 .0015875 -
.00635 18 159 1888 161 162 155 163 156 ?1 29 160 1989 0 163 164 156 .00733234841
870825 .0015875 520417042793042e-32 18 163 1908 165 166 159 167 160 ?1 29 164 19
90 0 167 168 160 .00366617420935412 .0015875 .00635 18 167 1904 169 170 163 171
 164 ?1 29 168 1991 0 171 172 164 -.003666174209354125 .0015875 .00635 18 171 19
00 173 174 167 175 168 ?1 29 172 1993 0 175 0 168 -.00366617420935412 .0015875 -
.00635 18 175 1892 176 177 171 0 172 ?1 81 1 176 2004 29 175 0 0 161 69 178 17 1
77 0 179 70 162 175 180 181 0 182 +15 255 179 1944 0 177 183 184 17 70 0 179 174
 177 67 182 185 0 186 +17 162 0 179 177 166 159 187 188 0 180 +17 180 0 189 190
 191 159 177 181 0 192 -16 181 1790 193 ?177 185 194 195 0 0 1 17 182 0 196 197
 198 175 70 185 0 191 -15 196 596 0 198 199 0 17 197 0 196 200 182 155 191 201 0
 0 -17 198 0 196 182 200 67 202 203 0 0 +16 185 1800 204 ?70 205 181 206 0 0 1 1
7 191 0 189 180 207 175 197 201 0 0 +15 189 594 0 191 208 0 17 207 0 189 191 190
 155 154 209 0 197 +16 201 577 210 ?191 211 212 213 0 0 1 81 1 210 2018 29 201 0
 0 214 215 216 16 211 794 217 ?218 219 201 220 0 0 1 16 212 576 214 ?192 201 221
 222 0 0 1 30 255 213 633 0 201 222 220 0 +-.00366617420935412 .01905 -.00635 0
 -1 0 30 222 632 0 212 223 213 0 +.003666174209354125 .01905 -.00635 0 -1 0 30 2
20 796 0 211 213 224 0 +-.02689395552442965 .01905 -.0015875 0 -1 0 30 224 817 0
 219 220 225 0 +.00896465184147655 .01905 -.00899583333333333 0 -1 0 16 219 815
 226 ?227 228 211 224 0 0 1 30 225 822 0 228 224 229 0 --.00896465184147655 .019
05 -.00899583333333333 0 -1 0 16 228 820 230 ?118 231 219 225 0 0 1 30 229 843 0
 231 225 232 0 -.00896465184147664 .01905 .00899583333333333 0 -1 0 16 231 841 2
33 ?102 234 228 229 0 0 1 30 232 848 0 234 229 235 0 +-.00896465184147646 .01905
 .00899583333333333 0 -1 0 16 234 846 236 ?237 238 231 232 0 0 1 30 235 861 0 23
8 232 239 0 +-.02689395552442955 .01905 .0015875 0 1 0 16 238 859 240 ?241 242 2
34 235 0 0 1 30 239 874 0 242 235 243 0 -.02689395552442965 .01905 -.0015875 0 -
1 0 16 242 872 244 ?86 245 238 239 0 0 1 30 243 887 0 245 239 246 0 -.0268939555
2442975 693889390390723e-32 .0015875 0 1 0 16 245 885 247 ?248 249 242 243 0 0 1
 31 246 922 0 249 243 250 0 +-.02689395552442965 0 -.0269875 0 1 0 1 0 0 .0254 1
6 249 890 251 ?126 252 245 246 0 0 1 31 250 923 0 252 246 253 0 --.0268939555244
2965 .01905 -.0269875 0 1 0 1 0 0 .0254 16 252 894 254 ?255 256 249 250 0 0 1 31
 253 924 0 256 250 257 0 +-.02689395552442955 0 .0269875 0 1 0 1 0 0 .0254 16 25
6 898 258 ?259 260 252 253 0 0 1 31 257 925 0 260 253 261 0 --.02689395552442955
 .01905 .0269875 0 1 0 1 0 0 .0254 16 260 902 262 ?106 263 256 257 0 0 1 31 261
 926 0 263 257 264 0 +.02689395552442965 0 -.0269875 0 1 0 1 0 0 .0254 16 263 90
6 265 ?90 266 260 261 0 0 1 31 264 927 0 266 261 267 0 -.02689395552442965 .0190
5 -.0269875 0 1 0 1 0 0 .0254 16 266 910 268 ?122 269 263 264 0 0 1 31 267 928 0
 269 264 270 0 +.02689395552442975 0 .0269875 0 1 0 1 0 0 .0254 16 269 914 271 ?
110 272 266 267 0 0 1 31 270 929 0 272 267 273 0 -.02689395552442975 .01905 .026
9875 0 1 0 1 0 0 .0254 16 272 918 274 ?78 275 269 270 0 0 1 30 273 2042 0 275 27
0 276 0 +-.0619125 .01905 -.0015875 0 1 0 16 275 2040 277 ?278 279 272 273 0 0 1
 30 276 2055 0 279 273 280 0 +-.0619125 0 .0015875 0 -1 0 16 279 2053 281 ?282 2
83 275 276 0 0 1 31 280 2064 0 283 276 284 0 --.0619125 0 3577867169202165e-33 0
 1 0 1 0 0 .0015875 16 283 2062 285 ?62 286 279 280 0 0 1 31 284 2078 0 286 280
 287 0 +-.0619125 .01905 3577867169202165e-33 0 1 0 1 0 0 .0015875 16 286 2076 2
88 ?54 289 283 284 0 0 1 30 287 2131 0 289 284 290 0 -.0619125 0 .0015875 0 -1 0
 16 289 2129 291 ?292 293 286 287 0 0 1 30 290 2144 0 293 287 21 0 -.0619125 .01
905 -.0015875 0 1 0 16 293 2142 294 ?45 26 289 290 0 0 1 31 21 2153 0 26 290 8 0
 -.0619125 0 1409462824231156e-33 0 1 0 1 0 0 .0015875 16 26 2151 295 ?44 11 293
 21 0 0 1 81 1 295 2200 29 26 0 0 24 296 297 17 44 0 298 299 300 39 38 26 0 43 +
15 298 413 0 300 301 0 17 299 0 298 110 44 79 302 303 0 0 -17 300 0 298 44 90 28
 304 305 0 0 +17 43 0 42 38 36 39 292 289 0 302 -15 42 2130 0 43 17 0 17 36 0 42
 43 37 47 25 11 0 292 -17 292 0 306 307 302 47 43 289 0 35 +17 302 0 306 292 248
 39 299 303 0 0 +15 306 602 0 302 308 0 17 248 0 306 302 307 79 309 245 0 299 +1
6 303 878 310 ?302 311 305 312 0 0 1 81 1 310 2203 29 303 0 0 313 314 315 16 311
 800 316 ?317 318 303 319 0 0 1 16 305 865 296 ?300 303 320 321 0 0 1 30 312 552
 0 303 321 319 0 +.03805019530947255 0 .0015875 1 0 -2982111375582915e-32 30 321
 554 0 305 322 312 0 +.03805019530947255 0 -.0015875 1 0 0 31 319 551 0 311 312
 323 0 +3888253587292845e-34 0 -3252606517456515e-34 0 1 0 1 0 0 .0127 31 323 55
0 0 318 319 324 0 +893382590128056e-31 0 -650521303491303e-33 0 1 0 1 0 0 .0127
 16 318 826 325 ?326 327 311 323 0 0 1 30 324 628 0 203 323 328 0 +-.00733234841
870825 .01905 0 0 -1 0 16 203 572 215 ?198 329 330 324 0 0 1 30 328 629 0 329 32
4 331 0 +-.003666174209354125 .01905 .00635 0 -1 0 16 329 573 332 ?333 334 203 3
28 0 0 1 30 331 630 0 334 328 223 0 +.00366617420935412 .01905 .00635 0 -1 0 16
 334 574 335 ?336 221 329 331 0 0 1 30 223 631 0 221 331 222 0 +.007332348418708
25 .01905 520417042793042e-32 0 -1 0 16 221 575 337 ?338 212 334 223 0 0 1 81 1
 337 2022 29 221 0 0 335 339 340 17 338 0 341 342 343 163 344 221 0 0 +15 341 59
0 0 338 345 0 17 342 0 341 346 338 167 166 347 0 336 -17 343 0 341 338 346 147 1
46 348 0 344 +17 344 0 349 350 187 147 338 221 0 0 -15 349 592 0 192 351 0 17 35
0 0 349 192 344 151 150 352 0 190 +17 187 0 349 344 192 163 162 188 0 338 -17 19
2 0 349 187 350 159 190 212 0 0 +16 188 1840 353 ?162 354 347 355 0 0 1 81 1 353
 2015 29 188 0 0 356 357 358 16 354 1850 357 ?359 360 188 361 0 0 1 16 347 1830
 356 ?166 188 362 363 0 0 1 30 355 1976 0 188 363 361 0 +.00504098953786192 .001
5875 -.00396875 -.5 0 -.866025403784439 30 363 1977 0 347 364 355 0 +.0068740766
4253898 .0015875 79375e-8 .5 0 -.866025403784438 31 361 1975 0 354 355 365 0 +0
 .0015875 680444377776248e-33 0 -1 0 -1 0 0 .0111125 31 365 1968 0 194 361 366 0
 +0 0 680444377776248e-33 0 -1 0 -1 0 0 .0111125 16 194 1883 367 ?368 181 0 365
 0 0 1 30 366 1514 0 369 365 370 0 +-.00687407664253898 .0174625 -79375e-8 -.5 0
 .866025403784439 16 369 1386 371 ?200 209 360 366 0 0 1 30 370 1513 0 209 366 3
72 0 +-.00183308710467706 .0174625 -.00635 -1 0 -2365849761790805e-31 16 209 141
1 373 ?207 352 369 370 0 0 1 30 372 1512 0 352 370 374 0 +.00504098953786192 .01
74625 -.00396875 -.5 0 -.866025403784439 16 352 1406 375 ?350 348 209 372 0 0 1
 30 374 1511 0 348 372 376 0 +.00687407664253898 .0174625 79375e-8 .5 0 -.866025
403784438 16 348 1401 377 ?343 378 352 374 0 0 1 30 376 1510 0 378 374 379 0 +-2
16840434497101e-32 .0174625 .00635 1 0 3548774642686205e-31 16 378 1396 380 ?381
 382 348 376 0 0 1 30 379 1509 0 382 376 383 0 +-.00504098953786192 .0174625 .00
396875 .5 0 .866025403784439 16 382 1391 384 ?385 386 378 379 0 0 1 31 383 1508
 0 386 379 387 0 +90205620750794e-30 .0174625 -133096568126755e-32 0 1 0 1 0 0 .
0111125 16 386 1383 388 ?389 390 382 383 0 0 1 31 387 1501 0 360 383 391 0 +9020
5620750794e-30 .01905 -133096568126755e-32 0 1 0 1 0 0 .0111125 16 360 1416 392
 ?393 369 354 387 0 0 1 30 391 41 0 327 387 394 0 +-.03805019530947255 .01905 -.
0015875 1 0 0 16 327 2033 395 ?134 396 318 391 0 0 1 30 394 51 0 396 391 397 0 +
-.03805019530947255 .01905 .0015875 1 0 -2982111375582915e-32 16 396 2050 398 ?9
4 399 327 394 0 0 1 30 397 61 0 399 394 400 0 +.03805019530947255 .01905 -.00158
75 1 0 0 16 399 869 313 ?401 402 396 397 0 0 1 30 400 91 0 402 397 403 0 +.03805
019530947255 .01905 .0015875 1 0 -2982111375582915e-32 16 402 882 314 ?35 404 39
9 400 0 0 1 31 403 96 0 404 400 405 0 +3888253587292845e-34 .01905 -325260651745
6515e-34 0 1 0 1 0 0 .0127 16 404 808 406 ?407 330 402 403 0 0 1 31 405 106 0 33
0 403 408 0 +893382590128056e-31 .01905 -650521303491303e-33 0 1 0 1 0 0 .0127 1
6 330 834 409 ?410 203 404 405 0 0 1 30 408 556 0 390 405 322 0 +-.0380501953094
7255 0 -.0015875 1 0 0 16 390 2037 411 ?138 320 386 408 0 0 1 30 322 555 0 320 4
08 321 0 +-.03805019530947255 0 .0015875 1 0 -2982111375582915e-32 16 320 2046 4
12 ?98 305 390 322 0 0 1 81 1 412 2114 29 320 0 0 395 398 413 17 98 0 414 241 28
2 95 415 320 0 259 +15 414 608 0 416 417 0 17 241 0 414 416 98 91 418 238 0 419
 +17 282 0 414 98 416 55 420 279 0 415 +17 415 0 298 62 259 55 98 320 0 0 -17 25
9 0 298 415 421 95 114 256 0 418 +17 421 0 298 259 110 111 326 318 0 0 -17 114 0
 422 423 418 111 259 256 0 237 -17 418 0 422 114 419 95 241 238 0 0 -15 422 967
 0 419 424 0 17 419 0 422 418 423 91 106 260 0 0 -17 423 0 422 419 114 103 237 2
34 0 0 -17 106 0 33 410 94 103 419 260 0 425 +15 33 308 0 35 426 0 17 410 0 33 7
8 106 99 425 330 0 427 +17 94 0 33 106 54 91 416 396 0 241 +17 425 0 428 237 102
 103 410 330 0 423 -15 428 598 0 425 429 0 17 237 0 428 326 425 111 423 234 0 42
1 +17 102 0 428 425 326 99 430 231 0 410 +17 326 0 428 102 237 107 421 318 0 430
 +17 430 0 431 82 427 107 102 231 0 0 -15 431 1009 0 427 432 0 17 82 0 431 309 4
30 79 110 269 0 248 -17 427 0 431 430 309 99 78 272 0 0 -17 309 0 431 427 82 75
 248 245 0 0 -17 78 0 33 35 410 75 427 272 0 307 +17 35 0 33 25 78 47 307 402 0
 0 +17 307 0 306 248 292 75 35 402 0 309 -17 110 0 298 421 299 107 82 269 0 326
 +14 255 432 1008 433 ?434 435 431 6 436 -0 0 434 435 23 81 1 433 2234 437 432 4
38 0 439 440 441 14 434 1469 440 ?442 432 443 6 444 -0 0 442 432 23 14 435 987 4
39 ?432 424 445 6 446 -0 0 432 424 23 51 436 1020 0 432 446 20 0 +.0268939555244
2975 .01905 .0269875 0 -1 0 .0254 -1 0 0 13 23 286 0 0 0 0 0 0 10 17 14 17 2183
 447 ?448 0 42 6 7 +0 0 448 0 23 81 1 447 2215 437 17 449 0 0 450 451 14 448 209
4 450 ?199 17 452 6 20 +0 0 199 17 23 81 1 450 2216 437 448 453 0 447 454 455 14
 199 597 454 ?208 448 196 6 456 +0 0 208 448 23 15 452 2041 0 457 448 0 51 20 20
97 458 448 436 7 0 +-.0619125 0 3577867169202165e-33 0 1 0 .0015875 1 0 0 81 2 4
58 2211 459 20 0 0 19 0 460 461 80 7 CCCCCDI12 legal_owners0 16 1 lCZ2 459 462 4
63 8044 0 0 0 0 3 5 0 0 0 FFFFTFFFTTFFFFFF3 2 81 2 19 2210 459 7 0 0 0 458 464 4
65 84 255 6 460 EAKBAC83 255 2 461 1.570796326794895 4.71238898038469 84 6 464 E
AKBAC83 2 465 4.71238898038469 7.85398163397448 79 255 17 463 SDL/TYSA_BLEND_ID1
7 457 0 452 58 66 59 278 275 0 466 -17 58 0 452 420 457 55 62 283 0 282 -17 66 0
 452 457 420 63 54 286 0 278 -17 278 0 467 134 466 63 457 275 0 468 +17 466 0 46
7 278 218 59 138 390 0 0 -15 467 610 0 466 469 0 17 218 0 467 466 134 135 470 21
1 0 0 +17 138 0 298 126 62 135 466 390 0 471 +17 126 0 298 472 138 123 471 249 0
 317 +17 62 0 298 138 415 59 58 283 0 457 +17 471 0 473 470 474 135 126 249 0 21
8 -15 473 946 0 475 476 0 17 470 0 473 475 471 131 218 211 0 0 -17 474 0 473 471
 475 123 118 228 0 0 -17 475 0 473 474 470 115 255 252 0 0 -17 118 0 477 478 317
 115 474 228 0 407 +15 477 600 0 317 479 0 17 478 0 477 227 118 119 407 404 0 48
0 -17 317 0 477 118 227 123 472 311 0 474 +17 407 0 33 255 122 115 478 404 0 475
 +17 255 0 33 468 407 131 475 252 0 470 +17 122 0 33 407 34 119 481 266 0 478 +1
7 34 0 33 122 25 83 401 399 0 481 -17 481 0 445 482 480 83 122 266 0 0 -15 445 9
88 0 481 435 0 17 482 0 445 130 481 87 86 242 0 0 -17 480 0 445 481 130 119 227
 219 0 0 -17 130 0 445 480 482 127 90 263 0 227 -17 227 0 477 317 478 127 480 21
9 0 472 +17 472 0 298 90 126 127 317 311 0 0 -17 90 0 298 300 472 87 130 263 0 3
04 +17 304 0 483 86 45 87 300 305 0 482 -15 483 606 0 401 484 0 17 86 0 483 401
 304 83 482 242 0 34 +17 45 0 483 304 401 28 37 293 0 300 +17 401 0 483 45 86 12
 34 399 0 0 +17 37 0 42 36 38 12 45 293 0 401 -14 484 607 485 ?479 308 483 6 486
 +0 0 479 308 23 81 1 485 2226 437 484 487 0 488 489 490 14 479 601 489 ?469 484
 477 6 491 -0 0 469 484 23 14 308 603 488 ?484 429 306 6 492 -0 0 484 429 23 50
 255 486 624 0 484 492 493 0 +.03805019530947255 .01905 -.0015875 0 0 -1 0 1 0 5
0 492 622 0 308 491 486 0 +.03805019530947255 .01905 .0015875 -2982111375582915e
-32 0 -1 -1 0 2982111375582915e-32 50 493 625 0 417 486 494 0 +-.038050195309472
55 .01905 .0015875 -2982111375582915e-32 0 -1 -1 0 2982111375582915e-32 14 417 6
09 495 ?429 496 414 6 493 -0 0 429 496 23 50 494 626 0 469 493 497 0 +-.03805019
530947255 .01905 -.0015875 0 0 -1 0 1 0 14 469 611 498 ?426 479 467 6 494 +0 0 4
26 479 23 51 497 957 0 476 494 499 0 +-.02689395552442965 .01905 -.0269875 0 -1
 0 .0254 -1 0 0 14 476 945 500 ?424 301 473 6 497 -0 0 424 301 23 51 499 978 0 4
24 497 446 0 +-.02689395552442955 .01905 .0269875 0 -1 0 .0254 -1 0 0 14 424 966
 501 ?435 476 422 6 499 -0 0 435 476 23 51 446 999 0 435 499 436 0 +.02689395552
442965 .01905 -.0269875 0 -1 0 .0254 -1 0 0 81 1 501 2232 437 424 502 0 500 439
 503 80 1 437 0 504 8001 0 0 0 0 3 5 0 0 0 FFFFTFTFFFFFFFFF2 81 1 502 1091 29 42
4 0 501 505 506 507 81 1 500 2231 437 476 505 0 508 501 509 81 1 439 2233 437 43
5 506 0 501 433 510 83 3 503 .615686274509804 .811764705882353 .929411764705882
 81 1 506 1092 29 435 0 439 502 438 511 83 3 510 .615686274509804 .8117647058823
53 .929411764705882 80 1 29 512 513 9000 0 0 0 0 3 6 0 0 0 FFTFTFTTFFFFFFFF1 81
 1 438 1093 29 432 0 433 506 514 515 82 255 3 511 7 2 2 81 1 514 1096 29 479 0 4
89 438 516 517 82 3 515 7 3 2 81 1 489 2227 437 479 514 0 485 498 518 81 1 516 1
097 29 429 0 519 514 153 520 82 3 517 7 6 2 14 429 599 519 ?308 417 428 6 521 -0
 0 308 417 23 81 1 519 2224 437 429 516 0 495 488 522 81 1 153 1536 29 151 0 0 5
16 157 523 82 3 520 7 7 2 81 1 157 1537 29 155 0 0 153 141 524 82 3 523 11 0 0 8
1 1 141 1538 29 139 0 0 157 73 525 82 3 524 11 1 0 81 1 73 1539 29 71 0 0 141 14
5 526 82 3 525 11 2 0 81 1 145 1540 29 143 0 0 73 149 527 82 3 526 11 3 0 81 1 1
49 1541 29 147 0 0 145 373 528 82 3 527 11 4 0 81 1 373 1542 29 209 0 0 149 371
 529 82 3 528 11 5 0 81 1 371 1543 29 369 0 0 373 384 530 82 3 529 11 0 1 81 1 3
84 1544 29 382 0 0 371 380 531 82 3 530 11 1 1 81 1 380 1545 29 378 0 0 384 377
 532 82 3 531 11 2 1 81 1 377 1546 29 348 0 0 380 375 533 82 3 532 11 3 1 81 1 3
75 1547 29 352 0 0 377 392 534 82 3 533 11 4 1 81 1 392 1548 29 360 0 0 375 388
 535 82 3 534 11 5 1 81 1 388 1549 29 386 0 0 392 536 537 82 3 535 11 6 1 81 1 5
36 1556 29 434 0 440 388 538 539 82 3 537 11 7 1 81 1 440 2235 437 434 536 0 433
 540 541 81 1 538 1557 29 442 0 540 536 161 542 82 3 539 11 0 2 14 442 1474 540
 ?543 434 544 6 545 +0 0 543 434 23 81 1 540 2236 437 442 538 0 440 546 547 81 1
 161 2003 29 159 0 0 538 176 548 82 3 542 11 1 2 82 3 548 15 0 0 81 1 546 2237 4
37 543 339 0 540 549 550 83 3 547 .615686274509804 .811764705882353 .92941176470
5882 14 543 1936 546 ?183 442 551 6 552 -0 0 183 442 23 81 1 339 2023 29 543 0 5
46 337 553 554 81 1 549 2238 437 183 553 0 546 0 555 83 3 550 .615686274509804 .
811764705882353 .929411764705882 14 183 1941 549 ?0 543 179 6 556 +0 0 0 543 23
 81 1 553 2024 29 183 0 549 339 557 558 83 3 555 .615686274509804 .8117647058823
53 .929411764705882 81 1 557 2026 29 208 0 559 553 560 561 82 3 558 15 1 2 14 20
8 595 559 ?351 199 189 6 562 +0 0 351 199 23 81 1 559 2218 437 208 557 0 454 563
 564 81 1 560 2027 29 199 0 454 557 565 566 82 3 561 15 3 2 81 1 454 2217 437 19
9 560 0 450 559 567 81 1 565 2028 29 496 0 568 560 569 570 82 3 566 15 4 2 14 49
6 587 568 ?417 571 572 6 573 +0 0 417 571 23 81 1 568 2222 437 496 565 0 574 495
 575 81 1 569 2029 29 571 0 574 565 576 577 82 3 570 15 5 2 14 571 589 574 ?496
 345 578 6 579 +0 0 496 345 23 81 1 574 2221 437 571 569 0 580 568 581 81 1 576
 2030 29 345 0 580 569 582 583 82 3 577 15 6 2 14 345 591 580 ?571 351 341 6 584
 +0 0 571 351 23 81 1 580 2220 437 345 576 0 563 574 585 81 1 582 2031 29 351 0
 563 576 65 586 82 3 583 15 7 2 14 351 593 563 ?345 208 349 6 587 +0 0 345 208 2
3 81 1 563 2219 437 351 582 0 559 580 588 81 1 65 2104 29 63 0 0 582 61 589 82 3
 586 15 8 2 81 1 61 2105 29 59 0 0 65 53 590 82 3 589 16 0 0 81 1 53 2106 29 51
 0 0 61 57 591 82 3 590 16 1 0 81 1 57 2107 29 55 0 0 53 277 592 82 3 591 16 2 0
 81 1 277 2108 29 275 0 0 57 281 593 82 3 592 16 3 0 81 1 281 2109 29 279 0 0 27
7 288 594 82 3 593 16 0 1 81 1 288 2110 29 286 0 0 281 285 595 82 3 594 16 1 1 8
1 1 285 2111 29 283 0 0 288 411 596 82 3 595 16 2 1 81 1 411 2112 29 390 0 0 285
 395 597 82 3 596 16 3 1 81 1 395 2113 29 327 0 0 411 412 598 82 3 597 16 4 1 82
 3 598 16 5 1 83 3 588 .615686274509804 .811764705882353 .929411764705882 50 587
 617 0 351 584 562 0 +.00504098953786192 .01905 -.00396875 -.866025403784439 0 .
5 .5 0 .866025403784439 50 584 616 0 345 579 587 0 +.00687407664253898 .01905 79
375e-8 -.866025403784438 0 -.5 -.5 0 .866025403784439 50 562 618 0 208 587 456 0
 +-.00183308710467706 .01905 -.00635 -2365849761790805e-31 0 1 1 0 2365849761790
805e-31 50 456 619 0 199 562 521 0 +-.00687407664253898 .01905 -79375e-8 .866025
403784439 0 .5 .5 0 -.866025403784439 51 521 620 0 429 456 491 0 -89338259012805
6e-31 .01905 -650521303491303e-33 0 -1 0 .0127 -1 0 0 51 491 621 0 479 521 492 0
 -3888253587292845e-34 .01905 -3252606517456515e-34 0 -1 0 .0127 -1 0 0 50 579 6
15 0 571 573 584 0 +-216840434497101e-32 .01905 .00635 3548774642686205e-31 0 -1
 -1 0 -3548774642686205e-31 50 573 614 0 496 599 579 0 +-.00504098953786192 .019
05 .00396875 .866025403784439 0 -.5 -.5 0 -.866025403784439 50 599 543 0 301 600
 573 0 +0 0 0 0 1 0 1 0 0 14 301 384 508 ?476 426 601 6 599 -0 0 476 426 23 50 6
00 3 0 426 444 599 0 +0 .01905 0 0 1 0 1 0 0 14 426 1 602 ?301 469 603 6 600 +0
 0 301 469 23 51 444 1492 0 434 545 600 0 +90205620750794e-30 .0174625 -13309656
8126755e-32 0 1 0 .0111125 1 0 0 50 545 1494 0 442 552 444 0 +0 .0174625 0 0 1 0
 1 0 0 51 552 1959 0 543 556 545 0 +0 .0015875 680444377776248e-33 0 -1 0 .01111
25 -1 0 0 50 556 1961 0 183 0 552 0 +0 .0015875 0 0 -1 0 1 0 0 81 1 602 2229 437
 426 604 0 498 508 605 15 603 1213 0 606 426 33 17 606 0 603 606 606 0 393 360 0
 0 -17 393 0 607 393 393 0 606 360 0 0 +15 607 1473 0 393 434 0 81 1 604 2208 29
 426 0 602 608 609 610 81 1 498 2228 437 469 611 0 489 602 612 81 1 508 2230 437
 301 609 0 602 500 613 83 3 605 .615686274509804 .811764705882353 .9294117647058
82 81 1 609 2209 29 301 0 508 604 0 614 83 3 613 .615686274509804 .8117647058823
53 .929411764705882 82 3 614 17 4 2 81 1 611 2117 29 469 0 498 453 30 615 83 3 6
12 .615686274509804 .811764705882353 .929411764705882 81 1 453 2116 29 448 0 450
 398 611 616 81 1 30 2118 29 417 0 495 611 27 617 82 3 615 16 1 2 81 1 495 2223
 437 417 30 0 568 519 618 82 3 617 16 2 2 83 3 618 .615686274509804 .81176470588
2353 .929411764705882 81 1 398 2115 29 396 0 0 412 453 619 82 3 616 16 0 2 82 3
 619 16 7 1 81 1 608 2207 29 308 0 488 487 604 620 82 3 610 17 3 2 81 1 488 2225
 437 308 608 0 519 485 621 81 1 487 2206 29 484 0 485 449 608 622 82 3 620 17 2
 2 81 1 449 2205 29 17 0 447 314 487 623 82 3 622 17 1 2 81 1 314 2204 29 402 0
 0 310 449 624 82 3 623 17 0 2 82 3 624 17 7 1 83 3 621 .615686274509804 .811764
705882353 .929411764705882 15 601 1679 0 625 301 298 17 625 0 601 625 625 0 368
 194 0 0 -17 368 0 626 368 368 0 625 194 0 0 +15 626 1940 0 368 543 0 83 3 585 .
615686274509804 .811764705882353 .929411764705882 83 3 581 .615686274509804 .811
764705882353 .929411764705882 15 578 588 0 336 571 0 17 336 0 578 627 381 167 34
6 334 0 0 +17 627 0 578 628 336 171 170 362 0 333 -17 381 0 578 336 628 143 74 3
78 0 346 +17 346 0 341 343 342 143 336 334 0 0 -17 628 0 578 381 627 71 333 329
 0 0 -17 74 0 544 142 146 71 381 378 0 385 -15 544 1477 0 158 442 629 17 142 0 5
44 158 74 139 385 382 0 200 -17 146 0 544 74 150 143 343 348 0 381 -17 385 0 572
 333 202 71 142 382 0 628 +15 572 586 0 333 496 0 17 333 0 572 186 385 171 628 3
29 0 0 +17 202 0 572 385 186 139 198 203 0 0 -17 186 0 572 202 333 67 174 205 0
 198 -17 174 0 179 170 70 171 186 205 0 627 +16 205 1810 630 ?174 362 185 631 0
 0 1 81 1 630 2012 29 205 0 0 204 632 633 16 362 1820 632 ?170 347 205 364 0 0 1
 30 631 1979 0 205 206 364 0 +-.00504098953786192 .0015875 .00396875 .5 0 .86602
5403784439 30 206 1980 0 185 195 631 0 +-.00687407664253898 .0015875 -79375e-8 -
.5 0 .866025403784439 30 364 1978 0 362 631 363 0 +-216840434497101e-32 .0015875
 .00635 1 0 3548774642686205e-31 30 195 1981 0 181 0 206 0 +-.00183308710467706
 .0015875 -.00635 -1 0 -2365849761790805e-31 81 1 632 2013 29 362 0 0 630 356 63
4 17 170 0 179 166 174 167 627 362 0 342 +17 166 0 179 162 170 163 342 347 0 187
 +81 1 356 2014 29 347 0 0 632 353 635 82 3 634 15 4 1 82 3 635 15 5 1 81 1 204
 2011 29 185 0 0 193 630 636 82 3 633 15 3 1 81 1 193 2010 29 181 0 0 367 204 63
7 82 3 636 15 2 1 81 1 367 2009 29 194 0 0 165 193 638 82 3 637 15 1 1 81 1 165
 2008 29 163 0 0 169 367 639 82 3 638 15 0 1 81 1 169 2007 29 167 0 0 173 165 64
0 82 3 639 15 5 0 81 1 173 2006 29 171 0 0 69 169 641 82 3 640 15 4 0 81 1 69 20
05 29 67 0 0 176 173 642 82 3 641 15 3 0 82 3 642 15 2 0 17 150 0 544 146 154 14
7 350 352 0 343 -17 154 0 544 150 158 151 207 209 0 350 -17 158 0 544 154 142 15
5 200 369 0 207 -17 200 0 196 198 197 139 158 369 0 202 +15 629 1478 0 389 442 0
 17 389 0 629 389 389 0 643 386 0 0 +17 643 0 443 643 643 0 389 386 0 0 -15 443
 1472 0 643 434 607 83 3 575 .615686274509804 .811764705882353 .929411764705882
 83 3 567 .615686274509804 .811764705882353 .929411764705882 83 3 564 .615686274
509804 .811764705882353 .929411764705882 82 3 554 15 0 2 15 551 1939 0 644 543 6
26 17 644 0 551 644 644 0 359 354 0 0 -17 359 0 184 359 359 0 644 354 0 0 +15 18
4 1945 0 359 183 0 83 3 541 .615686274509804 .811764705882353 .929411764705882 8
3 3 522 .615686274509804 .811764705882353 .929411764705882 83 3 518 .61568627450
9804 .811764705882353 .929411764705882 79 9 513 BTI/DetId81 1 505 1090 29 476 0
 500 409 502 645 83 3 509 .615686274509804 .811764705882353 .929411764705882 81
 1 409 1081 29 330 0 0 325 505 646 82 3 645 7 0 2 81 1 325 1080 29 318 0 0 406 4
09 647 82 3 646 7 19 1 81 1 406 1079 29 404 0 0 316 325 648 82 3 647 7 18 1 81 1
 316 1078 29 311 0 0 247 406 649 82 3 648 7 17 1 81 1 247 1077 29 245 0 0 233 31
6 650 82 3 649 7 16 1 81 1 233 1076 29 231 0 0 274 247 651 82 3 650 7 15 1 81 1
 274 1075 29 272 0 0 271 233 652 82 3 651 7 14 1 81 1 271 1074 29 269 0 0 244 27
4 653 82 3 652 7 13 1 81 1 244 1073 29 242 0 0 226 271 654 82 3 653 7 12 1 81 1
 226 1072 29 219 0 0 268 244 655 82 3 654 7 11 1 81 1 268 1071 29 266 0 0 265 22
6 656 82 3 655 7 10 1 81 1 265 1070 29 263 0 0 240 268 657 82 3 656 7 9 1 81 1 2
40 1069 29 238 0 0 236 265 658 82 3 657 7 8 1 81 1 236 1068 29 234 0 0 262 240 6
59 82 3 658 7 7 1 81 1 262 1067 29 260 0 0 258 236 660 82 3 659 7 6 1 81 1 258 1
066 29 256 0 0 217 262 661 82 3 660 7 5 1 81 1 217 1065 29 211 0 0 230 258 662 8
2 3 661 7 4 1 81 1 230 1064 29 228 0 0 254 217 663 82 3 662 7 3 1 81 1 254 1063
 29 252 0 0 251 230 664 82 3 663 7 2 1 81 1 251 1062 29 249 0 0 77 254 665 82 3
 664 7 1 1 81 1 77 1061 29 75 0 0 101 251 666 82 3 665 7 0 1 81 1 101 1060 29 99
 0 0 81 77 667 82 3 666 7 15 0 81 1 81 1059 29 79 0 0 109 101 668 82 3 667 7 14
 0 81 1 109 1058 29 107 0 0 85 81 669 82 3 668 7 13 0 81 1 85 1057 29 83 0 0 121
 109 670 82 3 669 7 12 0 81 1 121 1056 29 119 0 0 89 85 671 82 3 670 7 11 0 81 1
 89 1055 29 87 0 0 129 121 672 82 3 671 7 10 0 81 1 129 1054 29 127 0 0 93 89 67
3 82 3 672 7 9 0 81 1 93 1053 29 91 0 0 105 129 674 82 3 673 7 8 0 81 1 105 1052
 29 103 0 0 97 93 675 82 3 674 7 7 0 81 1 97 1051 29 95 0 0 113 105 676 82 3 675
 7 6 0 81 1 113 1050 29 111 0 0 133 97 677 82 3 676 7 5 0 81 1 133 1049 29 131 0
 0 117 113 678 82 3 677 7 4 0 81 1 117 1048 29 115 0 0 137 133 679 82 3 678 7 3
 0 81 1 137 1047 29 135 0 0 125 117 680 82 3 679 7 2 0 81 1 125 1046 29 123 0 0
 681 137 682 82 3 680 7 1 0 81 1 681 781 29 1 0 683 0 125 684 82 3 682 7 0 0 81
 1 683 2212 685 1 681 14 0 0 686 82 3 684 6 0 3 80 1 685 687 688 8038 0 0 0 0 0
 0 0 0 0 TTTTTTTTTTTTTFTF10 81 1 14 2213 687 1 683 2 0 0 689 98 255 6 686 80 97
 114 116 32 49 80 1 687 690 691 8017 0 0 0 0 0 0 0 0 0 TTTTTTTTTTTTTFTF3 84 6 68
9 Part 179 13 691 SDL/TYSA_NAME79 14 688 SDL/TYSA_UNAME82 3 507 7 1 2 79 15 504
 SDL/TYSA_COLOUR83 3 490 .615686274509804 .811764705882353 .929411764705882 17 4
68 0 33 54 255 63 134 327 0 0 -17 54 0 33 94 468 51 66 286 0 420 +17 134 0 467 2
18 278 131 468 327 0 255 +17 420 0 452 66 58 51 282 279 0 416 -17 416 0 414 282
 241 51 94 396 0 0 -83 3 455 .615686274509804 .811764705882353 .929411764705882
 83 3 451 .615686274509804 .811764705882353 .929411764705882 83 3 441 .615686274
509804 .811764705882353 .929411764705882 82 3 413 16 6 1 81 1 313 2202 29 399 0
 0 296 310 692 81 1 296 2201 29 305 0 0 295 313 693 82 3 692 17 5 1 82 3 693 17
 4 1 81 1 357 2016 29 354 0 0 353 214 694 81 1 214 2017 29 212 0 0 357 210 695 8
2 3 694 15 7 1 82 3 695 15 8 1 82 3 358 15 6 1 17 190 0 189 207 180 151 192 212
 0 0 -81 1 335 2021 29 334 0 0 332 337 696 82 3 340 15 13 1 81 1 332 2020 29 329
 0 0 215 335 697 82 3 696 15 12 1 81 1 215 2019 29 203 0 0 210 332 698 82 3 697
 15 11 1 82 3 698 15 10 1 82 3 315 17 6 1 81 1 24 2199 29 11 0 0 291 295 699 82
 3 297 17 3 1 81 1 291 2198 29 289 0 0 294 24 700 82 3 699 17 2 1 81 1 294 2197
 29 293 0 0 46 291 701 82 3 700 17 1 1 81 1 46 2196 29 39 0 0 40 294 702 82 3 70
1 17 0 1 81 1 40 2195 29 47 0 0 31 46 703 82 3 702 17 3 0 82 3 703 17 2 0 82 3 2
16 15 9 1 82 3 178 15 1 0 82 3 41 17 1 0 82 3 32 17 0 0 19 18 643 0 1 0 10 6 0 S
0 74 4 CI16 index_map_offset0 0 1 dCCZ20 16 6 0 0 609 458 683 14 2 549 0 0 0 0 0
 0 0 0 0 0 0 0 0 0 80 1 13 437 704 8040 0 0 0 0 3 5 0 0 0 TTTFFFFFFFFFFFFF2 83 3
 15 .615686274509804 .811764705882353 .929411764705882 79 17 704 SDL/TYSA_COLOUR
_21 0 
