**ABCDEFGHIJKLMNOPQRSTUVWXYZabcdefghijklmnopqrstuvwxyz**************************
**PARASOLID !"#$%&'()*+,-./:;<=>?@[\]^_`{|}~0123456789**************************
**PART1;
MC=unknown;
MC_MODEL=unknown;
MC_ID=unknown;
OS=unknown;
OS_RELEASE=unknown;
FRU=Parasolid 35.1.246;
APPL=Onshape;
SITE=unknown;
USER=unknown;
FORMAT=text;
GUISE=transmit;
KEY=BTGapi::writeModels_.xmt;
FILE=BTGapi::writeModels_.xmt;
DATE=2024-02-13T04:44:20 (UTC);
**PART2;
SCH=SCH_3501246_35102;
USFLD_SIZE=0;
**PART3;
**END_OF_HEADER*****************************************************************
T51 : TRANSMIT FILE created by modeller version 350124623 SCH_3501246_35102_1300
6231 0 12 36 CCCI7 lattice222 0 CCCI4 mesh1006 0 I8 polyline1008 0 CCCCCCCDI5 ow
ner1040 0 CCCI16 boundary_lattice222 0 CCCI13 boundary_mesh1006 0 I17 boundary_p
olyline1008 0 CCCA16 index_map_offset0 0 1 dA9 index_map82 0 A17 node_id_index_m
ap82 0 A20 schema_embedding_map82 0 A5 child12 0 A14 lowest_node_id0 0 1 dA16 me
sh_offset_data206 0 Z1 165 2 3 0 0 0 0 0 0 0 1e3 1e-8 0 4 0 1 0 1 2 5 0 6 7 0 0
 0 8 9 0 0 0 0 0 0 0 0 81 255 1 2 159 10 1 11 0 0 0 12 70 11 CI9 list_type0 0 1
 uI10 notransmit0 0 1 lCCCDCCDI12 finger_index0 0 1 dI12 finger_block1012 0 CZ3
 0 4 T1 0 0 6 20 1 13 13 13 255 5 62 0 1 0 14 0 0 15 0 52 255 6 138 16 17 18 0 0
 +0 254e-6 -874857057140891e-33 0 1 0 .0142875 .707106781186549 .707106781186546
 1 0 0 31 255 7 107 0 9 19 0 0 -0 0 -874857057140891e-33 0 1 0 1 0 0 .0140335 19
 9 CCCCCCI5 frame230 0 CA5 owner12 0 Z8 19 0 1 15 0 20 0 V0 16 255 9 104 21 ?22
 0 23 7 0 0 1 81 1 21 147 24 9 0 0 25 26 27 17 255 22 0 28 22 22 0 29 9 0 0 +16
 23 98 26 ?30 9 31 19 0 0 1 81 1 26 148 24 23 0 0 21 32 33 17 30 0 34 30 30 0 35
 23 0 0 +16 31 92 25 ?36 23 37 38 0 0 1 31 19 101 0 23 38 7 0 -0 .007366 -874857
057140891e-33 0 1 0 1 0 0 .0142875 31 38 95 0 31 39 19 0 +0 254e-6 -874857057140
891e-33 0 1 0 1 0 0 .0142875 31 39 89 0 37 40 38 0 +0 .00762 -874857057140891e-3
3 0 1 0 1 0 0 .0140335 16 37 86 32 ?41 31 42 39 0 0 1 31 40 51 0 43 44 39 0 +0 0
 -3888253587292845e-34 0 1 0 1 0 0 .00635 16 43 45 45 ?46 42 0 40 0 0 1 31 44 10
 0 42 0 40 0 +0 .00762 -3888253587292845e-34 0 1 0 1 0 0 .00635 16 42 8 47 ?48 3
7 43 44 0 0 1 81 1 47 72 24 42 0 0 45 49 50 17 48 0 51 48 48 0 52 42 0 0 +15 255
 51 56 0 48 14 53 17 52 0 54 52 52 0 48 42 0 0 -15 54 6 0 52 55 0 14 255 55 1 56
 ?57 58 59 5 60 +0 0 57 58 20 81 1 56 162 61 55 62 0 63 64 65 14 57 34 64 ?66 55
 28 5 67 -0 0 66 55 20 14 58 53 63 ?55 14 34 5 68 -0 0 55 14 20 15 59 87 0 41 55
 54 50 255 60 3 0 55 0 67 0 +0 .00762 0 0 1 0 1 0 0 13 20 20 0 0 0 0 0 0 8 14 14
 14 57 69 ?58 0 51 5 70 +0 0 58 0 20 81 1 69 160 61 14 49 0 0 63 71 51 255 70 61
 0 14 68 18 0 -0 .00762 -3888253587292845e-34 0 -1 0 .00635 -1 0 0 51 68 60 0 58
 67 70 0 -0 .00762 -874857057140891e-33 0 -1 0 .0142875 -1 0 0 52 18 124 72 66 7
0 6 0 +0 .00762 -874857057140891e-33 0 -1 0 .0140335 .707106781186549 .707106781
186546 -1 0 0 81 2 72 156 73 18 0 0 16 0 74 75 14 66 117 76 ?17 57 77 5 18 +0 0
 17 57 20 81 1 76 164 61 66 78 0 64 79 80 14 17 131 79 ?0 66 81 5 6 +0 0 0 66 20
 15 77 118 0 35 66 82 17 35 0 77 35 35 0 30 23 0 0 -15 82 119 0 83 66 0 17 83 0
 82 83 83 0 41 37 0 0 -17 41 0 59 41 41 0 83 37 0 0 +81 1 79 165 61 17 84 0 76 0
 85 15 81 132 0 29 17 86 17 29 0 81 29 29 0 22 9 0 0 -15 86 133 0 87 17 0 17 87
 0 86 87 87 0 36 31 0 0 -17 36 0 88 36 36 0 87 31 0 0 +15 88 93 0 36 58 0 80 7 C
CCCCDI12 legal_owners0 16 1 lCZ1 61 0 89 8001 0 0 0 0 3 5 0 0 0 FFFFTFTFFFFFFFFF
2 81 1 84 150 24 17 0 79 32 78 90 83 255 3 85 .615686274509804 .811764705882353
 .929411764705882 80 1 24 91 92 9000 0 0 0 0 3 6 0 0 0 FFTFTFTTFFFFFFFF1 81 1 32
 149 24 37 0 0 26 84 93 81 1 78 151 24 66 0 76 84 94 95 82 255 3 90 7 0 2 81 1 9
4 152 24 58 0 63 78 96 97 82 3 95 7 1 2 81 1 63 161 61 58 94 0 69 56 98 81 1 96
 153 24 57 0 64 94 62 99 82 3 97 7 2 2 81 1 64 163 61 57 96 0 56 76 100 81 1 62
 154 24 55 0 56 96 0 101 82 3 99 7 3 2 82 3 101 7 4 2 83 3 100 .615686274509804
 .811764705882353 .929411764705882 83 3 98 .615686274509804 .811764705882353 .92
9411764705882 82 3 93 7 3 1 79 255 9 92 BTI/DetId79 15 89 SDL/TYSA_COLOUR83 3 80
 .615686274509804 .811764705882353 .929411764705882 80 2 73 102 103 8044 0 0 0 0
 3 5 0 0 0 FFFFTFFFTTFFFFFF3 2 81 2 16 155 73 6 0 0 0 72 104 105 84 255 6 74 BAA
AAB83 3 75 0 254e-6 254e-6 84 6 104 BAAAAB83 3 105 -254e-6 0 254e-6 79 17 103 SD
L/TYSA_BLEND_ID50 67 49 0 57 60 68 0 +0 0 0 0 1 0 1 0 0 81 1 49 76 24 14 0 69 47
 106 107 83 3 71 .615686274509804 .811764705882353 .929411764705882 81 1 106 77
 24 1 0 108 49 25 109 82 3 107 6 3 2 81 1 108 157 110 1 106 11 0 0 111 81 1 25 1
46 24 31 0 0 106 21 112 82 3 109 6 0 3 82 3 112 7 0 1 80 1 110 113 114 8038 0 0
 0 0 0 0 0 0 0 TTTTTTTTTTTTTFTF10 81 1 11 158 113 1 108 2 0 0 115 98 255 6 111 8
0 97 114 116 32 49 80 1 113 116 117 8017 0 0 0 0 0 0 0 0 0 TTTTTTTTTTTTTFTF3 84
 6 115 Part 179 13 117 SDL/TYSA_NAME79 14 114 SDL/TYSA_UNAME15 34 99 0 30 58 88
 15 28 105 0 22 57 118 15 118 39 0 46 57 0 17 46 0 118 46 46 0 119 43 0 0 +17 11
9 0 53 119 119 0 46 43 0 0 -15 53 58 0 119 14 0 83 3 65 .615686274509804 .811764
705882353 .929411764705882 81 1 45 71 24 43 0 0 0 47 120 82 3 50 6 3 1 82 3 120
 6 2 1 82 3 33 7 2 1 82 3 27 7 1 1 19 15 63 0 1 0 8 5 0 S0 74 4 CI16 index_map_o
ffset0 0 1 dCCZ20 13 6 0 0 62 72 108 11 2 79 0 0 0 0 0 0 0 0 0 0 0 0 0 0 80 1 10
 61 121 8040 0 0 0 0 3 5 0 0 0 TTTFFFFFFFFFFFFF2 83 3 12 .615686274509804 .81176
4705882353 .929411764705882 79 17 121 SDL/TYSA_COLOUR_21 0 
