**ABCDEFGHIJKLMNOPQRSTUVWXYZabcdefghijklmnopqrstuvwxyz**************************
**PARASOLID !"#$%&'()*+,-./:;<=>?@[\]^_`{|}~0123456789**************************
**PART1;
MC=unknown;
MC_MODEL=unknown;
MC_ID=unknown;
OS=unknown;
OS_RELEASE=unknown;
FRU=Parasolid 35.1.246;
APPL=Onshape;
SITE=unknown;
USER=unknown;
FORMAT=text;
GUISE=transmit;
KEY=BTGapi::writeModels_.xmt;
FILE=BTGapi::writeModels_.xmt;
DATE=2024-02-13T04:44:24 (UTC);
**PART2;
SCH=SCH_3501246_35102;
USFLD_SIZE=0;
**PART3;
**END_OF_HEADER*****************************************************************
T51 : TRANSMIT FILE created by modeller version 350124623 SCH_3501246_35102_1300
6231 0 12 36 CCCI7 lattice222 0 CCCI4 mesh1006 0 I8 polyline1008 0 CCCCCCCDI5 ow
ner1040 0 CCCI16 boundary_lattice222 0 CCCI13 boundary_mesh1006 0 I17 boundary_p
olyline1008 0 CCCA16 index_map_offset0 0 1 dA9 index_map82 0 A17 node_id_index_m
ap82 0 A20 schema_embedding_map82 0 A5 child12 0 A14 lowest_node_id0 0 1 dA16 me
sh_offset_data206 0 Z1 795 2 3 0 0 0 0 0 0 0 1e3 1e-8 0 4 0 1 0 1 2 5 0 6 7 8 0
 0 9 10 11 0 0 0 0 0 0 0 81 255 1 2 774 12 1 13 0 0 0 14 70 11 CI9 list_type0 0
 1 uI10 notransmit0 0 1 lCCCDCCDI12 finger_index0 0 1 dI12 finger_block1012 0 CZ
3 0 4 T1 0 0 5 20 1 15 15 13 255 5 189 0 1 0 16 0 0 17 0 51 255 6 524 0 16 18 0
 0 +-.00549926131403119 -.05715 -.003175 0 1 0 .001634174209354125 1 0 0 30 255
 7 542 0 10 19 0 0 +-.00631634841870825 -.05715 -.00175976362048998 0 1 0 29 255
 8 435 0 20 21 0 -.00468217420935413 0 -.00459023637951002 19 9 CCCCCCI5 frame23
0 0 CA5 owner12 0 Z9 188 0 1 17 0 22 0 V0 16 255 10 470 23 ?24 0 25 7 0 0 1 18 2
55 11 182 26 27 0 28 29 ?1 81 1 26 635 30 11 0 0 31 32 33 17 255 27 0 34 35 36 1
1 37 38 0 39 -18 28 177 40 41 11 42 43 ?1 29 29 184 0 11 43 44 -.004682174209354
13 -.05715 -.00459023637951002 29 43 179 0 28 45 29 -.00366617420935412 -.05715
 -.00635 29 44 452 0 46 29 47 -.00631634841870825 0 -.00175976362048998 18 46 41
2 48 24 49 0 44 ?1 29 47 451 0 49 44 50 -.00733234841870825 0 -1734723475976805e
-33 18 49 408 51 52 53 46 47 ?1 29 50 450 0 53 47 54 -.00631634841870825 0 .0017
5976362048998 18 53 404 55 56 57 49 50 ?1 29 54 449 0 57 50 58 -.004682174209354
13 0 .00459023637951002 18 57 400 59 60 61 53 54 ?1 29 58 448 0 61 54 62 -.00366
6174209354125 0 .00635 18 61 396 63 64 65 57 58 ?1 29 62 447 0 65 58 66 -.001634
17420935412 0 .00635 18 65 392 67 68 69 61 62 ?1 29 66 446 0 69 62 70 .001634174
209354125 0 .00635 18 69 388 71 72 73 65 66 ?1 29 70 445 0 73 66 74 .00366617420
935412 0 .00635 18 73 384 75 76 77 69 70 ?1 29 74 444 0 77 70 78 .00468217420935
412 0 .00459023637951002 18 77 380 79 80 81 73 74 ?1 29 78 443 0 81 74 82 .00631
634841870825 0 .00175976362048998 18 81 376 83 84 85 77 78 ?1 29 82 442 0 85 78
 86 .00733234841870825 0 216840434497101e-32 18 85 372 87 88 89 81 82 ?1 29 86 4
41 0 89 82 90 .00631634841870825 0 -.00175976362048998 18 89 368 91 92 93 85 86
 ?1 29 90 440 0 93 86 94 .00468217420935413 0 -.00459023637951002 18 93 364 95 9
6 97 89 90 ?1 29 94 439 0 97 90 98 .003666174209354125 0 -.00635 18 97 360 99 10
0 101 93 94 ?1 29 98 438 0 101 94 102 .001634174209354125 0 -.00635 18 101 356 1
03 104 105 97 98 ?1 29 102 437 0 105 98 21 -.001634174209354125 0 -.00635 18 105
 352 106 107 108 101 102 ?1 29 21 436 0 108 102 8 -.00366617420935412 0 -.00635
 18 108 348 109 110 20 105 21 ?1 81 1 109 602 30 108 0 0 111 40 112 17 110 0 113
 114 115 108 41 116 0 117 +18 20 344 31 37 118 108 8 ?1 81 1 31 634 30 20 0 0 11
9 26 120 17 37 0 121 117 39 20 27 38 0 122 +18 118 97 119 123 124 20 125 ?1 81 1
 119 633 30 118 0 0 48 31 126 17 123 0 127 128 129 118 24 10 0 130 -18 124 102 1
31 132 133 118 134 ?1 29 125 99 0 118 0 134 -.00631634841870825 -.05715 -.001759
76362048998 29 134 104 0 124 125 135 -.00733234841870825 -.05715 -17347234759768
05e-33 29 135 109 0 133 134 136 -.00631634841870825 -.05715 .00175976362048998 1
8 133 107 137 138 139 124 135 ?1 29 136 114 0 139 135 140 -.00468217420935413 -.
05715 .00459023637951002 18 139 112 141 142 143 133 136 ?1 29 140 119 0 143 136
 144 -.003666174209354125 -.05715 .00635 18 143 117 145 146 147 139 140 ?1 29 14
4 124 0 147 140 148 -.00163417420935412 -.05715 .00635 18 147 122 149 150 151 14
3 144 ?1 29 148 129 0 151 144 152 .001634174209354125 -.05715 .00635 18 151 127
 153 154 155 147 148 ?1 29 152 134 0 155 148 156 .00366617420935412 -.05715 .006
35 18 155 132 157 158 159 151 152 ?1 29 156 139 0 159 152 160 .00468217420935412
 -.05715 .00459023637951002 18 159 137 161 162 163 155 156 ?1 29 160 144 0 163 1
56 164 .00631634841870825 -.05715 .00175976362048998 18 163 142 165 166 167 159
 160 ?1 29 164 149 0 167 160 168 .00733234841870825 -.05715 216840434497101e-32
 18 167 147 169 170 171 163 164 ?1 29 168 154 0 171 164 172 .00631634841870825 -
.05715 -.00175976362048998 18 171 152 173 174 175 167 168 ?1 29 172 159 0 175 16
8 176 .00468217420935413 -.05715 -.00459023637951002 18 175 157 177 178 179 171
 172 ?1 29 176 164 0 179 172 180 .003666174209354125 -.05715 -.00635 18 179 162
 111 181 182 175 176 ?1 29 180 169 0 182 176 45 .001634174209354125 -.05715 -.00
635 18 182 167 183 184 42 179 180 ?1 29 45 174 0 42 180 43 -.001634174209354125
 -.05715 -.00635 18 42 172 185 186 28 182 45 ?1 81 1 185 613 30 42 0 0 106 103 1
87 17 186 0 113 115 114 42 107 188 0 189 -15 255 113 473 0 114 190 0 17 115 0 11
3 110 186 28 191 192 0 193 +17 114 0 113 186 110 105 194 195 0 196 -17 107 0 197
 198 189 105 186 188 0 114 +16 188 455 199 ?107 200 116 201 0 0 1 17 189 0 197 1
07 184 42 202 203 0 191 -15 197 475 0 198 204 0 17 184 0 197 189 198 182 104 200
 0 205 -17 202 0 206 207 191 182 189 203 0 0 +16 203 82 208 ?202 192 209 210 0 0
 1 17 191 0 206 202 193 42 115 192 0 0 -15 206 6 0 211 212 0 17 193 0 206 191 21
1 28 39 213 0 0 -16 192 87 214 ?115 213 203 215 0 0 1 81 1 214 657 30 192 0 0 21
6 217 218 16 213 92 219 ?39 38 192 220 0 0 1 30 215 89 0 192 210 220 0 +-.002650
174209354125 -.05715 -.00635 -1 0 0 31 255 210 84 0 203 221 215 0 +-433680868994
202e-33 -.05715 -.00635 0 1 0 1 0 0 .001634174209354125 30 220 94 0 213 215 222
 0 +-.004174174209354125 -.05715 -.00547011818975501 -.5 0 .866025403784439 31 2
22 434 0 223 220 224 0 +-.00549926131403119 0 -.003175 0 1 0 1 0 0 .001634174209
354125 16 223 340 225 ?36 226 227 222 0 0 1 30 224 433 0 226 222 228 0 +-.006824
34841870825 0 -.000879881810244989 -.5 0 .866025403784439 16 226 336 229 ?230 23
1 223 224 0 0 1 30 228 432 0 231 224 232 0 +-.00682434841870825 0 .0008798818102
44988 .5 0 .866025403784439 16 231 332 233 ?234 235 226 228 0 0 1 31 232 431 0 2
35 228 236 0 +-.00549926131403119 0 .003175 0 1 0 1 0 0 .001634174209354125 16 2
35 328 237 ?238 239 231 232 0 0 1 30 236 430 0 239 232 240 0 +-.0041741742093541
25 0 .00547011818975501 .5 0 .866025403784439 16 239 324 241 ?242 243 235 236 0
 0 1 30 240 429 0 243 236 244 0 +-.002650174209354125 0 .00635 1 0 4268512490100
405e-31 16 243 320 245 ?246 247 239 240 0 0 1 31 244 428 0 247 240 248 0 +130104
2606982604e-33 0 .00635 0 1 0 1 0 0 .001634174209354125 16 247 316 249 ?250 251
 243 244 0 0 1 30 248 427 0 251 244 252 0 +.002650174209354125 0 .00635 1 0 4268
512490100415e-31 16 251 312 253 ?254 255 247 248 0 0 1 30 252 426 0 255 248 256
 0 +.004174174209354125 0 .00547011818975501 .5 0 -.866025403784438 16 255 308 2
57 ?258 259 251 252 0 0 1 31 256 425 0 259 252 260 0 +.00549926131403119 0 .0031
75 0 1 0 1 0 0 .001634174209354125 16 259 304 261 ?262 263 255 256 0 0 1 30 260
 424 0 263 256 264 0 +.00682434841870825 0 .000879881810244993 .5 0 -.8660254037
84439 16 263 300 265 ?266 267 259 260 0 0 1 30 264 423 0 267 260 268 0 +.0068243
4841870825 0 -.000879881810244989 -.5 0 -.866025403784439 16 267 296 269 ?270 27
1 263 264 0 0 1 31 268 422 0 271 264 272 0 +.00549926131403119 0 -.003175 0 1 0
 1 0 0 .001634174209354125 16 271 292 273 ?274 275 267 268 0 0 1 30 272 421 0 27
5 268 276 0 +.004174174209354125 0 -.00547011818975501 -.5 0 -.866025403784439 1
6 275 288 277 ?278 279 271 272 0 0 1 30 276 420 0 279 272 280 0 +.00265017420935
4125 0 -.00635 -1 0 0 16 279 284 281 ?282 283 275 276 0 0 1 31 280 419 0 283 276
 284 0 +-433680868994202e-33 0 -.00635 0 1 0 1 0 0 .001634174209354125 16 283 28
0 285 ?198 195 279 280 0 0 1 30 284 418 0 195 280 286 0 +-.002650174209354125 0
 -.00635 -1 0 0 16 195 276 216 ?194 287 283 284 0 0 1 30 286 417 0 287 284 288 0
 +-.004174174209354125 0 -.00547011818975501 -.5 0 .866025403784439 16 287 272 2
17 ?122 289 195 286 0 0 1 30 288 525 0 38 286 290 0 +-.00468217420935413 -.05715
 -.00459023637951002 0 1 0 16 38 453 291 ?37 116 213 288 0 0 1 30 290 526 0 116
 288 201 0 +-.00366617420935412 -.05715 -.00635 0 1 0 16 116 454 292 ?110 188 38
 290 0 0 1 30 201 527 0 188 290 293 0 +-.001634174209354125 -.05715 -.00635 0 1
 0 30 293 528 0 200 201 294 0 +.001634174209354125 -.05715 -.00635 0 1 0 16 200
 456 295 ?104 296 188 293 0 0 1 30 294 529 0 296 293 297 0 +.003666174209354125
 -.05715 -.00635 0 1 0 16 296 457 32 ?100 298 200 294 0 0 1 30 297 530 0 298 294
 299 0 +.00468217420935413 -.05715 -.00459023637951002 0 1 0 16 298 458 300 ?96
 301 296 297 0 0 1 30 299 531 0 301 297 302 0 +.00631634841870825 -.05715 -.0017
5976362048998 0 1 0 16 301 459 303 ?92 304 298 299 0 0 1 30 302 532 0 304 299 30
5 0 +.00733234841870825 -.05715 216840434497101e-32 0 1 0 16 304 460 306 ?88 307
 301 302 0 0 1 30 305 533 0 307 302 308 0 +.00631634841870825 -.05715 .001759763
62048998 0 1 0 16 307 461 309 ?84 310 304 305 0 0 1 30 308 534 0 310 305 311 0 +
.00468217420935412 -.05715 .00459023637951002 0 1 0 16 310 462 312 ?80 313 307 3
08 0 0 1 30 311 535 0 313 308 314 0 +.00366617420935412 -.05715 .00635 0 1 0 16
 313 463 315 ?76 316 310 311 0 0 1 30 314 536 0 316 311 317 0 +.0016341742093541
25 -.05715 .00635 0 1 0 16 316 464 318 ?72 319 313 314 0 0 1 30 317 537 0 319 31
4 320 0 +-.00163417420935412 -.05715 .00635 0 1 0 16 319 465 321 ?68 322 316 317
 0 0 1 30 320 538 0 322 317 323 0 +-.003666174209354125 -.05715 .00635 0 1 0 16
 322 466 324 ?64 325 319 320 0 0 1 30 323 539 0 325 320 326 0 +-.004682174209354
13 -.05715 .00459023637951002 0 1 0 16 325 467 327 ?60 328 322 323 0 0 1 30 326
 540 0 328 323 19 0 +-.00631634841870825 -.05715 .00175976362048998 0 1 0 16 328
 468 329 ?56 25 325 326 0 0 1 30 19 541 0 25 326 7 0 +-.00733234841870825 -.0571
5 -1734723475976805e-33 0 1 0 16 25 469 330 ?52 10 328 19 0 0 1 81 1 330 638 30
 25 0 0 292 324 331 17 52 0 127 129 128 49 132 25 0 332 +15 127 503 0 129 333 0
 17 129 0 127 123 52 46 230 226 0 334 -17 128 0 127 52 123 124 130 335 0 336 +17
 132 0 337 338 332 124 52 25 0 128 -17 332 0 337 132 56 49 234 231 0 230 -15 337
 501 0 332 339 0 17 56 0 337 332 338 53 138 328 0 238 +17 234 0 340 341 230 53 3
32 231 0 0 +17 230 0 340 234 334 49 129 226 0 0 +15 340 271 0 334 342 0 17 334 0
 340 230 122 46 36 223 0 0 -17 122 0 340 334 194 20 117 287 0 36 +17 36 0 34 27
 24 20 334 223 0 0 +15 34 505 0 36 16 0 17 24 0 34 36 35 46 123 10 0 129 +17 35
 0 34 24 27 118 211 289 0 0 -17 211 0 206 193 130 11 35 289 0 0 +16 289 7 343 ?2
11 335 287 344 0 0 1 81 1 343 689 30 289 0 0 225 345 346 16 335 12 347 ?128 348
 289 349 0 0 1 31 344 9 0 289 350 349 0 +-.00549926131403119 -.05715 -.003175 0
 1 0 1 0 0 .001634174209354125 31 350 763 0 227 351 344 0 +0 0 0 0 -1 0 -1 0 0 .
003175 30 349 14 0 335 344 352 0 +-.00682434841870825 -.05715 -.0008798818102449
89 -.5 0 .866025403784439 30 352 19 0 348 349 353 0 +-.00682434841870825 -.05715
 .000879881810244988 .5 0 .866025403784439 16 348 17 354 ?338 355 335 352 0 0 1
 31 353 24 0 355 352 356 0 +-.00549926131403119 -.05715 .003175 0 1 0 1 0 0 .001
634174209354125 16 355 22 357 ?358 359 348 353 0 0 1 30 356 29 0 359 353 360 0 +
-.004174174209354125 -.05715 .00547011818975501 .5 0 .866025403784439 16 359 27
 361 ?362 363 355 356 0 0 1 30 360 34 0 363 356 364 0 +-.002650174209354125 -.05
715 .00635 1 0 4268512490100405e-31 16 363 32 365 ?366 367 359 360 0 0 1 31 364
 39 0 367 360 368 0 +1301042606982604e-33 -.05715 .00635 0 1 0 1 0 0 .0016341742
09354125 16 367 37 369 ?370 371 363 364 0 0 1 30 368 44 0 371 364 372 0 +.002650
174209354125 -.05715 .00635 1 0 4268512490100415e-31 16 371 42 373 ?374 375 367
 368 0 0 1 30 372 49 0 375 368 376 0 +.004174174209354125 -.05715 .0054701181897
5501 .5 0 -.866025403784438 16 375 47 377 ?378 379 371 372 0 0 1 31 376 54 0 379
 372 380 0 +.00549926131403119 -.05715 .003175 0 1 0 1 0 0 .001634174209354125 1
6 379 52 381 ?382 383 375 376 0 0 1 30 380 59 0 383 376 384 0 +.0068243484187082
5 -.05715 .000879881810244993 .5 0 -.866025403784439 16 383 57 385 ?386 387 379
 380 0 0 1 30 384 64 0 387 380 388 0 +.00682434841870825 -.05715 -.0008798818102
44989 -.5 0 -.866025403784439 16 387 62 389 ?390 391 383 384 0 0 1 31 388 69 0 3
91 384 392 0 +.00549926131403119 -.05715 -.003175 0 1 0 1 0 0 .00163417420935412
5 16 391 67 393 ?394 395 387 388 0 0 1 30 392 74 0 395 388 221 0 +.0041741742093
54125 -.05715 -.00547011818975501 -.5 0 -.866025403784439 16 395 72 396 ?397 209
 391 392 0 0 1 30 221 79 0 209 392 210 0 +.002650174209354125 -.05715 -.00635 -1
 0 0 16 209 77 398 ?205 203 395 221 0 0 1 81 1 398 655 30 209 0 0 281 216 399 17
 205 0 400 104 181 182 207 209 0 202 +15 400 477 0 401 402 0 17 104 0 400 401 20
5 101 184 200 0 198 +17 181 0 400 205 401 179 100 296 0 397 -17 207 0 206 403 20
2 179 205 209 0 0 -17 403 0 206 394 207 175 397 395 0 0 -17 394 0 206 404 403 17
1 405 391 0 0 +17 397 0 406 100 178 179 403 395 0 207 +15 406 479 0 407 408 0 17
 100 0 406 407 397 97 181 296 0 401 +17 178 0 406 397 407 175 96 298 0 405 -17 4
07 0 406 178 100 93 278 275 0 409 -17 96 0 410 274 405 93 178 298 0 407 +17 405
 0 410 96 174 175 394 391 0 403 -15 410 481 0 274 411 0 17 174 0 410 405 274 171
 92 301 0 390 -17 274 0 410 174 96 89 409 271 0 270 +17 92 0 412 413 390 89 174
 301 0 274 +17 390 0 412 92 170 171 404 387 0 394 +15 412 483 0 413 414 0 17 170
 0 412 390 413 167 88 304 0 386 -17 404 0 206 415 394 167 390 387 0 0 -17 415 0
 206 382 404 163 386 383 0 0 -17 382 0 206 416 415 159 417 379 0 0 +17 386 0 418
 88 166 167 415 383 0 404 +15 418 485 0 419 420 0 17 88 0 418 419 386 85 170 304
 0 413 +17 166 0 418 386 419 163 84 307 0 417 -17 419 0 418 166 88 81 266 263 0
 421 -17 84 0 422 262 417 81 166 307 0 419 +17 417 0 422 84 162 163 382 379 0 41
5 -15 422 487 0 262 423 0 17 162 0 422 417 262 159 80 310 0 378 -17 262 0 422 16
2 84 77 421 259 0 258 +17 80 0 424 425 378 77 162 310 0 262 +17 378 0 424 80 158
 159 416 375 0 382 +15 424 489 0 425 426 0 17 158 0 424 378 425 155 76 313 0 374
 -17 416 0 206 427 382 155 378 375 0 0 -17 427 0 206 370 416 151 374 371 0 0 -17
 370 0 206 428 427 147 429 367 0 0 +17 374 0 430 76 154 155 427 371 0 416 +15 43
0 491 0 431 432 0 17 76 0 430 431 374 73 158 313 0 425 +17 154 0 430 374 431 151
 72 316 0 429 -17 431 0 430 154 76 69 254 251 0 433 -17 72 0 434 250 429 69 154
 316 0 431 +17 429 0 434 72 150 151 370 367 0 427 -15 434 493 0 250 435 0 17 150
 0 434 429 250 147 68 319 0 366 -17 250 0 434 150 72 65 433 247 0 246 +17 68 0 4
36 437 366 65 150 319 0 250 +17 366 0 436 68 146 147 428 363 0 370 +15 436 495 0
 437 438 0 17 146 0 436 366 437 143 64 322 0 362 -17 428 0 206 439 370 143 366 3
63 0 0 -17 439 0 206 358 428 139 362 359 0 0 -17 358 0 206 336 439 133 440 355 0
 0 +17 362 0 441 64 142 143 439 359 0 428 +15 441 497 0 442 443 0 17 64 0 441 44
2 362 61 146 322 0 437 +17 142 0 441 362 442 139 60 325 0 440 -17 442 0 441 142
 64 57 242 239 0 341 -17 60 0 444 238 440 57 142 325 0 442 +17 440 0 444 60 138
 139 358 355 0 439 -15 444 499 0 238 445 0 17 138 0 444 440 238 133 56 328 0 338
 -17 238 0 444 138 60 53 341 235 0 234 +17 338 0 337 56 132 133 336 348 0 358 +1
7 336 0 206 130 358 124 338 348 0 0 -17 130 0 206 211 336 118 128 335 0 35 -17 3
41 0 340 242 234 57 238 235 0 0 -17 242 0 340 246 341 61 442 239 0 0 +17 246 0 3
40 433 242 65 437 243 0 0 +17 433 0 340 254 246 69 250 247 0 0 -17 437 0 436 146
 68 61 246 243 0 242 -17 254 0 340 258 433 73 431 251 0 0 +17 258 0 340 421 254
 77 425 255 0 0 +17 421 0 340 266 258 81 262 259 0 0 -17 425 0 424 158 80 73 258
 255 0 254 -17 266 0 340 270 421 85 419 263 0 0 +17 270 0 340 409 266 89 413 267
 0 0 +17 409 0 340 278 270 93 274 271 0 0 -17 413 0 412 170 92 85 270 267 0 266
 -17 278 0 340 282 409 97 407 275 0 0 +17 282 0 340 196 278 101 401 279 0 0 +17
 196 0 340 194 282 105 198 283 0 0 -17 401 0 400 181 104 97 282 279 0 278 -17 19
4 0 340 122 196 108 114 195 0 0 +17 198 0 197 184 107 101 196 283 0 282 +14 255
 445 500 446 ?443 339 444 5 447 -0 0 443 339 22 81 1 446 778 448 445 449 0 450 4
51 452 14 443 498 451 ?438 445 441 5 453 +0 0 438 445 22 14 339 502 450 ?445 333
 337 5 454 +0 0 445 333 22 51 447 521 0 445 453 454 0 +-.00549926131403119 -.057
15 .003175 0 1 0 .001634174209354125 1 0 0 13 22 543 0 0 0 0 0 0 9 16 14 16 506
 455 ?333 0 34 5 6 -0 0 333 0 22 81 1 455 775 448 16 456 0 0 457 458 14 333 504
 457 ?339 16 127 5 18 +0 0 339 16 22 81 1 457 776 448 333 459 0 455 450 460 50 2
55 18 523 0 333 454 6 0 +-.00682434841870825 -.05715 -.000879881810244989 -.8660
25403784439 0 -.5 -.5 0 .866025403784439 50 454 522 0 339 447 18 0 +-.0068243484
1870825 -.05715 .000879881810244988 -.866025403784439 0 .5 .5 0 .866025403784439
 80 7 CCCCCDI12 legal_owners0 16 1 lCZ1 448 0 461 8001 0 0 0 0 3 5 0 0 0 FFFFTFT
FFFFFFFFF2 81 1 459 695 30 333 0 457 462 463 464 81 1 450 777 448 339 463 0 457
 446 465 83 255 3 460 .615686274509804 .811764705882353 .929411764705882 81 1 46
3 696 30 339 0 450 459 466 467 83 3 465 .615686274509804 .811764705882353 .92941
1764705882 80 1 30 468 469 9000 0 0 0 0 3 6 0 0 0 FFTFTFTTFFFFFFFF1 81 1 466 697
 30 443 0 451 463 470 471 82 255 3 467 6 6 2 81 1 451 779 448 443 466 0 446 472
 473 81 1 470 698 30 438 0 472 466 474 475 82 3 471 6 7 2 14 438 496 472 ?435 44
3 436 5 476 +0 0 435 443 22 81 1 472 780 448 438 470 0 451 477 478 81 1 474 699
 30 432 0 479 470 480 481 82 3 475 6 8 2 14 432 492 479 ?426 435 430 5 482 +0 0
 426 435 22 81 1 479 782 448 432 474 0 477 483 484 81 1 480 700 30 426 0 483 474
 485 486 82 3 481 6 9 2 14 426 490 483 ?423 432 424 5 487 +0 0 423 432 22 81 1 4
83 783 448 426 480 0 479 488 489 81 1 485 701 30 420 0 490 480 491 492 82 3 486
 6 10 2 14 420 486 490 ?414 423 418 5 493 +0 0 414 423 22 81 1 490 785 448 420 4
85 0 488 494 495 81 1 491 702 30 414 0 494 485 496 497 82 3 492 6 11 2 14 414 48
4 494 ?411 420 412 5 498 +0 0 411 420 22 81 1 494 786 448 414 491 0 490 499 500
 81 1 496 703 30 408 0 501 491 502 503 82 3 497 6 12 2 14 408 480 501 ?402 411 4
06 5 504 +0 0 402 411 22 81 1 501 788 448 408 496 0 499 505 506 81 1 502 704 30
 204 0 507 496 508 509 82 3 503 6 13 2 14 204 476 507 ?190 402 197 5 510 -0 0 19
0 402 22 81 1 507 790 448 204 502 0 505 511 512 81 1 508 705 30 411 0 499 502 51
3 514 82 3 509 6 14 2 14 411 482 499 ?408 414 410 5 515 -0 0 408 414 22 81 1 499
 787 448 411 508 0 494 501 516 81 1 513 706 30 423 0 488 508 517 518 82 3 514 6
 15 2 14 423 488 488 ?420 426 422 5 519 -0 0 420 426 22 81 1 488 784 448 423 513
 0 483 490 520 81 1 517 707 30 435 0 477 513 449 521 82 3 518 6 16 2 14 435 494
 477 ?432 438 434 5 522 -0 0 432 438 22 81 1 477 781 448 435 517 0 472 479 523 8
1 1 449 708 30 445 0 446 517 456 524 82 3 521 6 17 2 81 1 456 709 30 16 0 455 44
9 525 526 82 3 524 6 18 2 81 1 525 710 30 1 0 527 456 528 529 82 3 526 6 19 2 81
 1 527 772 530 1 525 13 0 0 531 81 1 528 767 30 227 0 0 525 532 533 82 3 529 6 0
 3 16 227 737 528 ?534 223 535 350 0 0 1 81 1 532 768 30 535 0 0 528 536 537 82
 3 533 8 0 1 16 535 732 532 ?538 227 0 351 0 0 1 81 1 536 769 30 539 0 540 532 5
41 542 82 3 537 8 1 1 14 539 749 540 ?0 342 543 5 544 +0 0 0 342 22 81 1 540 795
 448 539 536 0 545 0 546 81 1 541 770 30 342 0 545 536 547 548 82 3 542 8 0 2 14
 342 250 545 ?539 212 549 5 550 +0 0 539 212 22 81 1 545 794 448 342 541 0 551 5
40 552 81 1 547 771 30 212 0 551 541 0 553 82 3 548 8 1 2 14 212 1 551 ?342 554
 555 5 556 -0 0 342 554 22 81 1 551 793 448 212 547 0 557 545 558 82 3 553 8 2 2
 81 1 557 792 448 554 462 0 511 551 559 83 3 558 .615686274509804 .8117647058823
53 .929411764705882 14 554 472 557 ?212 190 121 5 560 +0 0 212 190 22 81 1 462 6
94 30 554 0 557 561 459 562 81 1 511 791 448 190 561 0 507 557 563 83 3 559 .615
686274509804 .811764705882353 .929411764705882 14 190 474 511 ?554 204 113 5 564
 +0 0 554 204 22 81 1 561 693 30 190 0 511 345 462 565 83 3 563 .615686274509804
 .811764705882353 .929411764705882 81 1 345 690 30 402 0 505 343 561 566 82 3 56
5 6 3 2 14 402 478 505 ?204 408 400 5 567 +0 0 204 408 22 81 1 505 789 448 402 3
45 0 501 507 568 82 3 566 6 0 2 83 3 568 .615686274509804 .811764705882353 .9294
11764705882 50 567 510 0 402 510 504 0 +.002650174209354125 -.05715 -.00635 0 0
 -1 0 1 0 51 510 509 0 204 564 567 0 +-433680868994202e-33 -.05715 -.00635 0 1 0
 .001634174209354125 1 0 0 50 504 511 0 408 567 515 0 +.004174174209354125 -.057
15 -.00547011818975501 .866025403784439 0 -.5 -.5 0 -.866025403784439 51 515 512
 0 411 504 498 0 +.00549926131403119 -.05715 -.003175 0 1 0 .001634174209354125
 1 0 0 50 498 513 0 414 515 493 0 +.00682434841870825 -.05715 -.0008798818102449
89 .866025403784439 0 -.5 -.5 0 -.866025403784439 50 493 514 0 420 498 519 0 +.0
0682434841870825 -.05715 .000879881810244993 .866025403784439 0 .5 .5 0 -.866025
403784439 51 519 515 0 423 493 487 0 +.00549926131403119 -.05715 .003175 0 1 0 .
001634174209354125 1 0 0 50 487 516 0 426 519 482 0 +.004174174209354125 -.05715
 .00547011818975501 .866025403784438 0 .5 .5 0 -.866025403784438 50 482 517 0 43
2 487 522 0 +.002650174209354125 -.05715 .00635 -4268512490100415e-31 0 1 1 0 42
68512490100415e-31 51 522 518 0 435 482 476 0 +1301042606982604e-33 -.05715 .006
35 0 1 0 .001634174209354125 1 0 0 50 476 519 0 438 522 453 0 +-.002650174209354
125 -.05715 .00635 -4268512490100405e-31 0 1 1 0 4268512490100405e-31 50 453 520
 0 443 476 447 0 +-.004174174209354125 -.05715 .00547011818975501 -.866025403784
439 0 .5 .5 0 .866025403784439 50 564 508 0 190 560 510 0 +-.002650174209354125
 -.05715 -.00635 0 0 -1 0 1 0 50 560 507 0 554 550 564 0 +-.004174174209354125 -
.05715 -.00547011818975501 -.866025403784439 0 -.5 -.5 0 .866025403784439 50 550
 416 0 342 556 560 0 +0 0 0 0 1 0 1 0 0 50 556 3 0 212 544 550 0 +0 -.05715 0 0
 1 0 1 0 0 51 544 761 0 539 0 556 0 -0 0 0 0 -1 0 .003175 -1 0 0 82 3 562 6 4 2
 15 121 471 0 117 554 0 17 117 0 121 41 37 108 122 287 0 194 -17 41 0 121 39 117
 28 110 116 0 115 -17 39 0 121 37 41 11 193 213 0 211 +15 555 722 0 569 212 206
 17 569 0 555 569 569 0 538 535 0 0 -17 538 0 543 538 538 0 569 535 0 0 +15 543
 752 0 538 539 570 15 570 753 0 571 539 0 17 571 0 570 571 571 0 534 227 0 0 -17
 534 0 549 534 534 0 571 227 0 0 +15 549 714 0 534 342 340 83 3 552 .61568627450
9804 .811764705882353 .929411764705882 83 3 546 .615686274509804 .81176470588235
3 .929411764705882 31 351 764 0 535 0 350 0 +0 -.05715 0 0 -1 0 -1 0 0 .003175 8
0 1 530 572 573 8038 0 0 0 0 0 0 0 0 0 TTTTTTTTTTTTTFTF10 81 1 13 773 572 1 527
 2 0 0 574 98 255 6 531 80 97 114 116 32 49 80 1 572 575 576 8017 0 0 0 0 0 0 0
 0 0 TTTTTTTTTTTTTFTF3 84 255 6 574 Part 179 255 13 576 SDL/TYSA_NAME79 14 573 S
DL/TYSA_UNAME83 3 523 .615686274509804 .811764705882353 .929411764705882 83 3 52
0 .615686274509804 .811764705882353 .929411764705882 83 3 516 .615686274509804 .
811764705882353 .929411764705882 83 3 512 .615686274509804 .811764705882353 .929
411764705882 83 3 506 .615686274509804 .811764705882353 .929411764705882 83 3 50
0 .615686274509804 .811764705882353 .929411764705882 83 3 495 .615686274509804 .
811764705882353 .929411764705882 83 3 489 .615686274509804 .811764705882353 .929
411764705882 83 3 484 .615686274509804 .811764705882353 .929411764705882 83 3 47
8 .615686274509804 .811764705882353 .929411764705882 83 3 473 .615686274509804 .
811764705882353 .929411764705882 79 9 469 BTI/DetId82 3 464 6 5 2 79 15 461 SDL/
TYSA_COLOUR83 3 458 .615686274509804 .811764705882353 .929411764705882 83 3 452
 .615686274509804 .811764705882353 .929411764705882 81 1 281 654 30 279 0 0 291
 398 577 81 1 216 656 30 195 0 0 398 214 578 82 3 399 6 19 1 82 3 578 6 20 1 81
 1 291 653 30 38 0 0 23 281 579 82 3 577 6 18 1 81 1 23 652 30 10 0 0 329 291 58
0 82 3 579 6 17 1 81 1 329 651 30 328 0 0 327 23 581 82 3 580 6 16 1 81 1 327 65
0 30 325 0 0 321 329 582 82 3 581 6 15 1 81 1 321 649 30 319 0 0 318 327 583 82
 3 582 6 14 1 81 1 318 648 30 316 0 0 312 321 584 82 3 583 6 13 1 81 1 312 647 3
0 310 0 0 309 318 585 82 3 584 6 12 1 81 1 309 646 30 307 0 0 303 312 586 82 3 5
85 6 11 1 81 1 303 645 30 301 0 0 300 309 587 82 3 586 6 10 1 81 1 300 644 30 29
8 0 0 295 303 588 82 3 587 6 9 1 81 1 295 643 30 200 0 0 199 300 589 82 3 588 6
 8 1 81 1 199 642 30 188 0 0 306 295 590 82 3 589 6 7 1 81 1 306 641 30 304 0 0
 315 199 591 82 3 590 6 6 1 81 1 315 640 30 313 0 0 324 306 592 82 3 591 6 5 1 8
1 1 324 639 30 322 0 0 330 315 593 82 3 592 6 4 1 82 3 593 6 3 1 81 1 396 677 30
 395 0 0 277 285 594 81 1 277 676 30 275 0 0 389 396 595 81 1 285 678 30 283 0 0
 396 208 596 82 3 594 6 41 1 81 1 208 679 30 203 0 0 285 273 597 82 3 596 6 42 1
 81 1 273 680 30 271 0 0 208 393 598 82 3 597 6 43 1 81 1 393 681 30 391 0 0 273
 261 599 82 3 598 6 44 1 81 1 261 682 30 259 0 0 393 381 600 82 3 599 6 45 1 81
 1 381 683 30 379 0 0 261 249 601 82 3 600 6 46 1 81 1 249 684 30 247 0 0 381 36
9 602 82 3 601 6 47 1 81 1 369 685 30 367 0 0 249 237 603 82 3 602 6 48 1 81 1 2
37 686 30 235 0 0 369 357 604 82 3 603 6 49 1 81 1 357 687 30 355 0 0 237 225 60
5 82 3 604 6 50 1 81 1 225 688 30 223 0 0 357 343 606 82 3 605 6 51 1 82 3 606 6
 52 1 81 1 389 675 30 387 0 0 269 277 607 82 3 595 6 40 1 81 1 269 674 30 267 0
 0 385 389 608 82 3 607 6 39 1 81 1 385 673 30 383 0 0 265 269 609 82 3 608 6 38
 1 81 1 265 672 30 263 0 0 377 385 610 82 3 609 6 37 1 81 1 377 671 30 375 0 0 2
57 265 611 82 3 610 6 36 1 81 1 257 670 30 255 0 0 373 377 612 82 3 611 6 35 1 8
1 1 373 669 30 371 0 0 253 257 613 82 3 612 6 34 1 81 1 253 668 30 251 0 0 365 3
73 614 82 3 613 6 33 1 81 1 365 667 30 363 0 0 245 253 615 82 3 614 6 32 1 81 1
 245 666 30 243 0 0 361 365 616 82 3 615 6 31 1 81 1 361 665 30 359 0 0 241 245
 617 82 3 616 6 30 1 81 1 241 664 30 239 0 0 354 361 618 82 3 617 6 29 1 81 1 35
4 663 30 348 0 0 233 241 619 82 3 618 6 28 1 81 1 233 662 30 231 0 0 347 354 620
 82 3 619 6 27 1 81 1 347 661 30 335 0 0 229 233 621 82 3 620 6 26 1 81 1 229 66
0 30 226 0 0 219 347 622 82 3 621 6 25 1 81 1 219 659 30 213 0 0 217 229 623 82
 3 622 6 24 1 81 1 217 658 30 287 0 0 214 219 624 82 3 623 6 23 1 82 3 624 6 22
 1 82 3 346 6 53 1 81 1 292 637 30 116 0 0 32 330 625 82 3 331 6 2 1 81 1 32 636
 30 296 0 0 26 292 626 82 3 625 6 1 1 82 3 626 6 0 1 82 3 218 6 21 1 81 1 106 61
2 30 105 0 0 169 185 627 81 1 103 614 30 101 0 0 185 183 628 82 3 187 6 13 0 81
 1 183 615 30 182 0 0 103 95 629 82 3 628 6 14 0 81 1 95 616 30 93 0 0 183 177 6
30 82 3 629 6 15 0 81 1 177 617 30 175 0 0 95 91 631 82 3 630 6 16 0 81 1 91 618
 30 89 0 0 177 173 632 82 3 631 6 17 0 81 1 173 619 30 171 0 0 91 83 633 82 3 63
2 6 18 0 81 1 83 620 30 81 0 0 173 165 634 82 3 633 6 19 0 81 1 165 621 30 163 0
 0 83 79 635 82 3 634 6 20 0 81 1 79 622 30 77 0 0 165 161 636 82 3 635 6 21 0 8
1 1 161 623 30 159 0 0 79 71 637 82 3 636 6 22 0 81 1 71 624 30 69 0 0 161 153 6
38 82 3 637 6 23 0 81 1 153 625 30 151 0 0 71 67 639 82 3 638 6 24 0 81 1 67 626
 30 65 0 0 153 149 640 82 3 639 6 25 0 81 1 149 627 30 147 0 0 67 59 641 82 3 64
0 6 26 0 81 1 59 628 30 57 0 0 149 141 642 82 3 641 6 27 0 81 1 141 629 30 139 0
 0 59 55 643 82 3 642 6 28 0 81 1 55 630 30 53 0 0 141 137 644 82 3 643 6 29 0 8
1 1 137 631 30 133 0 0 55 48 645 82 3 644 6 30 0 81 1 48 632 30 46 0 0 137 119 6
46 82 3 645 6 31 0 82 3 646 6 32 0 81 1 169 611 30 167 0 0 87 106 647 82 3 627 6
 12 0 81 1 87 610 30 85 0 0 157 169 648 82 3 647 6 11 0 81 1 157 609 30 155 0 0
 75 87 649 82 3 648 6 10 0 81 1 75 608 30 73 0 0 145 157 650 82 3 649 6 9 0 81 1
 145 607 30 143 0 0 63 75 651 82 3 650 6 8 0 81 1 63 606 30 61 0 0 131 145 652 8
2 3 651 6 7 0 81 1 131 605 30 124 0 0 51 63 653 82 3 652 6 6 0 81 1 51 604 30 49
 0 0 40 131 654 82 3 653 6 5 0 81 1 40 603 30 28 0 0 109 51 655 82 3 654 6 4 0 8
2 3 655 6 3 0 81 1 111 601 30 179 0 0 99 109 656 81 1 99 600 30 97 0 0 0 111 657
 82 3 656 6 1 0 82 3 657 6 0 0 82 3 126 6 33 0 82 3 120 6 34 0 82 3 112 6 2 0 82
 3 33 6 35 0 19 17 544 0 1 0 9 5 0 S0 74 4 CI16 index_map_offset0 0 1 dCCZ20 15
 5 0 0 547 527 13 2 540 0 0 0 0 0 0 0 0 0 0 0 0 0 0 0 80 1 12 448 658 8040 0 0 0
 0 3 5 0 0 0 TTTFFFFFFFFFFFFF2 83 3 14 .615686274509804 .811764705882353 .929411
764705882 79 17 658 SDL/TYSA_COLOUR_21 0 
