**ABCDEFGHIJKLMNOPQRSTUVWXYZabcdefghijklmnopqrstuvwxyz**************************
**PARASOLID !"#$%&'()*+,-./:;<=>?@[\]^_`{|}~0123456789**************************
**PART1;
MC=unknown;
MC_MODEL=unknown;
MC_ID=unknown;
OS=unknown;
OS_RELEASE=unknown;
FRU=Parasolid 35.1.246;
APPL=Onshape;
SITE=unknown;
USER=unknown;
FORMAT=text;
GUISE=transmit;
KEY=BTGapi::writeModels_.xmt;
FILE=BTGapi::writeModels_.xmt;
DATE=2024-02-13T04:43:50 (UTC);
**PART2;
SCH=SCH_3501246_35102;
USFLD_SIZE=0;
**PART3;
**END_OF_HEADER*****************************************************************
T51 : TRANSMIT FILE created by modeller version 350124623 SCH_3501246_35102_1300
6231 0 12 36 CCCI7 lattice222 0 CCCI4 mesh1006 0 I8 polyline1008 0 CCCCCCCDI5 ow
ner1040 0 CCCI16 boundary_lattice222 0 CCCI13 boundary_mesh1006 0 I17 boundary_p
olyline1008 0 CCCA16 index_map_offset0 0 1 dA9 index_map82 0 A17 node_id_index_m
ap82 0 A20 schema_embedding_map82 0 A5 child12 0 A14 lowest_node_id0 0 1 dA16 me
sh_offset_data206 0 Z1 427 2 3 0 0 0 0 0 0 0 1e3 1e-8 0 4 0 1 0 1 2 5 0 6 7 0 0
 0 8 9 0 0 0 0 0 0 0 0 81 255 1 2 421 10 1 11 0 0 0 12 70 11 CI9 list_type0 0 1
 uI10 notransmit0 0 1 lCCCDCCDI12 finger_index0 0 1 dI12 finger_block1012 0 CZ3
 0 4 T1 0 0 8 20 1 13 13 13 255 5 58 0 1 0 14 0 0 15 0 54 255 6 199 0 16 17 0 0
 +0 0 -.0076708 0 0 -1 .0140335 254e-6 0 1 0 31 255 7 189 0 18 19 0 0 +0 0 -.007
6708 0 0 1 0 1 0 .0142875 19 9 CCCCCCI5 frame230 0 CA5 owner12 0 Z8 1 0 1 15 0 2
0 0 V0 16 255 9 30 21 ?22 0 23 24 0 0 1 81 1 21 415 25 9 26 0 27 28 29 17 255 22
 0 30 22 22 0 31 9 0 0 +16 23 25 27 ?32 9 33 34 0 0 1 31 24 193 0 9 35 36 0 +0 0
 -1925929944387235e-49 0 0 1 0 -1 0 .00635 31 35 170 0 37 0 24 0 +0 0 -254e-6 0
 0 -1 0 -1 0 .0142875 31 36 165 0 38 24 34 0 +0 0 -.0079248 0 0 -1 0 1 0 .014033
5 16 38 10 39 ?40 37 18 36 0 0 1 31 34 179 0 23 36 19 0 +0 0 -.0079248 0 0 1 0 -
1 0 .00635 31 19 192 0 33 34 7 0 +0 0 0 0 0 1 0 -1 0 .0140335 16 33 20 41 ?42 23
 37 19 0 0 1 81 1 41 412 25 33 43 0 44 45 46 17 42 0 47 42 42 0 48 33 0 0 +16 37
 15 44 ?49 33 38 35 0 0 1 81 1 44 411 25 37 50 0 51 41 52 17 49 0 53 49 49 0 54
 37 0 0 +15 255 53 380 0 49 55 56 17 54 0 57 54 54 0 49 37 0 0 -15 57 14 0 54 58
 0 14 255 58 13 59 ?16 60 61 5 17 +0 0 16 60 20 81 1 59 426 62 58 51 0 63 64 65
 14 16 3 64 ?0 58 66 5 6 +0 0 0 58 20 14 60 23 63 ?58 55 30 5 67 -0 0 58 55 20 1
5 61 374 0 48 58 57 54 17 198 0 58 68 6 0 +0 0 -254e-6 0 0 1 .0140335 254e-6 0 -
1 0 13 20 2 0 0 0 0 0 0 8 14 14 14 49 69 ?70 0 71 5 68 +0 0 70 0 20 81 1 69 422
 62 14 72 0 0 73 74 14 70 41 73 ?55 14 75 5 76 +0 0 55 14 20 15 71 52 0 32 14 77
 50 255 68 196 0 14 67 17 0 +.00635 0 -.0079248 0 0 -1 0 1 0 51 255 67 194 0 60
 76 68 0 +0 0 0 0 0 1 .00635 0 -1 0 50 76 191 0 70 78 67 0 +.00635 0 -9629649721
93618e-49 0 0 1 0 -1 0 51 78 188 0 55 0 76 0 +0 0 0 0 0 1 .0142875 0 -1 0 14 55
 33 79 ?60 70 53 5 78 +0 0 60 70 20 81 1 79 424 62 55 28 0 73 63 80 80 7 CCCCCDI
12 legal_owners0 16 1 lCZ1 62 0 81 8001 0 0 0 0 3 5 0 0 0 FFFFTFTFFFFFFFFF2 81 1
 28 416 25 55 82 79 21 83 84 81 1 73 423 62 70 83 0 69 79 85 81 1 63 425 62 60 4
5 0 79 59 86 83 255 3 80 1 .949019607843137 .909803921568627 81 1 45 413 25 60 8
7 63 41 27 88 83 3 86 1 .949019607843137 .909803921568627 80 1 25 89 90 9000 0 0
 0 0 3 6 0 0 0 FFTFTFTTFFFFFFFF1 81 1 87 400 91 60 0 45 82 92 93 81 1 27 414 25
 23 94 0 45 21 95 82 255 3 88 4 2 2 81 1 94 392 91 23 0 27 26 43 96 82 3 95 4 4
 1 80 1 91 97 98 9000 0 0 0 0 3 5 0 0 0 FFTFTFTTFFFFFFFF2 81 1 26 391 91 9 0 21
 0 94 99 81 1 43 393 91 33 0 41 94 50 100 83 1 96 1 81 1 50 394 91 37 0 44 43 10
1 102 83 1 100 2 81 1 101 395 91 38 0 39 50 103 104 83 1 102 3 81 1 39 409 25 38
 101 0 105 51 106 81 1 103 396 91 18 0 105 101 107 108 83 1 104 4 16 18 5 105 ?1
09 38 0 7 0 0 1 81 1 105 408 25 18 103 0 110 39 111 81 1 107 397 91 14 0 72 103
 112 113 83 1 108 5 81 1 72 418 25 14 107 69 83 0 114 81 1 112 398 91 70 0 83 10
7 82 115 83 1 113 6 81 1 83 417 25 70 112 73 28 72 116 81 1 82 399 91 55 0 28 11
2 87 117 83 1 115 7 83 1 117 8 82 3 116 4 4 2 82 3 114 4 5 2 81 1 110 407 25 16
 118 64 119 105 120 82 3 111 4 0 1 81 1 118 402 91 16 0 110 92 121 122 81 1 64 4
27 62 16 110 0 59 0 123 81 1 119 406 25 1 124 125 0 110 126 82 3 120 4 0 2 81 1
 124 404 127 1 121 119 0 0 128 81 1 125 419 129 1 119 11 0 0 130 82 3 126 4 0 3
 80 1 129 131 132 8038 0 0 0 0 0 0 0 0 0 TTTTTTTTTTTTTFTF10 81 1 11 420 131 1 12
5 2 0 0 133 98 255 43 130 97 109 45 48 49 56 49 32 48 46 53 39 39 39 39 32 105 1
00 32 66 101 97 114 105 110 103 44 32 83 104 105 101 108 100 101 100 32 40 82 56
 90 90 41 80 1 131 134 135 8017 0 0 0 0 0 0 0 0 0 TTTTTTTTTTTTTFTF3 84 255 43 13
3 am-0181 0.5'''' id Bearing, Shielded (R8ZZ)79 255 13 135 SDL/TYSA_NAME79 14 13
2 SDL/TYSA_UNAME80 1 127 91 136 9000 0 0 0 0 3 5 0 0 0 FFTFTFTTFFFFFFFF2 81 1 12
1 403 91 1 137 124 118 0 138 83 1 128 11 81 1 137 389 139 1 0 121 0 0 140 83 1 1
38 -1 80 1 139 141 142 9000 0 0 0 0 3 5 0 0 0 TTTFFFFFFFFFFFFF1 82 1 140 0 79 23
 142 ONSHAPE_ORIGINALBODY_ID79 18 136 BTI/importMaxCount83 3 123 1 .949019607843
137 .909803921568627 81 1 92 401 91 58 0 51 87 118 143 83 1 122 11 81 1 51 410 2
5 58 92 59 39 44 144 83 1 143 10 82 3 144 4 1 2 17 109 0 56 109 109 0 145 18 0 0
 +15 56 34 0 109 55 0 17 145 0 146 145 145 0 109 18 0 0 -15 146 4 0 145 16 0 82
 3 106 4 1 1 83 1 99 0 79 13 98 BTI/importTag83 1 93 9 79 9 90 BTI/DetId83 3 85
 1 .949019607843137 .909803921568627 82 3 84 4 3 2 79 15 81 SDL/TYSA_COLOUR17 32
 0 71 32 32 0 147 23 0 0 +15 77 50 0 40 14 0 17 40 0 77 40 40 0 148 38 0 0 +17 1
48 0 66 148 148 0 40 38 0 0 -15 66 371 0 148 16 146 17 147 0 149 147 147 0 32 23
 0 0 -15 149 24 0 147 60 0 15 75 44 0 31 70 47 17 31 0 75 31 31 0 22 9 0 0 -15 4
7 42 0 42 70 0 83 3 74 1 .949019607843137 .909803921568627 17 48 0 61 48 48 0 42
 33 0 0 -15 30 377 0 22 60 149 83 3 65 1 .949019607843137 .909803921568627 82 3
 52 4 2 1 82 3 46 4 3 1 82 3 29 4 5 1 19 15 57 0 1 0 8 5 0 S0 74 4 CI16 index_ma
p_offset0 0 1 dCCZ20 13 8 0 0 137 121 124 72 125 11 2 64 0 0 0 0 0 0 0 0 0 0 0 0
 80 1 10 62 150 8040 0 0 0 0 3 5 0 0 0 TTTFFFFFFFFFFFFF2 83 3 12 1 .949019607843
137 .909803921568627 79 17 150 SDL/TYSA_COLOUR_21 0 
