**ABCDEFGHIJKLMNOPQRSTUVWXYZabcdefghijklmnopqrstuvwxyz**************************
**PARASOLID !"#$%&'()*+,-./:;<=>?@[\]^_`{|}~0123456789**************************
**PART1;
MC=unknown;
MC_MODEL=unknown;
MC_ID=unknown;
OS=unknown;
OS_RELEASE=unknown;
FRU=Parasolid 35.1.246;
APPL=Onshape;
SITE=unknown;
USER=unknown;
FORMAT=text;
GUISE=transmit;
KEY=BTGapi::writeModels_.xmt;
FILE=BTGapi::writeModels_.xmt;
DATE=2024-02-13T04:44:37 (UTC);
**PART2;
SCH=SCH_3501246_35102;
USFLD_SIZE=0;
**PART3;
**END_OF_HEADER*****************************************************************
T51 : TRANSMIT FILE created by modeller version 350124623 SCH_3501246_35102_1300
6231 0 12 36 CCCI7 lattice222 0 CCCI4 mesh1006 0 I8 polyline1008 0 CCCCCCCDI5 ow
ner1040 0 CCCI16 boundary_lattice222 0 CCCI13 boundary_mesh1006 0 I17 boundary_p
olyline1008 0 CCCA16 index_map_offset0 0 1 dA9 index_map82 0 A17 node_id_index_m
ap82 0 A20 schema_embedding_map82 0 A5 child12 0 A14 lowest_node_id0 0 1 dA16 me
sh_offset_data206 0 Z1 320 2 3 0 0 0 0 0 0 0 1e3 1e-8 0 4 0 1 0 1 2 5 0 6 7 8 0
 0 9 10 11 0 0 0 0 0 0 0 81 255 1 2 312 12 1 13 0 0 0 14 70 11 CI9 list_type0 0
 1 uI10 notransmit0 0 1 lCCCDCCDI12 finger_index0 0 1 dI12 finger_block1012 0 CZ
3 0 4 T1 0 0 5 20 1 15 15 13 255 5 49 0 1 0 16 0 0 17 0 50 255 6 132 0 16 18 0 0
 +-.000642134808003904 -.003175 -.0562583932724823 0 0 1 0 -1 0 30 255 7 136 0 1
0 19 0 0 +-.0133421348080039 -.003175 -.0562583932724823 0 1 0 29 255 8 113 0 20
 21 0 .0120578651919961 0 -.0562583932724823 19 9 CCCCCCI5 frame230 0 CA5 owner1
2 0 Z9 48 0 1 17 0 22 0 V0 16 255 10 120 23 ?24 0 25 7 0 0 1 18 255 11 42 26 27
 0 28 29 ?1 81 1 26 155 30 11 0 0 31 32 33 17 255 27 0 34 35 36 11 37 38 0 39 -1
8 28 37 40 41 11 42 43 ?1 29 29 44 0 11 43 44 .0120578651919961 -.003175 -.05625
83932724823 29 43 39 0 28 45 29 .0120578651919961 -.003175 .0516916067275177 29
 44 116 0 46 29 47 -.0133421348080039 0 -.0562583932724823 18 46 104 48 24 49 0
 44 ?1 29 47 115 0 49 44 21 -.0133421348080039 0 .0516916067275177 18 49 100 32
 50 51 46 47 ?1 29 21 114 0 51 47 8 .0120578651919961 0 .0516916067275177 18 51
 96 52 53 20 49 21 ?1 81 1 52 158 30 51 0 0 54 40 55 17 53 0 56 57 58 51 41 59 0
 60 +18 20 92 31 37 61 51 8 ?1 81 1 31 154 30 20 0 0 62 26 63 17 37 0 64 60 39 2
0 27 38 0 65 +18 61 27 62 66 42 20 67 ?1 81 1 62 153 30 61 0 0 48 31 68 17 66 0
 69 70 71 61 24 10 0 72 -18 42 32 54 73 28 61 45 ?1 29 67 29 0 61 0 45 -.0133421
348080039 -.003175 -.0562583932724823 29 45 34 0 42 67 43 -.0133421348080039 -.0
03175 .0516916067275177 81 1 54 157 30 42 0 0 32 52 74 17 73 0 56 58 57 42 50 25
 0 70 -15 255 56 123 0 57 75 0 17 58 0 56 53 73 28 76 77 0 78 +17 57 0 56 73 53
 49 79 80 0 81 -17 50 0 69 71 70 49 73 25 0 57 +16 25 119 82 ?50 10 59 19 0 0 1
 17 70 0 69 50 66 42 72 83 0 76 +15 69 125 0 71 84 0 17 72 0 85 86 76 61 70 83 0
 35 -16 83 12 87 ?70 77 88 89 0 0 1 17 76 0 85 72 78 42 58 77 0 0 -15 85 6 0 86
 90 0 17 78 0 85 76 86 28 39 91 0 0 +16 77 17 92 ?58 91 83 93 0 0 1 81 1 92 167
 30 77 0 0 94 95 96 16 91 22 97 ?78 38 77 98 0 0 1 30 93 19 0 77 89 98 0 +-.0006
42134808003896 -.003175 .0516916067275177 1 0 0 30 89 14 0 83 99 93 0 +-.0133421
348080039 -.003175 -.00228339327248229 642787763215121e-31 0 1 30 98 24 0 91 93
 100 0 +.0120578651919961 -.003175 -.00228339327248229 642787763215121e-31 0 1 3
0 100 112 0 101 98 102 0 +-.000642134808003904 0 -.0562583932724823 1 0 0 16 101
 88 103 ?36 104 105 100 0 0 1 30 102 111 0 104 100 106 0 +-.0133421348080039 0 -
.00228339327248229 642787763215121e-31 0 1 16 104 84 95 ?81 80 101 102 0 0 1 30
 106 110 0 80 102 107 0 +-.000642134808003896 0 .0516916067275177 1 0 0 16 80 80
 94 ?79 108 104 106 0 0 1 30 107 109 0 108 106 109 0 +.0120578651919961 0 -.0022
8339327248229 642787763215121e-31 0 1 16 108 76 110 ?60 88 80 107 0 0 1 30 109 1
33 0 38 107 111 0 +.0120578651919961 -.003175 -.0562583932724823 0 1 0 16 38 117
 112 ?37 59 91 109 0 0 1 30 111 134 0 59 109 19 0 +.0120578651919961 -.003175 .0
516916067275177 0 1 0 16 59 118 113 ?53 25 38 111 0 0 1 30 19 135 0 25 111 7 0 +
-.0133421348080039 -.003175 .0516916067275177 0 1 0 81 1 113 163 30 59 0 0 82 10
3 114 80 7 CCCCCDI12 legal_owners0 16 1 lCZ1 30 115 116 9000 0 0 0 0 3 6 0 0 0 F
FTFTFTTFFFFFFFF1 81 1 82 162 30 25 0 0 112 113 117 81 1 103 164 30 101 0 0 113 1
18 119 82 255 3 114 6 3 1 81 1 118 165 30 88 0 0 103 94 120 82 3 119 6 4 1 16 88
 7 118 ?86 83 108 99 0 0 1 81 1 94 166 30 80 0 0 118 92 121 82 3 120 6 5 1 82 3
 121 6 6 1 17 86 0 85 78 72 11 35 88 0 0 +30 99 9 0 88 122 89 0 +-.0006421348080
03904 -.003175 -.0562583932724823 1 0 0 31 255 122 291 0 105 123 99 0 --.0006421
34808003904 -.003175 -.0499083932724823 0 1 0 1 0 0 .003175 16 105 224 124 ?125
 101 126 122 0 0 1 31 123 292 0 126 127 122 0 --.000642134808003898 -.003175 .04
53416067275177 0 1 0 1 0 0 .003175 16 126 257 128 ?129 105 130 123 0 0 1 31 127
 293 0 131 132 123 0 +-.000642134808003898 0 .0453416067275177 0 -1 0 -1 0 0 .00
3175 16 131 249 133 ?134 130 0 127 0 0 1 31 132 295 0 130 0 127 0 +-.00064213480
8003904 0 -.0499083932724823 0 -1 0 -1 0 0 .003175 16 130 216 135 ?136 126 131 1
32 0 0 1 81 1 135 302 30 130 0 0 137 133 138 17 136 0 139 136 136 0 140 130 0 0
 +15 139 189 0 136 141 142 17 140 0 143 140 140 0 136 130 0 0 -15 143 232 0 140
 144 145 14 255 144 239 146 ?0 147 143 5 148 +0 0 0 147 22 15 145 233 0 125 144
 0 17 125 0 145 125 125 0 149 105 0 0 +17 149 0 150 149 149 0 125 105 0 0 -15 15
0 203 0 149 90 151 14 90 1 152 ?141 153 150 5 154 -0 0 141 153 22 15 151 197 0 1
55 90 85 17 155 0 151 155 155 0 129 126 0 0 -17 129 0 156 129 129 0 155 126 0 0
 +15 156 266 0 129 147 0 14 147 272 157 ?144 141 158 5 159 +0 0 144 141 22 81 1
 157 319 160 147 161 0 162 146 163 14 141 68 162 ?147 90 139 5 164 +0 0 147 90 2
2 15 158 265 0 165 147 156 51 255 159 286 0 147 148 154 0 --.000642134808003898
 0 .0453416067275177 0 -1 0 .003175 -1 0 0 13 22 137 0 0 0 0 0 0 9 16 14 16 128
 166 ?84 0 34 5 6 -0 0 84 0 22 81 1 166 313 160 16 167 0 0 168 169 14 84 126 168
 ?75 16 69 5 18 +0 0 75 16 22 15 34 127 0 36 16 0 17 36 0 34 27 24 20 170 101 0
 0 +17 24 0 34 36 35 46 66 10 0 71 +17 170 0 171 81 65 46 36 101 0 0 -15 171 75
 0 170 141 0 17 81 0 171 79 170 49 71 104 0 0 +17 65 0 171 170 79 20 60 108 0 36
 -17 79 0 171 65 81 51 57 80 0 0 +17 60 0 64 41 37 51 65 108 0 79 +15 64 121 0 6
0 153 0 17 41 0 64 39 60 28 53 59 0 58 -17 39 0 64 37 41 11 78 91 0 86 -14 153 1
22 172 ?90 75 64 5 173 -0 0 90 75 22 81 1 172 316 160 153 174 0 175 152 176 14 7
5 124 175 ?153 84 56 5 177 +0 0 153 84 22 50 173 129 0 153 164 177 0 +.012057865
1919961 -.003175 -.00228339327248229 -1 0 642787763215121e-31 642787763215121e-3
1 0 1 50 164 108 0 141 154 173 0 +-.000642134808003899 0 -.00228339327248229 0 1
 0 1 0 0 50 177 130 0 75 173 18 0 +-.000642134808003896 -.003175 .05169160672751
77 0 0 1 0 -1 0 50 18 131 0 84 177 6 0 +-.0133421348080039 -.003175 -.0022833932
7248229 -1 0 642787763215121e-31 642787763215121e-31 0 1 50 154 3 0 90 159 164 0
 +-.000642134808003899 -.003175 -.00228339327248229 0 1 0 1 0 0 81 1 175 315 160
 75 178 0 168 172 179 80 1 160 0 180 8001 0 0 0 0 3 5 0 0 0 FFFFTFTFFFFFFFFF2 81
 1 178 175 30 75 0 175 167 181 182 81 1 168 314 160 84 181 0 166 175 183 83 255
 3 179 .615686274509804 .811764705882353 .929411764705882 81 1 181 176 30 84 0 1
68 178 174 184 83 3 183 .615686274509804 .811764705882353 .929411764705882 81 1
 174 177 30 153 0 172 181 137 185 82 3 184 6 4 2 81 1 137 178 30 1 0 186 174 135
 187 82 3 185 6 5 2 81 1 186 310 188 1 137 13 0 0 189 82 3 187 6 0 3 80 1 188 19
0 191 8038 0 0 0 0 0 0 0 0 0 TTTTTTTTTTTTTFTF10 81 1 13 311 190 1 186 2 0 0 192
 98 255 6 189 80 97 114 116 32 49 80 1 190 193 194 8017 0 0 0 0 0 0 0 0 0 TTTTTT
TTTTTTTFTF3 84 255 6 192 Part 179 255 13 194 SDL/TYSA_NAME79 14 191 SDL/TYSA_UNA
ME81 1 167 172 30 16 0 166 97 178 195 82 3 182 6 3 2 81 1 97 171 30 91 0 0 110 1
67 196 82 3 195 6 0 2 81 1 110 170 30 108 0 0 87 97 197 82 3 196 6 11 1 81 1 87
 169 30 83 0 0 95 110 198 82 3 197 6 10 1 81 1 95 168 30 104 0 0 92 87 199 82 3
 198 6 9 1 82 3 199 6 8 1 79 15 180 SDL/TYSA_COLOUR81 1 152 317 160 90 200 0 172
 162 201 83 3 176 .615686274509804 .811764705882353 .929411764705882 81 1 200 30
9 30 90 0 152 202 0 203 81 1 162 318 160 141 202 0 152 157 204 83 3 201 .6156862
74509804 .811764705882353 .929411764705882 81 1 202 308 30 141 0 162 161 200 205
 83 3 204 .615686274509804 .811764705882353 .929411764705882 81 1 161 307 30 147
 0 157 206 202 207 82 3 205 8 2 2 81 1 206 306 30 144 0 146 128 161 208 82 3 207
 8 1 2 81 1 146 320 160 144 206 0 157 0 209 81 1 128 305 30 126 0 0 124 206 210
 82 3 208 8 0 2 81 1 124 304 30 105 0 0 133 128 211 82 3 210 8 3 1 81 1 133 303
 30 131 0 0 135 124 212 82 3 211 8 2 1 82 3 212 8 1 1 83 3 209 .615686274509804
 .811764705882353 .929411764705882 82 3 203 8 3 2 17 71 0 69 66 50 46 81 104 0 1
70 -17 35 0 34 24 27 61 86 88 0 0 -83 3 169 .615686274509804 .811764705882353 .9
29411764705882 51 148 289 0 144 0 159 0 --.000642134808003904 0 -.04990839327248
23 0 -1 0 .003175 -1 0 0 17 165 0 158 165 165 0 134 131 0 0 -17 134 0 142 134 13
4 0 165 131 0 0 +15 142 182 0 134 141 171 83 3 163 .615686274509804 .81176470588
2353 .929411764705882 82 3 138 8 0 1 81 1 112 161 30 38 0 0 23 82 213 82 3 117 6
 2 1 81 1 23 160 30 10 0 0 40 112 214 82 3 213 6 1 1 81 1 40 159 30 28 0 0 52 23
 215 82 3 214 6 0 1 82 3 215 6 7 0 79 9 116 BTI/DetId82 3 96 6 7 1 81 1 32 156 3
0 49 0 0 26 54 216 82 3 74 6 5 0 82 3 216 6 4 0 81 1 48 152 30 46 0 0 0 62 217 8
2 3 68 6 1 0 82 3 217 6 0 0 82 3 63 6 2 0 82 3 55 6 6 0 82 3 33 6 3 0 19 17 138
 0 1 0 9 5 0 S0 74 4 CI16 index_map_offset0 0 1 dCCZ20 15 5 0 0 200 186 13 2 146
 0 0 0 0 0 0 0 0 0 0 0 0 0 0 0 80 1 12 160 218 8040 0 0 0 0 3 5 0 0 0 TTTFFFFFFF
FFFFFF2 83 3 14 .615686274509804 .811764705882353 .929411764705882 79 17 218 SDL
/TYSA_COLOUR_21 0 
