**ABCDEFGHIJKLMNOPQRSTUVWXYZabcdefghijklmnopqrstuvwxyz**************************
**PARASOLID !"#$%&'()*+,-./:;<=>?@[\]^_`{|}~0123456789**************************
**PART1;
MC=unknown;
MC_MODEL=unknown;
MC_ID=unknown;
OS=unknown;
OS_RELEASE=unknown;
FRU=Parasolid 35.1.246;
APPL=Onshape;
SITE=unknown;
USER=unknown;
FORMAT=text;
GUISE=transmit;
KEY=BTGapi::writeModels_.xmt;
FILE=BTGapi::writeModels_.xmt;
DATE=2024-02-13T04:44:33 (UTC);
**PART2;
SCH=SCH_3501246_35102;
USFLD_SIZE=0;
**PART3;
**END_OF_HEADER*****************************************************************
T51 : TRANSMIT FILE created by modeller version 350124623 SCH_3501246_35102_1300
6231 0 12 36 CCCI7 lattice222 0 CCCI4 mesh1006 0 I8 polyline1008 0 CCCCCCCDI5 ow
ner1040 0 CCCI16 boundary_lattice222 0 CCCI13 boundary_mesh1006 0 I17 boundary_p
olyline1008 0 CCCA16 index_map_offset0 0 1 dA9 index_map82 0 A17 node_id_index_m
ap82 0 A20 schema_embedding_map82 0 A5 child12 0 A14 lowest_node_id0 0 1 dA16 me
sh_offset_data206 0 Z1 685 2 3 0 0 0 0 0 0 0 1e3 1e-8 0 4 0 1 0 1 2 5 0 6 7 8 0
 0 9 10 11 0 0 0 0 0 0 0 81 255 1 2 670 12 1 13 0 0 0 14 70 11 CI9 list_type0 0
 1 uI10 notransmit0 0 1 lCCCDCCDI12 finger_index0 0 1 dI12 finger_block1012 0 CZ
3 0 4 T1 0 0 5 20 1 15 15 13 255 5 339 0 1 0 16 0 0 17 0 51 255 6 606 0 18 19 0
 0 +.0787354407680706 .00635 -.0701265000461761 0 -1 0 .00254 -1 0 0 30 255 7 53
7 0 10 20 0 0 -.0761957257200662 .00635 -.0700884543507568 0 -1 0 29 255 8 509 0
 11 21 0 .088197961266285 .00635 -.045521846386898 19 9 CCCCCCI5 frame230 0 CA5
 owner12 0 Z9 133 0 1 17 0 22 0 V0 16 255 10 535 23 ?24 0 25 7 0 0 1 18 255 11 5
06 26 27 0 28 8 ?1 81 1 26 638 29 11 0 0 30 31 32 17 255 27 0 33 34 35 11 36 25
 0 37 +18 28 502 38 39 11 40 21 ?1 81 1 38 629 29 28 0 0 41 42 43 17 39 0 44 37
 45 28 46 47 0 34 +18 40 498 42 24 28 48 49 ?1 29 21 505 0 28 49 8 .076463595702
9309 .00635 -.0689905775136062 29 49 501 0 40 50 21 .0761957257200662 .00635 -.0
700884543507568 29 50 487 0 48 51 49 .09906 .00635 -.0441177689194679 18 48 484
 52 53 40 54 50 ?1 29 51 483 0 54 55 50 .0904698063314248 .00635 -.0441177689194
679 18 54 480 30 56 48 57 51 ?1 29 55 464 0 57 58 51 .0761957257200662 0 -.07008
84543507568 18 57 461 41 59 54 60 55 ?1 29 58 460 0 60 61 55 .088197961266285 0
 -.045521846386898 18 60 457 62 63 57 64 58 ?1 29 61 456 0 64 65 58 .07646359570
29309 0 -.0689905775136062 18 64 453 66 67 60 68 61 ?1 29 65 452 0 68 69 61 .099
06 0 -.0441177689194679 18 68 449 70 71 64 72 65 ?1 29 69 448 0 72 73 65 .090469
8063314248 0 -.0441177689194679 18 72 445 74 75 68 76 69 ?1 29 73 439 0 76 77 69
 .1016 .00635 -.0466577689194679 18 76 436 78 79 72 80 73 ?1 29 77 435 0 80 81 7
3 .1016 0 -.0466577689194679 18 80 432 82 83 76 84 77 ?1 29 81 283 0 85 86 77 0
 0 .0574822310805321 18 85 246 87 88 89 90 81 ?1 29 86 284 0 90 91 81 -.0254 0 .
0574822310805321 18 90 250 92 93 85 94 86 ?1 29 91 285 0 94 95 86 -.0254 0 -.069
5177689194679 18 94 254 96 97 90 98 91 ?1 29 95 286 0 98 99 91 .1016 0 -.0695177
689194679 18 98 258 100 101 94 102 95 ?1 29 99 288 0 102 103 95 -693889390390723
e-32 0 -.0695177689194679 18 102 266 104 105 98 0 99 ?1 29 103 119 0 84 106 99 0
 .00635 .0574822310805321 18 84 117 107 108 80 109 103 ?1 29 106 114 0 109 110 1
03 -.0254 .00635 .0574822310805321 18 109 112 111 112 84 113 106 ?1 29 110 104 0
 113 114 106 -.0254 .00635 -.0695177689194679 18 113 102 115 116 109 117 110 ?1
 29 114 99 0 117 118 110 .1016 .00635 -.0695177689194679 18 117 97 119 120 113 8
9 114 ?1 29 118 89 0 89 0 114 -693889390390723e-32 .00635 -.0695177689194679 18
 89 87 121 122 117 85 118 ?1 81 1 121 373 29 89 0 0 104 92 123 17 122 0 124 125
 24 89 45 126 0 127 +15 255 124 315 0 128 129 0 17 125 0 124 128 122 102 127 130
 0 131 +17 24 0 124 122 128 40 132 10 0 45 +17 45 0 44 39 133 40 122 126 0 46 -1
6 126 499 134 ?122 135 136 137 0 0 1 17 127 0 138 139 131 89 125 130 0 133 -15 1
38 303 0 131 140 0 17 139 0 138 88 127 84 133 141 0 0 +17 131 0 138 127 88 102 1
42 143 0 0 -16 130 296 144 ?125 145 146 147 0 0 1 17 133 0 44 45 108 89 139 141
 0 0 -15 44 7 0 148 149 150 17 108 0 44 133 112 84 151 152 0 153 +16 141 62 154
 ?139 155 152 156 0 0 1 81 1 154 399 29 141 0 0 157 158 159 16 155 503 160 ?37 1
61 141 162 0 0 1 16 152 57 163 ?108 141 164 165 0 0 1 30 156 64 0 141 165 162 0
 +0 .00635 -.00601776891946791 0 0 1 30 165 59 0 152 166 156 0 +-.0127 .00635 .0
574822310805321 1 0 0 30 162 69 0 155 156 167 0 +.08255 .00635 -.056817768919467
9 .4472135954999585 0 .894427190999916 30 167 74 0 161 162 168 0 +.09525 .00635
 -.0441177689194679 1 0 0 16 161 481 169 ?148 170 155 167 0 0 1 30 168 79 0 170
 167 171 0 +.1016 .00635 -.0568177689194679 0 0 1 16 170 77 172 ?173 146 161 168
 0 0 1 31 255 171 280 0 174 168 175 0 +.064743779314167 0 -.1122706637540804 0 1
 0 1 0 0 .003175 16 174 234 176 ?177 178 0 171 0 0 1 31 175 279 0 178 171 179 0
 +.0381 0 -.0695177689194679 0 1 0 1 0 0 .0381 16 178 462 180 ?105 181 174 175 0
 0 1 31 179 278 0 181 175 182 0 +.0381 0 -.069517768919468 0 1 0 1 0 0 .0635 16
 181 226 183 ?184 185 178 179 0 0 1 31 182 277 0 185 179 186 0 +-.0127 0 -.05681
77689194679 0 1 0 1 0 0 .003175 16 185 222 158 ?187 188 181 182 0 0 1 30 186 276
 0 188 182 189 0 +-.0254 0 -.00601776891946791 546369598732853e-31 0 1 16 188 21
8 190 ?93 191 185 186 0 0 1 30 189 275 0 191 186 192 0 +-.0127 0 .05748223108053
21 1 0 0 16 191 214 193 ?194 143 188 189 0 0 1 30 192 274 0 143 189 195 0 +0 0 -
.00601776891946791 0 0 1 16 143 210 157 ?142 196 191 192 0 0 1 30 195 273 0 196
 192 197 0 +.08255 0 -.0568177689194679 .4472135954999585 0 .894427190999916 16
 196 454 198 ?35 199 143 195 0 0 1 30 197 272 0 199 195 200 0 +.09525 0 -.044117
7689194679 1 0 0 16 199 446 201 ?202 203 196 197 0 0 1 30 200 271 0 203 197 204
 0 +.1016 0 -.0568177689194679 0 0 1 16 203 198 205 ?206 136 199 200 0 0 1 30 20
4 333 0 145 200 207 0 +0 .00635 .0574822310805321 0 -1 0 16 145 291 208 ?88 209
 130 204 0 0 1 30 207 334 0 209 204 210 0 +-.0254 .00635 .0574822310805321 0 -1
 0 16 209 292 211 ?212 213 145 207 0 0 1 30 210 335 0 213 207 214 0 +-.0254 .006
35 -.0695177689194679 0 -1 0 16 213 293 215 ?216 217 209 210 0 0 1 30 214 336 0
 146 210 147 0 +.1016 .00635 -.0695177689194679 0 -1 0 16 146 294 218 ?101 130 1
70 214 0 0 1 30 147 338 0 130 214 219 0 +-693889390390723e-32 .00635 -.069517768
9194679 0 -1 0 30 219 442 0 217 147 220 0 +.1016 0 -.0466577689194679 0 -1 0 16
 217 440 221 ?222 223 213 219 0 0 1 31 220 467 0 223 219 224 0 -.078735440768070
6 0 -.0701265000461761 0 1 0 1 0 0 .00254 16 223 465 31 ?59 225 217 220 0 0 1 31
 224 472 0 225 220 226 0 -.0904698063314248 0 -.0466577689194679 0 1 0 1 0 0 .00
254 16 225 470 227 ?63 228 223 224 0 0 1 31 226 477 0 228 224 229 0 -.09906 0 -.
0466577689194679 0 1 0 1 0 0 .00254 16 228 475 230 ?71 231 225 226 0 0 1 30 229
 490 0 231 226 232 0 +.0904698063314248 .00635 -.0441177689194679 0 -1 0 16 231
 488 233 ?234 235 228 229 0 0 1 30 232 495 0 235 229 236 0 -.09906 .00635 -.0441
177689194679 0 -1 0 16 235 493 237 ?53 47 231 232 0 0 1 31 236 512 0 47 232 238
 0 +.0787354407680706 .00635 -.0701265000461761 0 1 0 1 0 0 .00254 16 47 510 239
 ?39 240 235 236 0 0 1 31 238 517 0 240 236 241 0 +.0904698063314248 .00635 -.04
66577689194679 0 1 0 1 0 0 .00254 16 240 515 242 ?56 243 47 238 0 0 1 31 241 522
 0 243 238 244 0 +.09906 .00635 -.0466577689194679 0 1 0 1 0 0 .00254 16 243 520
 245 ?79 246 240 241 0 0 1 30 244 527 0 246 241 20 0 -.0764635957029309 17347234
75976805e-33 -.0689905775136062 0 1 0 16 246 525 247 ?248 25 243 244 0 0 1 30 20
 532 0 25 244 7 0 -.088197961266285 .00635 -.045521846386898 0 -1 0 16 25 530 24
9 ?27 10 246 20 0 0 1 81 1 249 650 29 25 0 0 233 201 250 80 7 CCCCCDI12 legal_ow
ners0 16 1 lCZ1 29 251 252 9000 0 0 0 0 3 6 0 0 0 FFTFTFTTFFFFFFFF1 81 1 233 649
 29 231 0 0 242 249 253 81 1 201 651 29 199 0 0 249 169 254 82 255 3 250 7 11 1
 81 1 169 652 29 161 0 0 201 205 255 82 3 254 7 12 1 81 1 205 653 29 203 0 0 169
 172 256 82 3 255 7 13 1 81 1 172 654 29 170 0 0 205 198 257 82 3 256 7 14 1 81
 1 198 655 29 196 0 0 172 160 258 82 3 257 7 15 1 81 1 160 656 29 155 0 0 198 18
0 259 82 3 258 7 16 1 81 1 180 657 29 178 0 0 160 134 260 82 3 259 7 17 1 81 1 1
34 658 29 126 0 0 180 261 262 82 3 260 7 18 1 81 1 261 659 29 18 0 263 134 264 2
65 82 3 262 7 19 1 14 255 18 594 263 ?0 266 267 5 6 +0 0 0 266 22 81 1 263 685 2
68 18 261 0 269 0 270 81 1 264 660 29 271 0 272 261 273 274 82 3 265 7 0 2 14 27
1 552 272 ?266 275 276 5 277 +0 0 266 275 22 81 1 272 683 268 271 264 0 278 269
 279 81 1 273 661 29 266 0 269 264 280 281 82 3 274 7 1 2 14 266 573 269 ?18 271
 282 5 19 +0 0 18 271 22 81 1 269 684 268 266 273 0 272 263 283 81 1 280 662 29
 275 0 278 273 284 285 82 3 281 7 2 2 14 275 180 278 ?271 149 286 5 287 -0 0 271
 149 22 81 1 278 682 268 275 280 0 288 272 289 81 1 284 663 29 149 0 288 280 290
 291 82 3 285 7 3 2 14 149 1 288 ?275 292 293 5 294 +0 0 275 292 22 81 1 288 681
 268 149 284 0 295 278 296 81 1 290 664 29 297 0 298 284 299 300 82 3 291 7 4 2
 14 297 300 298 ?301 302 303 5 304 -0 0 301 302 22 81 1 298 677 268 297 290 0 30
5 306 307 81 1 299 665 29 301 0 306 290 308 309 82 3 300 7 5 2 14 301 298 306 ?3
10 297 311 5 312 +0 0 310 297 22 81 1 306 678 268 301 299 0 298 313 314 81 1 308
 666 29 302 0 305 299 315 316 82 3 309 7 6 2 14 302 302 305 ?297 129 33 5 317 -0
 0 297 129 22 81 1 305 676 268 302 308 0 318 298 319 81 1 315 667 29 129 0 318 3
08 0 320 82 3 316 7 7 2 14 129 316 318 ?302 140 124 5 321 +0 0 302 140 22 81 1 3
18 675 268 129 315 0 322 305 323 82 3 320 7 8 2 80 1 268 0 324 8001 0 0 0 0 3 5
 0 0 0 FFFFTFTFFFFFFFFF2 81 1 322 674 268 140 325 0 326 318 327 83 255 3 323 .61
5686274509804 .811764705882353 .929411764705882 14 140 304 322 ?129 328 138 5 32
9 +0 0 129 328 22 81 1 325 418 29 140 0 322 330 331 332 81 1 326 673 268 328 333
 0 334 322 335 83 3 327 .615686274509804 .811764705882353 .929411764705882 14 32
8 306 326 ?140 336 337 5 338 -0 0 140 336 22 81 1 333 414 29 328 0 326 339 330 3
40 81 1 334 672 268 336 330 0 341 326 342 83 3 335 .615686274509804 .81176470588
2353 .929411764705882 14 336 308 334 ?328 16 343 5 344 -0 0 328 16 22 81 1 330 4
17 29 336 0 334 333 325 345 81 1 341 671 268 16 346 0 0 334 347 83 3 342 .615686
274509804 .811764705882353 .929411764705882 14 16 314 341 ?336 0 348 5 349 -0 0
 336 0 22 81 1 346 425 29 16 0 341 350 351 352 83 3 347 .615686274509804 .811764
705882353 .929411764705882 81 1 350 423 29 310 0 313 331 346 353 81 1 351 426 29
 1 0 354 346 66 355 82 3 352 6 11 2 81 1 354 668 356 1 351 13 0 0 357 81 1 66 62
7 29 64 0 0 351 41 358 82 3 355 6 0 3 81 1 41 628 29 57 0 0 66 38 359 82 3 358 7
 0 0 82 3 359 7 1 0 80 1 356 360 361 8038 0 0 0 0 0 0 0 0 0 TTTTTTTTTTTTTFTF10 8
1 1 13 669 360 1 354 2 0 0 362 98 255 6 357 80 97 114 116 32 49 80 1 360 363 364
 8017 0 0 0 0 0 0 0 0 0 TTTTTTTTTTTTTFTF3 84 255 6 362 Part 179 255 13 364 SDL/T
YSA_NAME79 14 361 SDL/TYSA_UNAME14 310 318 313 ?292 301 365 5 366 +0 0 292 301 2
2 81 1 313 679 268 310 350 0 306 295 367 81 1 331 422 29 292 0 295 325 350 368 8
2 3 353 6 9 2 14 292 310 295 ?149 310 369 5 370 +0 0 149 310 22 81 1 295 680 268
 292 331 0 313 288 371 82 3 368 6 8 2 83 3 371 .615686274509804 .811764705882353
 .929411764705882 15 369 309 0 372 292 373 51 370 327 0 292 344 349 0 --.0127 .0
0635 -.0568177689194679 0 -1 0 .003175 -1 0 0 13 22 134 0 0 0 0 0 0 9 16 50 255
 344 326 0 336 338 370 0 +-.0254 .00635 -.00601776891946791 1 0 -546369598732853
e-31 -546369598732853e-31 0 -1 51 349 328 0 16 370 321 0 -.0381 .00635 -.0695177
68919468 0 -1 0 .0635 -1 0 0 51 321 329 0 129 349 366 0 -.0381 .00635 -.06951776
89194679 0 -1 0 .0381 -1 0 0 51 366 330 0 310 321 277 0 -.064743779314167 .00635
 -.1122706637540804 0 -1 0 .003175 -1 0 0 51 277 564 0 271 366 19 0 +.09906 .006
35 -.0466577689194679 0 1 0 .00254 1 0 0 51 19 585 0 266 277 6 0 +.0904698063314
248 .00635 -.0466577689194679 0 -1 0 .00254 -1 0 0 50 338 325 0 328 329 344 0 +-
.0127 .00635 .0574822310805321 0 0 -1 0 1 0 50 329 324 0 140 317 338 0 +0 .00635
 -.00601776891946791 1 0 0 0 -1 0 50 317 323 0 302 304 329 0 +.08255 .00635 -.05
68177689194679 .894427190999916 0 -.4472135954999585 -.4472135954999585 0 -.8944
27190999916 50 304 322 0 297 312 317 0 +.09525 .00635 -.0441177689194679 0 0 -1
 0 1 0 50 312 321 0 301 287 304 0 +.1016 .00635 -.0568177689194679 1 0 0 0 -1 0
 50 287 270 0 275 294 312 0 +.0381 0 -.0377677689194679 0 1 0 1 0 0 50 294 3 0 1
49 0 287 0 +.0381 .00635 -.0377677689194679 0 1 0 1 0 0 17 372 0 369 372 372 0 3
74 375 0 0 +15 373 311 0 376 292 0 17 376 0 373 376 376 0 187 185 0 0 -17 187 0
 377 187 187 0 376 185 0 0 +15 377 197 0 187 275 0 17 374 0 150 374 374 0 372 37
5 0 0 -16 375 47 378 ?372 164 135 379 0 0 1 81 1 378 407 29 375 0 0 158 176 380
 16 164 52 381 ?112 152 375 166 0 0 1 16 135 42 339 ?382 375 126 383 0 0 1 31 37
9 49 0 375 383 166 0 +-.0127 .00635 -.0568177689194679 0 1 0 1 0 0 .003175 31 38
3 44 0 135 137 379 0 +.0381 .00635 -.069517768919468 0 1 0 1 0 0 .0635 30 166 54
 0 164 379 165 0 +-.0254 .00635 -.00601776891946791 546369598732853e-31 0 1 31 1
37 34 0 126 384 383 0 +.0381 .00635 -.0695177689194679 0 1 0 1 0 0 .0381 31 384
 19 0 136 0 137 0 +.064743779314167 .00635 -.1122706637540804 0 1 0 1 0 0 .00317
5 16 136 17 385 ?386 126 203 384 0 0 1 81 1 385 409 29 136 0 0 176 183 387 17 38
6 0 365 386 386 0 388 136 0 0 +15 365 317 0 386 310 389 17 388 0 293 388 388 0 3
86 136 0 0 -15 293 6 0 388 149 44 15 389 319 0 390 310 0 17 390 0 389 390 390 0
 177 174 0 0 -17 177 0 286 177 177 0 390 174 0 0 +15 286 195 0 177 275 391 15 39
1 196 0 206 275 377 17 206 0 391 71 392 80 393 203 0 0 +17 71 0 391 394 206 68 8
3 228 0 202 +17 392 0 391 206 97 98 184 181 0 393 -17 393 0 311 120 222 98 206 2
03 0 0 -15 311 297 0 173 301 0 17 120 0 311 173 393 117 101 146 0 395 -17 222 0
 311 393 173 80 396 217 0 206 +17 173 0 311 222 120 76 397 170 0 396 +17 396 0 2
76 398 83 76 222 217 0 0 -15 276 553 0 398 271 0 17 398 0 276 399 396 48 79 243
 0 0 -17 83 0 276 396 399 80 71 228 0 222 -17 399 0 276 83 398 68 53 235 0 0 -17
 53 0 303 400 202 48 399 235 0 148 +15 303 299 0 202 297 0 17 400 0 303 234 53 5
4 148 161 0 401 -17 202 0 303 53 234 68 394 199 0 399 +17 148 0 44 79 56 48 400
 161 0 398 +17 79 0 44 397 148 76 398 243 0 173 +17 56 0 44 148 37 54 402 240 0
 400 +17 37 0 44 56 39 11 34 155 0 402 +17 402 0 282 36 401 11 56 240 0 0 -15 28
2 574 0 402 266 0 17 36 0 282 75 402 60 27 25 0 0 -17 401 0 282 402 75 54 234 23
1 0 0 -17 75 0 282 401 36 72 63 225 0 234 -17 234 0 303 202 400 72 401 231 0 394
 +17 394 0 391 63 71 72 202 199 0 0 -17 63 0 391 403 394 60 75 225 0 35 +17 403
 0 391 59 63 64 35 196 0 0 -17 35 0 33 27 248 60 403 196 0 36 +15 33 301 0 35 30
2 0 17 248 0 33 35 34 64 404 246 0 403 +17 34 0 33 248 27 28 37 155 0 404 -17 40
4 0 267 46 67 28 248 246 0 0 -15 267 595 0 46 18 0 17 46 0 267 132 404 40 39 47
 0 0 -17 67 0 267 404 132 64 59 223 0 248 -17 132 0 267 67 46 57 24 10 0 0 -17 5
9 0 391 105 403 57 67 223 0 128 +17 105 0 391 142 59 102 128 178 0 125 +17 128 0
 124 24 125 57 105 178 0 132 -17 142 0 391 405 105 85 131 143 0 0 +17 405 0 391
 97 142 90 194 191 0 0 -17 97 0 391 392 405 94 93 188 0 216 -17 194 0 337 153 21
2 85 405 191 0 142 +15 337 305 0 194 328 0 17 153 0 337 151 194 84 88 145 0 139
 -17 212 0 337 194 151 90 406 209 0 405 +17 151 0 337 212 153 109 108 152 0 0 -1
7 406 0 343 116 93 109 212 209 0 151 -15 343 307 0 93 336 0 17 116 0 343 216 406
 113 112 164 0 382 -17 93 0 343 406 216 90 97 188 0 212 +17 216 0 343 93 116 94
 407 213 0 184 +17 407 0 348 395 184 113 216 213 0 0 -17 184 0 348 407 101 94 39
2 181 0 0 +15 348 313 0 184 16 0 17 101 0 348 184 395 98 120 146 0 392 +17 395 0
 348 101 407 117 382 135 0 397 -17 382 0 44 112 397 113 395 135 0 407 +17 397 0
 44 382 79 117 173 170 0 0 -17 112 0 44 108 382 109 116 164 0 406 +17 88 0 138 1
31 139 85 153 145 0 194 +81 1 176 408 29 174 0 0 378 385 408 81 1 183 412 29 181
 0 0 385 339 409 82 3 387 6 23 1 81 1 339 413 29 135 0 0 183 333 410 82 3 409 6
 26 1 82 3 410 6 27 1 82 3 408 6 22 1 81 1 381 397 29 164 0 0 190 157 411 81 1 1
90 396 29 188 0 0 163 381 412 81 1 157 398 29 143 0 0 381 154 413 82 3 411 6 11
 1 82 3 413 6 12 1 81 1 163 395 29 152 0 0 193 190 414 82 3 412 6 10 1 81 1 193
 394 29 191 0 0 218 163 415 82 3 414 6 9 1 81 1 218 391 29 146 0 0 208 193 416 8
2 3 415 6 8 1 81 1 208 389 29 145 0 0 211 218 417 82 3 416 6 5 1 81 1 211 388 29
 209 0 0 144 208 418 82 3 417 6 3 1 81 1 144 387 29 130 0 0 215 211 419 82 3 418
 6 2 1 81 1 215 386 29 213 0 0 119 144 420 82 3 419 6 1 1 81 1 119 381 29 117 0
 0 100 215 421 82 3 420 6 0 1 81 1 100 380 29 98 0 0 107 119 422 82 3 421 6 11 0
 81 1 107 377 29 84 0 0 87 100 423 82 3 422 6 10 0 81 1 87 376 29 85 0 0 111 107
 424 82 3 423 6 7 0 81 1 111 375 29 109 0 0 92 87 425 82 3 424 6 6 0 81 1 92 374
 29 90 0 0 121 111 426 82 3 425 6 5 0 82 3 426 6 4 0 81 1 158 406 29 185 0 0 154
 378 427 82 3 380 6 21 1 82 3 427 6 20 1 15 150 11 0 374 149 0 83 3 367 .6156862
74509804 .811764705882353 .929411764705882 82 3 345 6 3 2 82 3 340 6 0 2 82 3 33
2 6 4 2 79 15 324 SDL/TYSA_COLOUR83 3 319 .615686274509804 .811764705882353 .929
411764705882 83 3 314 .615686274509804 .811764705882353 .929411764705882 83 3 30
7 .615686274509804 .811764705882353 .929411764705882 83 3 296 .615686274509804 .
811764705882353 .929411764705882 83 3 289 .615686274509804 .811764705882353 .929
411764705882 83 3 283 .615686274509804 .811764705882353 .929411764705882 83 3 27
9 .615686274509804 .811764705882353 .929411764705882 83 3 270 .615686274509804 .
811764705882353 .929411764705882 81 1 242 648 29 240 0 0 227 233 428 82 3 253 7
 10 1 81 1 227 647 29 225 0 0 221 242 429 82 3 428 7 9 1 81 1 221 646 29 217 0 0
 237 227 430 82 3 429 7 8 1 81 1 237 645 29 235 0 0 245 221 431 82 3 430 7 7 1 8
1 1 245 644 29 243 0 0 230 237 432 82 3 431 7 6 1 81 1 230 643 29 228 0 0 23 245
 433 82 3 432 7 5 1 81 1 23 642 29 10 0 0 247 230 434 82 3 433 7 4 1 81 1 247 64
1 29 246 0 0 239 23 435 82 3 434 7 3 1 81 1 239 640 29 47 0 0 31 247 436 82 3 43
5 7 2 1 81 1 31 639 29 223 0 0 26 239 437 82 3 436 7 1 1 82 3 437 7 0 1 79 9 252
 BTI/DetId82 3 159 6 13 1 81 1 104 372 29 102 0 0 115 121 438 82 3 123 6 3 0 81
 1 115 371 29 113 0 0 96 104 439 82 3 438 6 2 0 81 1 96 370 29 94 0 0 0 115 440
 82 3 439 6 1 0 82 3 440 6 0 0 81 1 82 632 29 80 0 0 70 52 441 81 1 70 631 29 68
 0 0 42 82 442 81 1 52 633 29 48 0 0 82 78 443 82 3 441 7 5 0 81 1 78 634 29 76
 0 0 52 74 444 82 3 443 7 6 0 81 1 74 635 29 72 0 0 78 62 445 82 3 444 7 7 0 81
 1 62 636 29 60 0 0 74 30 446 82 3 445 7 8 0 81 1 30 637 29 54 0 0 62 26 447 82
 3 446 7 9 0 82 3 447 7 10 0 81 1 42 630 29 40 0 0 38 70 448 82 3 442 7 4 0 82 3
 448 7 3 0 82 3 43 7 2 0 82 3 32 7 11 0 19 17 340 0 1 0 9 5 0 S0 74 4 CI16 index
_map_offset0 0 1 dCCZ20 15 5 0 0 315 354 13 2 263 0 0 0 0 0 0 0 0 0 0 0 0 0 0 0
 80 1 12 268 449 8040 0 0 0 0 3 5 0 0 0 TTTFFFFFFFFFFFFF2 83 3 14 .6156862745098
04 .811764705882353 .929411764705882 79 17 449 SDL/TYSA_COLOUR_21 0 
