**ABCDEFGHIJKLMNOPQRSTUVWXYZabcdefghijklmnopqrstuvwxyz**************************
**PARASOLID !"#$%&'()*+,-./:;<=>?@[\]^_`{|}~0123456789**************************
**PART1;
MC=unknown;
MC_MODEL=unknown;
MC_ID=unknown;
OS=unknown;
OS_RELEASE=unknown;
FRU=Parasolid 35.1.246;
APPL=Onshape;
SITE=unknown;
USER=unknown;
FORMAT=text;
GUISE=transmit;
KEY=BTGapi::writeModels_.xmt;
FILE=BTGapi::writeModels_.xmt;
DATE=2024-02-13T04:44:16 (UTC);
**PART2;
SCH=SCH_3501246_35102;
USFLD_SIZE=0;
**PART3;
**END_OF_HEADER*****************************************************************
T51 : TRANSMIT FILE created by modeller version 350124623 SCH_3501246_35102_1300
6231 0 12 36 CCCI7 lattice222 0 CCCI4 mesh1006 0 I8 polyline1008 0 CCCCCCCDI5 ow
ner1040 0 CCCI16 boundary_lattice222 0 CCCI13 boundary_mesh1006 0 I17 boundary_p
olyline1008 0 CCCA16 index_map_offset0 0 1 dA9 index_map82 0 A17 node_id_index_m
ap82 0 A20 schema_embedding_map82 0 A5 child12 0 A14 lowest_node_id0 0 1 dA16 me
sh_offset_data206 0 Z1 876 2 3 0 0 0 0 0 0 0 1e3 1e-8 0 4 5 1 0 1 2 6 0 7 8 9 0
 0 10 11 12 0 0 0 0 0 0 0 81 255 1 2 861 13 1 14 0 0 0 15 70 11 CI9 list_type0 0
 1 uI10 notransmit0 0 1 lCCCDCCDI12 finger_index0 0 1 dI12 finger_block1012 0 CZ
3 0 4 T1 0 0 5 20 1 16 16 13 255 6 224 0 1 0 17 0 0 18 0 50 255 7 216 0 17 19 0
 0 +-.0108092696160078 .0381 -.002175541782121485 1 0 -156105599637958e-30 -1561
05599637958e-30 0 -1 31 255 8 378 0 20 21 0 0 -0 0 .00893695821787851 0 0 -1 0 1
 0 .003175 29 255 9 182 0 22 23 0 -.0108092696160078 -.0381 .00893695821787851 1
9 9 CCCCCCI5 frame230 0 CA5 owner12 0 Z10 78 0 1 18 0 24 0 V0 16 255 11 195 25 ?
26 0 27 28 0 0 1 18 255 12 72 29 30 0 31 32 ?1 81 1 29 259 33 12 0 0 34 35 36 17
 255 30 0 37 38 39 12 40 41 0 42 -18 31 67 43 44 12 45 46 ?1 29 32 74 0 12 46 47
 -.0108092696160078 .0381 .00893695821787851 29 46 69 0 31 48 32 .01141573038399
22 .0381 .00893695821787851 29 47 188 0 49 32 50 -.0108092696160078 -.0381 -.013
2880417821215 18 49 170 51 26 52 0 47 ?1 29 50 187 0 52 47 53 -.0139842696160078
 -.0381 -.0132880417821215 18 52 166 54 55 56 49 50 ?1 29 53 186 0 56 50 57 -.01
39842696160078 -.0381 .0105244582178785 18 56 162 58 59 60 52 53 ?1 29 57 185 0
 60 53 61 -.0123967696160078 -.0381 .01211195821787852 18 60 158 62 63 64 56 57
 ?1 29 61 184 0 64 57 23 .0114157303839922 -.0381 .01211195821787852 18 64 154 6
5 66 67 60 61 ?1 29 23 183 0 67 61 9 .0114157303839922 -.0381 .00893695821787851
 18 67 150 35 68 22 64 23 ?1 81 1 35 260 33 67 0 0 29 43 69 17 68 0 37 39 38 67
 44 70 0 71 +18 22 146 34 40 72 67 9 ?1 81 1 34 258 33 22 0 0 73 29 74 17 40 0 7
5 76 42 22 30 41 0 77 +18 72 42 73 78 79 22 80 ?1 81 1 73 257 33 72 0 0 51 34 81
 17 78 0 75 42 76 72 26 11 0 82 -18 79 47 83 84 85 72 86 ?1 29 80 44 0 72 0 86 -
.0108092696160078 .0381 -.0132880417821215 29 86 49 0 79 80 87 -.013984269616007
8 .0381 -.0132880417821215 29 87 54 0 85 86 88 -.0139842696160078 .0381 .0105244
582178785 18 85 52 89 90 91 79 87 ?1 29 88 59 0 91 87 48 -.0123967696160078 .038
1 .01211195821787852 18 91 57 92 93 45 85 88 ?1 29 48 64 0 45 88 46 .01141573038
39922 .0381 .01211195821787852 18 45 62 94 95 31 91 48 ?1 81 1 94 255 33 45 0 0
 65 51 96 17 95 0 97 98 93 45 99 100 0 101 +15 255 97 6 0 82 102 0 17 98 0 97 10
3 95 31 104 105 0 38 -17 93 0 97 95 90 91 106 107 0 108 +17 99 0 109 110 101 91
 95 100 0 0 -16 100 27 111 ?95 105 107 112 0 0 1 17 101 0 109 99 113 45 66 114 0
 104 -15 109 200 0 113 115 0 17 113 0 109 101 110 64 116 117 0 118 +17 66 0 119
 71 104 64 101 114 0 113 +16 114 191 120 ?66 121 70 122 0 0 1 17 104 0 119 66 44
 45 98 105 0 0 +15 119 198 0 71 123 0 17 44 0 119 104 71 31 68 70 0 98 -16 105 3
2 124 ?104 125 100 126 0 0 1 81 1 124 280 33 105 0 0 127 128 129 16 125 37 130 ?
38 41 105 131 0 0 1 30 255 126 34 0 105 112 131 0 +.0114157303839922 .0381 .0105
244582178785 0 0 1 30 112 29 0 100 132 126 0 +-.000490519616007804 .0381 .012111
95821787852 1 0 0 30 131 39 0 125 126 133 0 +.0003032303839921975 .0381 .0089369
5821787851 1 0 0 30 133 181 0 134 131 135 0 +-.0108092696160078 -.0381 -.0021755
41782121485 156105599637958e-30 0 1 16 134 142 136 ?77 137 138 133 0 0 1 30 135
 180 0 137 133 139 0 +-.0123967696160078 -.0381 -.0132880417821215 1 0 0 16 137
 138 140 ?141 142 134 135 0 0 1 30 139 179 0 142 135 143 0 +-.0139842696160078 -
.0381 -.001381791782121488 0 0 1 16 142 134 144 ?59 145 137 139 0 0 1 31 143 178
 0 145 139 146 0 +-.0123967696160078 -.0381 .0105244582178785 0 1 0 1 0 0 .00158
75 16 145 130 128 ?63 117 142 143 0 0 1 30 146 177 0 117 143 147 0 +-.0004905196
16007804 -.0381 .01211195821787852 1 0 0 16 117 126 148 ?113 149 145 146 0 0 1 3
0 147 176 0 149 146 150 0 +.0114157303839922 -.0381 .0105244582178785 0 0 1 16 1
49 122 127 ?118 151 117 147 0 0 1 30 150 175 0 151 147 152 0 +.00030323038399219
75 -.0381 .00893695821787851 1 0 0 16 151 118 153 ?154 155 149 150 0 0 1 30 152
 217 0 41 150 156 0 +-.0108092696160078 .0381 .00893695821787851 0 -1 0 16 41 18
9 157 ?40 70 125 152 0 0 1 30 156 218 0 70 152 122 0 +.0114157303839922 .0381 .0
0893695821787851 0 -1 0 16 70 190 158 ?68 114 41 156 0 0 1 30 122 219 0 114 156
 159 0 +.0114157303839922 .0381 .01211195821787852 0 -1 0 30 159 220 0 121 122 1
60 0 +-.0123967696160078 .0381 .01211195821787852 0 -1 0 16 121 192 161 ?110 162
 114 159 0 0 1 30 160 221 0 162 159 163 0 +-.0139842696160078 .0381 .01052445821
78785 0 -1 0 16 162 193 164 ?165 27 121 160 0 0 1 30 163 222 0 27 160 28 0 +-.01
39842696160078 .0381 -.0132880417821215 0 -1 0 16 27 194 166 ?55 11 162 163 0 0
 1 30 28 223 0 11 163 167 0 +-.0108092696160078 .0381 -.0132880417821215 0 -1 0
 31 167 364 0 168 28 21 0 --4281446753150555e-34 .03175 .00893695821787851 0 0 -
1 0 1 0 .003175 16 168 649 169 ?170 171 172 167 0 0 1 31 21 371 0 171 167 8 0 -2
311574384158755e-31 -.03175 .00893695821787851 0 0 -1 0 1 0 .003175 16 171 551 1
73 ?174 20 168 21 0 0 1 81 1 173 847 33 171 0 0 169 175 176 17 174 0 177 174 174
 0 178 171 0 0 +16 20 493 175 ?179 180 171 8 0 0 1 81 1 175 848 33 20 0 0 173 18
1 182 17 179 0 183 179 179 0 184 20 0 0 +16 180 635 185 ?186 187 20 188 0 0 1 81
 1 185 843 33 180 0 0 189 190 191 17 186 0 192 186 186 0 193 180 0 0 +16 187 571
 190 ?194 138 180 195 0 0 1 31 188 726 0 180 196 195 0 --.0108092696160078 .0317
5 732991995673973e-33 1 0 -156105599637958e-30 -156105599637958e-30 0 -1 .003175
 31 196 729 0 172 197 188 0 +-.0139842696160078 .03175 732991995673973e-33 1 0 0
 0 -1 0 .003175 31 195 725 0 187 188 198 0 --.0108092696160078 -.03175 732991995
673973e-33 1 0 -156105599637958e-30 -156105599637958e-30 0 -1 .003175 31 198 724
 0 138 195 199 0 --.0108092696160078 0 0 1 0 -156105599637958e-30 -1561055996379
58e-30 0 -1 .003175 16 138 479 200 ?201 134 187 198 0 0 1 30 199 9 0 155 198 202
 0 +-.0108092696160078 .0381 -.002175541782121485 156105599637958e-30 0 1 16 155
 7 203 ?42 204 151 199 0 0 1 30 202 14 0 204 199 205 0 +-.0123967696160078 .0381
 -.0132880417821215 1 0 0 16 204 12 206 ?207 208 155 202 0 0 1 30 205 19 0 208 2
02 132 0 +-.0139842696160078 .0381 -.001381791782121488 0 0 1 16 208 17 209 ?90
 107 204 205 0 0 1 31 132 24 0 107 205 112 0 +-.0123967696160078 .0381 .01052445
82178785 0 1 0 1 0 0 .0015875 16 107 22 210 ?93 100 208 132 0 0 1 81 1 210 282 3
3 107 0 0 128 211 212 80 7 CCCCCDI12 legal_owners0 16 1 lCZ1 33 213 214 9000 0 0
 0 0 3 6 0 0 0 FFTFTFTTFFFFFFFF1 81 1 128 281 33 145 0 0 124 210 215 81 1 211 28
4 33 216 0 217 210 218 219 82 255 3 212 6 20 1 14 255 216 107 217 ?220 102 221 6
 222 -0 0 220 102 24 81 1 217 870 223 216 211 0 224 225 226 81 1 218 285 33 102
 0 224 211 227 228 82 3 219 6 1 2 14 102 1 224 ?216 229 97 6 230 +0 0 216 229 24
 81 1 224 869 223 102 218 0 231 217 232 81 1 227 289 33 233 0 234 218 235 236 82
 3 228 6 2 2 14 233 207 234 ?237 17 238 6 19 +0 0 237 17 24 81 1 234 863 223 233
 227 0 239 240 241 81 1 235 290 33 123 0 242 227 243 244 82 3 236 6 6 2 14 123 1
99 242 ?229 115 119 6 245 +0 0 229 115 24 81 1 242 867 223 123 235 0 246 231 247
 81 1 243 291 33 248 0 249 235 250 251 82 3 244 6 7 2 14 248 203 249 ?115 237 25
2 6 253 -0 0 115 237 24 81 1 249 865 223 248 243 0 240 246 254 81 1 250 292 33 1
 0 255 243 256 257 82 3 251 6 8 2 81 1 255 859 258 1 250 14 0 0 259 81 1 256 837
 33 172 0 0 250 260 261 82 3 257 6 0 3 16 172 638 256 ?262 168 263 196 0 0 1 81
 1 260 838 33 264 0 0 256 265 266 82 3 261 13 0 1 16 264 574 260 ?267 268 269 27
0 0 0 1 81 1 265 839 33 269 0 0 260 271 272 82 3 266 13 1 1 16 269 482 265 ?273
 264 274 275 0 0 1 81 1 271 840 33 263 0 0 265 276 277 82 3 272 13 2 1 16 263 65
2 271 ?278 172 268 279 0 0 1 81 1 276 841 33 268 0 0 271 189 280 82 3 277 13 3 1
 16 268 554 276 ?281 263 264 197 0 0 1 81 1 189 842 33 274 0 0 276 185 282 82 3
 280 13 4 1 16 274 496 189 ?283 269 0 284 0 0 1 82 3 282 13 5 1 17 283 0 285 283
 283 0 286 274 0 0 +31 284 749 0 274 0 270 0 +0 0 .01211195821787852 0 0 -1 0 1
 0 .003175 31 270 745 0 264 284 275 0 +-.0139842696160078 -.03175 73299199567397
3e-33 1 0 0 0 -1 0 .003175 31 275 743 0 269 270 279 0 +-.0139842696160078 0 0 1
 0 0 0 -1 0 .003175 31 279 740 0 263 275 197 0 +-4281446753150555e-34 .03175 .01
211195821787852 0 0 -1 0 1 0 .003175 31 197 738 0 268 279 196 0 +231157438415875
5e-31 -.03175 .01211195821787852 0 0 -1 0 1 0 .003175 15 285 398 0 283 115 287 1
7 286 0 288 286 286 0 283 274 0 0 -15 288 539 0 286 289 0 14 289 535 290 ?291 29
2 293 6 294 +0 0 291 292 24 81 1 290 873 223 289 295 0 296 297 298 14 291 677 29
7 ?299 289 300 6 301 +0 0 299 289 24 14 292 600 296 ?289 220 302 6 303 +0 0 289
 220 24 15 293 538 0 184 289 288 51 255 294 722 0 289 0 304 0 -0 0 .012111958217
87852 0 0 -1 .003175 0 1 0 13 24 79 0 0 0 0 0 0 10 17 14 17 209 239 ?233 0 305 6
 7 +0 0 233 0 24 81 1 239 862 223 17 306 0 0 234 307 15 305 437 0 201 17 308 17
 201 0 305 201 201 0 309 138 0 0 +15 308 431 0 194 17 192 17 194 0 308 194 194 0
 310 187 0 0 +15 192 425 0 186 17 75 15 75 208 0 76 17 0 17 76 0 75 78 40 49 77
 134 0 141 -17 77 0 221 154 141 22 76 134 0 39 +17 141 0 221 77 311 49 312 137 0
 0 +15 221 117 0 77 216 0 17 311 0 221 141 313 52 59 142 0 312 -17 312 0 238 84
 26 52 141 137 0 0 -15 238 206 0 312 233 0 17 84 0 238 207 312 79 55 27 0 314 -1
7 26 0 238 312 207 49 78 11 0 76 +17 207 0 238 26 84 72 315 204 0 0 +17 315 0 97
 90 82 79 207 204 0 0 -17 90 0 97 93 315 85 314 208 0 316 +17 82 0 97 315 103 72
 42 155 0 207 -17 103 0 97 82 98 12 38 125 0 0 -17 42 0 75 40 78 12 82 155 0 103
 +17 38 0 37 68 30 31 103 125 0 0 +15 37 196 0 39 229 0 17 39 0 37 30 68 22 154
 151 0 0 -14 229 197 231 ?102 123 183 6 317 +0 0 102 123 24 81 1 231 868 223 229
 318 0 242 224 319 15 183 376 0 179 229 177 50 317 210 0 229 222 245 0 +.0003032
303839921975 .0381 .00893695821787851 0 0 -1 0 1 0 50 222 174 0 216 230 317 0 +-
.001284269616007804 -.0381 -.000588041782121487 0 1 0 1 0 0 50 245 211 0 123 317
 320 0 +.0114157303839922 .0381 .0105244582178785 1 0 0 0 -1 0 50 320 212 0 115
 245 253 0 +-.000490519616007804 .0381 .01211195821787852 0 0 -1 0 1 0 14 115 20
1 246 ?123 248 285 6 320 -0 0 123 248 24 51 253 213 0 248 320 321 0 --.012396769
6160078 .0381 .0105244582178785 0 -1 0 .0015875 -1 0 0 50 321 214 0 237 253 19 0
 +-.0139842696160078 .0381 -.001381791782121488 1 0 0 0 -1 0 14 237 205 240 ?248
 233 322 6 321 -0 0 248 233 24 50 19 215 0 233 321 7 0 +-.0123967696160078 .0381
 -.0132880417821215 0 0 -1 0 1 0 81 1 240 864 223 237 323 0 234 249 324 15 322 4
19 0 273 237 325 17 273 0 322 273 273 0 326 269 0 0 +15 325 412 0 267 237 327 17
 267 0 325 267 267 0 328 264 0 0 +15 327 405 0 262 237 329 17 262 0 327 262 262
 0 330 172 0 0 +15 329 204 0 59 237 0 17 59 0 329 316 55 56 311 142 0 165 +17 31
6 0 329 314 59 85 165 162 0 106 -17 55 0 329 59 314 52 84 27 0 311 +17 165 0 252
 63 106 56 316 162 0 313 +15 252 202 0 63 248 0 17 63 0 252 108 165 60 313 145 0
 110 +17 106 0 252 165 108 85 93 107 0 0 -17 313 0 221 311 116 56 63 145 0 0 -17
 116 0 221 313 118 60 113 117 0 0 -17 118 0 221 116 154 64 71 149 0 0 +17 154 0
 221 118 77 67 39 151 0 0 +17 71 0 119 44 66 67 118 149 0 154 -17 108 0 252 106
 63 91 110 121 0 99 -17 110 0 109 113 99 60 108 121 0 116 +17 314 0 329 55 316 7
9 90 208 0 315 -17 330 0 331 330 330 0 262 172 0 0 -15 331 681 0 330 291 0 17 32
8 0 332 328 328 0 267 264 0 0 -15 332 617 0 328 299 0 14 299 613 333 ?334 291 33
5 6 304 +0 0 334 291 24 81 1 333 875 223 299 336 0 297 337 338 14 334 521 337 ?0
 299 339 6 340 +0 0 0 299 24 15 335 616 0 310 299 332 51 304 719 0 299 294 340 0
 --.0139842696160078 -.03175 732991995673973e-33 1 0 0 .003175 0 -1 0 51 340 716
 0 334 304 341 0 --.0139842696160078 0 0 1 0 0 .003175 0 -1 0 51 341 713 0 220 3
40 303 0 --4281446753150555e-34 .03175 .01211195821787852 0 0 -1 .003175 0 1 0 1
4 220 691 225 ?292 216 342 6 341 +0 0 292 216 24 51 303 710 0 292 341 301 0 -231
1574384158755e-31 -.03175 .01211195821787852 0 0 -1 .003175 0 1 0 51 301 707 0 2
91 303 230 0 --.0139842696160078 .03175 732991995673973e-33 1 0 0 .003175 0 -1 0
 50 230 3 0 102 301 222 0 +-.001284269616007804 .0381 -.000588041782121487 0 1 0
 1 0 0 81 1 225 871 223 220 343 0 217 296 344 15 342 694 0 345 220 346 17 345 0
 342 345 345 0 170 168 0 0 -15 346 695 0 347 220 0 17 347 0 346 347 347 0 278 26
3 0 0 -17 278 0 348 278 278 0 347 263 0 0 +15 348 384 0 278 115 109 17 170 0 349
 170 170 0 345 168 0 0 +15 349 362 0 170 229 37 80 1 223 0 350 8001 0 0 0 0 3 5
 0 0 0 FFFFTFTFFFFFFFFF2 81 1 343 850 33 220 0 225 181 351 352 81 1 296 872 223
 292 351 0 225 290 353 83 255 3 344 .615686274509804 .811764705882353 .929411764
705882 81 1 351 851 33 292 0 296 343 336 354 83 3 353 .615686274509804 .81176470
5882353 .929411764705882 81 1 336 852 33 299 0 333 351 355 356 82 3 354 13 2 2 8
1 1 355 853 33 334 0 337 336 295 357 82 3 356 13 3 2 81 1 337 876 223 334 355 0
 333 0 358 81 1 295 854 33 289 0 290 355 323 359 82 3 357 13 4 2 81 1 323 855 33
 237 0 240 295 360 361 82 3 359 13 5 2 81 1 360 856 33 115 0 246 323 306 362 82
 3 361 13 6 2 81 1 246 866 223 115 360 0 249 242 363 81 1 306 857 33 17 0 239 36
0 318 364 82 3 362 13 7 2 81 1 318 858 33 229 0 231 306 0 365 82 3 364 13 8 2 82
 3 365 13 9 2 83 3 363 .615686274509804 .811764705882353 .929411764705882 83 3 3
58 .615686274509804 .811764705882353 .929411764705882 81 1 181 849 33 291 0 297
 175 343 366 82 3 352 13 1 2 81 1 297 874 223 291 181 0 290 333 367 82 3 366 13
 0 2 83 3 367 .615686274509804 .811764705882353 .929411764705882 79 255 15 350 S
DL/TYSA_COLOUR17 310 0 335 310 310 0 194 187 0 0 -15 339 524 0 309 334 368 17 30
9 0 339 309 309 0 201 138 0 0 -15 368 525 0 326 334 0 17 326 0 368 326 326 0 273
 269 0 0 -83 3 338 .615686274509804 .811764705882353 .929411764705882 83 3 324 .
615686274509804 .811764705882353 .929411764705882 15 177 369 0 174 229 349 83 3
 319 .615686274509804 .811764705882353 .929411764705882 83 3 307 .61568627450980
4 .811764705882353 .929411764705882 17 184 0 293 184 184 0 179 20 0 0 -15 302 60
3 0 178 292 369 17 178 0 302 178 178 0 174 171 0 0 -15 369 604 0 370 292 0 17 37
0 0 369 370 370 0 281 268 0 0 -17 281 0 287 281 281 0 370 268 0 0 +15 287 391 0
 281 115 348 15 300 680 0 193 291 331 17 193 0 300 193 193 0 186 180 0 0 -83 3 2
98 .615686274509804 .811764705882353 .929411764705882 80 1 258 371 372 8038 0 0
 0 0 0 0 0 0 0 TTTTTTTTTTTTTFTF10 81 1 14 860 371 1 255 2 0 0 373 98 255 6 259 8
0 97 114 116 32 49 80 1 371 374 375 8017 0 0 0 0 0 0 0 0 0 TTTTTTTTTTTTTFTF3 84
 255 6 373 Part 179 13 375 SDL/TYSA_NAME79 14 372 SDL/TYSA_UNAME83 3 254 .615686
274509804 .811764705882353 .929411764705882 83 3 247 .615686274509804 .811764705
882353 .929411764705882 83 3 241 .615686274509804 .811764705882353 .929411764705
882 83 3 232 .615686274509804 .811764705882353 .929411764705882 83 3 226 .615686
274509804 .811764705882353 .929411764705882 82 3 215 6 19 1 79 9 214 BTI/DetId81
 1 209 270 33 208 0 0 144 148 376 81 1 144 269 33 142 0 0 158 209 377 81 1 148 2
71 33 117 0 0 209 111 378 82 3 376 6 8 1 81 1 111 272 33 100 0 0 148 136 379 82
 3 378 6 9 1 81 1 136 273 33 134 0 0 111 203 380 82 3 379 6 10 1 81 1 203 274 33
 155 0 0 136 153 381 82 3 380 6 11 1 81 1 153 275 33 151 0 0 203 130 382 82 3 38
1 6 12 1 81 1 130 276 33 125 0 0 153 140 383 82 3 382 6 13 1 81 1 140 277 33 137
 0 0 130 206 384 82 3 383 6 14 1 81 1 206 278 33 204 0 0 140 127 385 82 3 384 6
 15 1 81 1 127 279 33 149 0 0 206 124 386 82 3 385 6 16 1 82 3 386 6 17 1 81 1 1
58 268 33 70 0 0 157 144 387 82 3 377 6 7 1 81 1 157 267 33 41 0 0 25 158 388 82
 3 387 6 6 1 81 1 25 266 33 11 0 0 120 157 389 82 3 388 6 5 1 81 1 120 265 33 11
4 0 0 161 25 390 82 3 389 6 4 1 81 1 161 264 33 121 0 0 164 120 391 82 3 390 6 3
 1 81 1 164 263 33 162 0 0 166 161 392 82 3 391 6 2 1 81 1 166 262 33 27 0 0 43
 164 393 82 3 392 6 1 1 81 1 43 261 33 31 0 0 35 166 394 82 3 393 6 0 1 82 3 394
 6 13 0 81 1 200 845 33 138 0 0 190 169 395 81 1 190 844 33 187 0 0 185 200 396
 81 1 169 846 33 168 0 0 200 173 397 82 3 395 13 8 1 82 3 397 13 9 1 82 3 396 13
 7 1 82 3 191 13 6 1 82 3 182 13 11 1 82 3 176 13 10 1 82 3 129 6 18 1 81 1 65 2
54 33 64 0 0 92 94 398 81 1 51 256 33 49 0 0 94 73 399 82 3 96 6 7 0 82 3 399 6
 8 0 81 1 92 253 33 91 0 0 62 65 400 82 3 398 6 6 0 81 1 62 252 33 60 0 0 89 92
 401 82 3 400 6 5 0 81 1 89 251 33 85 0 0 58 62 402 82 3 401 6 4 0 81 1 58 250 3
3 56 0 0 83 89 403 82 3 402 6 3 0 81 1 83 249 33 79 0 0 54 58 404 82 3 403 6 2 0
 81 1 54 248 33 52 0 0 0 83 405 82 3 404 6 1 0 82 3 405 6 0 0 82 3 81 6 9 0 82 3
 74 6 10 0 82 3 69 6 12 0 82 3 36 6 11 0 19 18 225 0 1 0 10 6 0 S0 74 4 CI16 ind
ex_map_offset0 0 1 dCCZ20 16 5 0 0 318 255 14 2 337 0 0 0 0 0 0 0 0 0 0 0 0 0 0
 0 80 1 13 223 406 8040 0 0 0 0 3 5 0 0 0 TTTFFFFFFFFFFFFF2 83 3 15 .61568627450
9804 .811764705882353 .929411764705882 79 17 406 SDL/TYSA_COLOUR_21 0 
