**ABCDEFGHIJKLMNOPQRSTUVWXYZabcdefghijklmnopqrstuvwxyz**************************
**PARASOLID !"#$%&'()*+,-./:;<=>?@[\]^_`{|}~0123456789**************************
**PART1;
MC=unknown;
MC_MODEL=unknown;
MC_ID=unknown;
OS=unknown;
OS_RELEASE=unknown;
FRU=Parasolid 35.1.246;
APPL=Onshape;
SITE=unknown;
USER=unknown;
FORMAT=text;
GUISE=transmit;
KEY=BTGapi::writeModels_.xmt;
FILE=BTGapi::writeModels_.xmt;
DATE=2024-02-13T04:43:46 (UTC);
**PART2;
SCH=SCH_3501246_35102;
USFLD_SIZE=0;
**PART3;
**END_OF_HEADER*****************************************************************
T51 : TRANSMIT FILE created by modeller version 350124623 SCH_3501246_35102_1300
6231 0 12 36 CCCI7 lattice222 0 CCCI4 mesh1006 0 I8 polyline1008 0 CCCCCCCDI5 ow
ner1040 0 CCCI16 boundary_lattice222 0 CCCI13 boundary_mesh1006 0 I17 boundary_p
olyline1008 0 CCCA16 index_map_offset0 0 1 dA9 index_map82 0 A17 node_id_index_m
ap82 0 A20 schema_embedding_map82 0 A5 child12 0 A14 lowest_node_id0 0 1 dA16 me
sh_offset_data206 0 Z1 348 2 3 0 0 0 0 0 0 0 1e3 1e-8 0 4 0 1 0 1 2 5 0 6 7 8 0
 0 9 10 11 0 0 0 0 0 0 0 81 255 1 2 338 12 1 13 0 0 0 14 70 11 CI9 list_type0 0
 1 uI10 notransmit0 0 1 lCCCDCCDI12 finger_index0 0 1 dI12 finger_block1012 0 CZ
3 0 4 T1 0 0 5 20 1 15 15 13 255 5 258 0 1 0 16 0 0 17 0 50 255 6 249 0 18 19 0
 0 +-.01180997277498244 .2286 .00176511223912239 1 0 0 0 -1 0 30 255 7 257 0 20
 21 0 0 +-.01180997277498244 .2286 -.00775988776087761 0 -1 0 29 255 8 210 0 22
 23 0 .03581502722501755 -.2286 -.0109348877608776 19 9 CCCCCCI5 frame230 0 CA5
 owner12 0 Z9 89 0 1 17 0 24 0 V0 16 255 10 221 25 ?26 0 27 28 0 0 1 18 255 11 8
3 29 30 0 31 32 ?1 81 1 29 288 33 11 0 0 34 35 36 17 255 30 0 37 38 39 11 40 41
 0 42 -18 31 78 43 44 11 45 46 ?1 29 32 85 0 11 46 47 .03581502722501755 .2286 -
.0109348877608776 29 46 80 0 31 48 32 .03581502722501755 .2286 .0144651122391224
 29 47 217 0 49 32 50 -.01180997277498244 -.2286 -.00775988776087761 18 49 197 5
1 52 53 0 47 ?1 29 50 216 0 53 47 54 .03264002722501755 -.2286 -.007759887760877
61 18 53 193 55 56 57 49 50 ?1 29 54 215 0 57 50 58 .03264002722501755 -.2286 .0
112901122391224 18 57 189 59 60 61 53 54 ?1 29 58 214 0 61 54 62 -.0118099727749
8246 -.2286 .0112901122391224 18 61 185 63 64 65 57 58 ?1 29 62 213 0 65 58 66 -
.01498497277498246 -.2286 -.01093488776087762 18 65 181 67 26 68 61 62 ?1 29 66
 212 0 68 62 23 -.01498497277498244 -.2286 .0144651122391224 18 68 177 35 69 70
 65 66 ?1 29 23 211 0 70 66 8 .03581502722501755 -.2286 .0144651122391224 18 70
 173 71 72 22 68 23 ?1 81 1 71 291 33 70 0 0 73 43 74 17 72 0 37 39 38 70 75 76
 0 77 +18 22 169 34 40 78 70 8 ?1 81 1 34 287 33 22 0 0 79 29 80 17 40 0 81 82 4
2 22 30 41 0 83 +18 78 48 84 85 86 22 87 ?1 81 1 84 294 33 78 0 0 51 55 88 17 85
 0 89 90 91 78 52 20 0 92 -18 86 53 93 94 95 78 96 ?1 29 87 50 0 78 0 96 -.01180
997277498244 .2286 -.00775988776087761 29 96 55 0 86 87 97 .03264002722501755 .2
286 -.00775988776087761 29 97 60 0 95 96 98 .03264002722501755 .2286 .0112901122
391224 18 95 58 99 100 101 86 97 ?1 29 98 65 0 101 97 102 -.01180997277498246 .2
286 .0112901122391224 18 101 63 103 104 105 95 98 ?1 29 102 70 0 105 98 48 -.014
98497277498246 .2286 -.01093488776087762 18 105 68 79 106 45 101 102 ?1 29 48 75
 0 45 102 46 -.01498497277498244 .2286 .0144651122391224 18 45 73 73 107 31 105
 48 ?1 81 1 73 290 33 45 0 0 35 71 108 17 107 0 109 110 75 45 44 111 0 112 -15 2
55 109 228 0 77 113 0 17 110 0 109 77 107 68 114 27 0 115 +17 75 0 109 107 77 31
 72 76 0 38 -17 44 0 116 117 112 31 107 111 0 75 +16 111 38 118 ?44 119 120 121
 0 0 1 17 112 0 116 44 122 45 123 120 0 114 +15 116 7 0 122 124 0 17 122 0 116 1
12 117 105 42 125 0 0 -17 123 0 126 26 114 105 112 120 0 122 -16 120 33 127 ?112
 111 125 128 0 0 1 17 114 0 126 123 115 45 110 27 0 0 -15 126 230 0 115 129 0 17
 115 0 126 114 26 68 130 131 0 0 +16 27 220 132 ?110 10 76 133 0 0 1 81 1 132 30
3 33 27 0 0 134 135 136 16 76 219 135 ?72 27 41 137 0 0 1 30 133 252 0 27 137 28
 0 +-.01498497277498244 .2286 .0144651122391224 0 -1 0 30 137 251 0 76 138 133 0
 +.03581502722501755 .2286 .0144651122391224 0 -1 0 30 28 253 0 10 133 139 0 +-.
01498497277498246 .2286 -.01093488776087762 0 -1 0 30 139 254 0 140 28 141 0 +-.
01180997277498246 .2286 .0112901122391224 0 -1 0 16 140 222 142 ?64 143 119 139
 0 0 1 30 141 255 0 143 139 21 0 +.03264002722501755 .2286 .0112901122391224 0 -
1 0 16 143 223 144 ?60 145 140 141 0 0 1 30 21 256 0 145 141 7 0 +.0326400272250
1755 .2286 -.00775988776087761 0 -1 0 16 145 224 146 ?147 20 143 21 0 0 1 81 1 1
46 306 33 145 0 0 148 142 149 17 147 0 150 151 152 53 153 145 0 154 +16 20 225 1
48 ?52 41 145 7 0 0 1 81 1 148 305 33 20 0 0 135 146 155 17 52 0 156 56 92 49 85
 20 0 157 +16 41 218 134 ?40 76 20 138 0 0 1 81 1 134 302 33 41 0 0 25 132 158 3
0 138 250 0 41 159 137 0 +.03581502722501755 .2286 -.0109348877608776 0 -1 0 30
 159 202 0 160 161 138 0 +.03581502722501755 -.2286 .00176511223912239 0 0 1 16
 160 137 162 ?163 164 165 159 0 0 1 30 161 203 0 165 166 159 0 +.010415027225017
54 -.2286 .0144651122391224 1 0 0 16 165 141 167 ?77 160 131 161 0 0 1 30 166 20
4 0 131 168 161 0 +-.01498497277498244 -.2286 .00176511223912239 0 0 1 16 131 14
5 169 ?115 165 170 166 0 0 1 30 168 205 0 170 171 166 0 +.01041502722501754 -.22
86 -.01093488776087762 1 0 0 16 170 149 172 ?83 131 173 168 0 0 1 30 171 206 0 1
73 174 168 0 +.01041502722501754 -.2286 .0112901122391224 1 0 0 16 173 153 175 ?
176 170 177 171 0 0 1 30 174 207 0 177 178 171 0 +.03264002722501755 -.2286 .001
76511223912239 0 0 1 16 177 157 179 ?151 173 180 174 0 0 1 30 178 208 0 180 181
 174 0 +.01041502722501754 -.2286 -.00775988776087761 1 0 0 16 180 161 182 ?56 1
77 183 178 0 0 1 30 181 209 0 183 184 178 0 +-.01180997277498244 -.2286 .0017651
1223912239 0 0 1 16 183 165 185 ?186 180 0 181 0 0 1 30 184 45 0 119 121 181 0 +
.03581502722501755 .2286 .00176511223912239 0 0 1 16 119 43 187 ?38 140 111 184
 0 0 1 30 121 40 0 111 128 184 0 +.01041502722501754 .2286 .0144651122391224 1 0
 0 30 128 35 0 120 188 121 0 +-.01498497277498244 .2286 .00176511223912239 0 0 1
 30 188 30 0 125 189 128 0 +.01041502722501754 .2286 -.01093488776087762 1 0 0 1
6 125 28 190 ?42 120 191 188 0 0 1 30 189 25 0 191 192 188 0 +.01041502722501754
 .2286 .0112901122391224 1 0 0 16 191 23 193 ?194 125 195 189 0 0 1 30 192 20 0
 195 196 189 0 +.03264002722501755 .2286 .00176511223912239 0 0 1 16 195 18 197
 ?100 191 198 192 0 0 1 30 196 15 0 198 199 192 0 +.01041502722501754 .2286 -.00
775988776087761 1 0 0 16 198 13 200 ?94 195 164 196 0 0 1 30 199 10 0 164 0 196
 0 +-.01180997277498244 .2286 .00176511223912239 0 0 1 16 164 8 201 ?90 198 160
 199 0 0 1 81 1 201 322 33 164 0 0 185 179 202 17 90 0 89 64 85 101 203 164 0 20
4 +15 89 240 0 91 18 0 17 64 0 89 91 90 61 104 140 0 186 +17 203 0 205 94 204 78
 90 164 0 0 -17 204 0 205 203 100 101 194 191 0 0 -15 205 6 0 203 124 116 17 100
 0 205 204 94 95 152 195 0 206 +17 194 0 207 60 104 95 204 191 0 0 +15 207 234 0
 208 209 0 17 60 0 207 208 194 57 206 143 0 151 +17 104 0 207 194 208 101 64 140
 0 90 -17 208 0 207 104 60 61 176 173 0 0 -17 176 0 210 154 186 57 208 173 0 0 +
15 210 135 0 186 211 212 17 154 0 210 157 176 53 151 177 0 0 -17 186 0 210 176 1
57 61 91 183 0 208 +17 157 0 210 186 154 49 56 180 0 91 -17 91 0 89 85 64 49 186
 183 0 0 -17 56 0 156 153 52 53 157 180 0 147 +15 156 238 0 56 213 0 17 153 0 15
6 92 56 86 147 145 0 152 -17 92 0 156 52 153 78 94 198 0 203 -17 152 0 150 147 2
06 86 100 195 0 0 -15 150 236 0 151 214 0 17 206 0 150 152 151 95 60 143 0 194 -
17 151 0 150 206 147 57 154 177 0 176 +14 255 214 237 215 ?209 213 150 5 216 -0
 0 209 213 24 81 1 215 344 217 214 218 0 219 220 221 14 209 235 220 ?222 214 207
 5 223 +0 0 222 214 24 14 213 239 219 ?214 18 156 5 19 -0 0 214 18 24 50 216 247
 0 214 223 19 0 +.03264002722501755 .2286 .00176511223912239 1 0 0 0 -1 0 13 24
 90 0 0 0 0 0 0 9 16 14 16 233 224 ?129 0 81 5 225 +0 0 129 0 24 81 1 224 339 21
7 16 226 0 0 227 228 14 129 231 227 ?113 16 126 5 229 -0 0 113 16 24 15 81 232 0
 82 16 0 50 225 245 0 16 229 223 0 +.01041502722501754 .2286 -.01093488776087762
 0 0 -1 0 1 0 50 229 244 0 129 230 225 0 +-.01498497277498244 .2286 .00176511223
912239 1 0 0 0 -1 0 50 223 246 0 209 225 216 0 +.01041502722501754 .2286 .011290
1122391224 0 0 -1 0 1 0 50 230 243 0 113 231 229 0 +.01041502722501754 .2286 .01
44651122391224 0 0 -1 0 1 0 14 113 229 232 ?18 129 109 5 230 -0 0 18 129 24 50 2
31 242 0 222 233 230 0 +.03581502722501755 .2286 .00176511223912239 1 0 0 0 -1 0
 14 222 227 234 ?124 209 37 5 231 +0 0 124 209 24 50 233 201 0 211 235 231 0 +.0
1041502722501754 -.2286 .00176511223912239 0 1 0 1 0 0 14 211 124 236 ?0 124 210
 5 233 -0 0 0 124 24 50 235 3 0 124 0 233 0 +.01041502722501754 .2286 .001765112
23912239 0 1 0 1 0 0 14 124 1 237 ?211 222 205 5 235 +0 0 211 222 24 81 1 237 34
7 217 124 238 0 234 236 239 80 7 CCCCCDI12 legal_owners0 16 1 lCZ1 217 0 240 800
1 0 0 0 0 3 5 0 0 0 FFFFTFTFFFFFFFFF2 81 1 238 327 33 124 0 237 241 242 243 81 1
 234 346 217 222 244 0 220 237 245 81 1 236 348 217 211 241 0 237 0 246 83 255 3
 239 .615686274509804 .811764705882353 .929411764705882 81 1 241 326 33 211 0 23
6 226 238 247 83 3 246 .615686274509804 .811764705882353 .929411764705882 80 1 3
3 248 249 9000 0 0 0 0 3 6 0 0 0 FFTFTFTTFFFFFFFF1 81 1 226 325 33 16 0 224 197
 241 250 82 255 3 247 6 1 2 81 1 197 324 33 195 0 0 179 226 251 82 3 250 6 0 2 8
1 1 179 323 33 177 0 0 201 197 252 82 3 251 6 23 1 82 3 252 6 22 1 79 255 9 249
 BTI/DetId81 1 244 330 33 222 0 234 253 254 255 81 1 220 345 217 209 256 0 215 2
34 257 83 3 245 .615686274509804 .811764705882353 .929411764705882 81 1 256 332
 33 209 0 220 254 258 259 83 3 257 .615686274509804 .811764705882353 .9294117647
05882 81 1 254 331 33 213 0 219 244 256 260 81 1 258 333 33 18 0 261 256 218 262
 82 3 259 6 7 2 14 18 241 261 ?213 113 89 5 6 +0 0 213 113 24 81 1 261 342 217 1
8 258 0 232 219 263 81 1 218 334 33 214 0 215 258 264 265 82 3 262 6 8 2 81 1 26
4 335 33 1 0 266 218 0 267 82 3 265 6 9 2 81 1 266 336 268 1 264 13 0 0 269 82 3
 267 6 0 3 80 1 268 270 271 8038 0 0 0 0 0 0 0 0 0 TTTTTTTTTTTTTFTF10 81 1 13 33
7 270 1 266 2 0 0 272 98 255 6 269 80 97 114 116 32 49 80 1 270 273 274 8017 0 0
 0 0 0 0 0 0 0 TTTTTTTTTTTTTFTF3 84 255 6 272 Part 179 13 274 SDL/TYSA_NAME79 14
 271 SDL/TYSA_UNAME81 1 232 341 217 113 242 0 227 261 275 81 1 219 343 217 213 2
54 0 261 215 276 83 3 263 .615686274509804 .811764705882353 .929411764705882 83
 3 276 .615686274509804 .811764705882353 .929411764705882 81 1 242 328 33 113 0
 232 238 253 277 81 1 227 340 217 129 253 0 224 232 278 83 3 275 .61568627450980
4 .811764705882353 .929411764705882 81 1 253 329 33 129 0 227 242 244 279 83 3 2
78 .615686274509804 .811764705882353 .929411764705882 82 3 279 6 4 2 82 3 277 6
 3 2 82 3 260 6 6 2 82 3 255 6 5 2 82 3 243 6 2 2 79 15 240 SDL/TYSA_COLOUR15 37
 226 0 39 222 0 17 39 0 37 30 72 22 163 160 0 0 -17 163 0 212 69 83 70 39 160 0
 0 +15 212 136 0 83 211 0 17 69 0 212 130 163 68 77 165 0 110 -17 83 0 212 163 1
30 22 82 170 0 39 +17 130 0 212 83 69 65 115 131 0 82 -17 82 0 81 106 40 65 83 1
70 0 0 -17 106 0 81 42 82 105 26 10 0 123 -17 42 0 81 40 106 11 122 125 0 117 +1
7 26 0 126 115 123 65 106 10 0 130 +17 117 0 116 122 44 11 38 119 0 0 -17 38 0 3
7 72 30 31 117 119 0 0 +17 77 0 109 75 110 70 69 165 0 163 +83 3 228 .6156862745
09804 .811764705882353 .929411764705882 50 19 248 0 213 216 6 0 +.01041502722501
754 .2286 -.00775988776087761 0 0 -1 0 1 0 83 3 221 .615686274509804 .8117647058
82353 .929411764705882 17 94 0 205 100 203 86 92 198 0 153 +81 1 185 321 33 183
 0 0 193 201 280 82 3 202 6 21 1 81 1 193 320 33 191 0 0 175 185 281 82 3 280 6
 20 1 81 1 175 319 33 173 0 0 200 193 282 82 3 281 6 19 1 81 1 200 318 33 198 0
 0 182 175 283 82 3 282 6 18 1 81 1 182 317 33 180 0 0 187 200 284 82 3 283 6 17
 1 81 1 187 316 33 119 0 0 162 182 285 82 3 284 6 16 1 81 1 162 315 33 160 0 0 1
27 187 286 82 3 285 6 15 1 81 1 127 314 33 120 0 0 169 162 287 82 3 286 6 14 1 8
1 1 169 313 33 131 0 0 118 127 288 82 3 287 6 13 1 81 1 118 312 33 111 0 0 167 1
69 289 82 3 288 6 12 1 81 1 167 311 33 165 0 0 190 118 290 82 3 289 6 11 1 81 1
 190 310 33 125 0 0 172 167 291 82 3 290 6 10 1 81 1 172 309 33 170 0 0 144 190
 292 82 3 291 6 9 1 81 1 144 308 33 143 0 0 142 172 293 82 3 292 6 8 1 81 1 142
 307 33 140 0 0 146 144 294 82 3 293 6 7 1 82 3 294 6 6 1 81 1 25 301 33 10 0 0
 99 134 295 82 3 158 6 1 1 81 1 99 300 33 95 0 0 59 25 296 82 3 295 6 0 1 81 1 5
9 299 33 57 0 0 103 99 297 82 3 296 6 15 0 81 1 103 298 33 101 0 0 63 59 298 82
 3 297 6 14 0 81 1 63 297 33 61 0 0 93 103 299 82 3 298 6 13 0 81 1 93 296 33 86
 0 0 55 63 300 82 3 299 6 12 0 81 1 55 295 33 53 0 0 84 93 301 82 3 300 6 11 0 8
2 3 301 6 10 0 81 1 135 304 33 76 0 0 132 148 302 82 3 155 6 4 1 82 3 302 6 3 1
 82 3 149 6 5 1 82 3 136 6 2 1 81 1 35 289 33 68 0 0 29 73 303 82 3 108 6 5 0 82
 3 303 6 4 0 81 1 79 286 33 105 0 0 67 34 304 81 1 67 285 33 65 0 0 0 79 305 82
 3 304 6 1 0 82 3 305 6 0 0 81 1 51 293 33 49 0 0 43 84 306 82 3 88 6 9 0 81 1 4
3 292 33 31 0 0 71 51 307 82 3 306 6 8 0 82 3 307 6 7 0 82 3 80 6 2 0 82 3 74 6
 6 0 82 3 36 6 3 0 19 17 259 0 1 0 9 5 0 S0 74 4 CI16 index_map_offset0 0 1 dCCZ
20 15 5 0 0 264 266 13 2 236 0 0 0 0 0 0 0 0 0 0 0 0 0 0 0 80 1 12 217 308 8040
 0 0 0 0 3 5 0 0 0 TTTFFFFFFFFFFFFF2 83 3 14 .615686274509804 .811764705882353 .
929411764705882 79 17 308 SDL/TYSA_COLOUR_21 0 
