**ABCDEFGHIJKLMNOPQRSTUVWXYZabcdefghijklmnopqrstuvwxyz**************************
**PARASOLID !"#$%&'()*+,-./:;<=>?@[\]^_`{|}~0123456789**************************
**PART1;
MC=unknown;
MC_MODEL=unknown;
MC_ID=unknown;
OS=unknown;
OS_RELEASE=unknown;
FRU=Parasolid 35.1.246;
APPL=Onshape;
SITE=unknown;
USER=unknown;
FORMAT=text;
GUISE=transmit;
KEY=BTGapi::writeModels_.xmt;
FILE=BTGapi::writeModels_.xmt;
DATE=2024-02-13T04:44:00 (UTC);
**PART2;
SCH=SCH_3501246_35102;
USFLD_SIZE=0;
**PART3;
**END_OF_HEADER*****************************************************************
T51 : TRANSMIT FILE created by modeller version 350124623 SCH_3501246_35102_1300
6231 0 12 36 CCCI7 lattice222 0 CCCI4 mesh1006 0 I8 polyline1008 0 CCCCCCCDI5 ow
ner1040 0 CCCI16 boundary_lattice222 0 CCCI13 boundary_mesh1006 0 I17 boundary_p
olyline1008 0 CCCA16 index_map_offset0 0 1 dA9 index_map82 0 A17 node_id_index_m
ap82 0 A20 schema_embedding_map82 0 A5 child12 0 A14 lowest_node_id0 0 1 dA16 me
sh_offset_data206 0 Z1 106 2 3 0 0 0 0 0 0 0 1e3 1e-8 0 4 5 1 0 1 2 6 0 7 8 0 0
 0 9 10 0 0 0 0 0 0 0 0 81 255 1 2 101 11 1 12 0 0 0 13 70 11 CI9 list_type0 0 1
 uI10 notransmit0 0 1 lCCCDCCDI12 finger_index0 0 1 dI12 finger_block1012 0 CZ3
 0 4 T1 0 0 5 20 1 14 14 13 255 6 39 0 1 0 15 0 0 16 0 51 255 7 38 0 15 17 0 0 -
0 .0381 -1905244257773495e-34 0 -1 0 .0031115 -1 0 0 31 255 8 33 0 18 19 0 0 +0
 0 -1905244257773495e-34 0 1 0 1 0 0 .0031115 19 9 CCCCCCI5 frame230 0 CA5 owner
12 0 Z9 13 0 1 16 0 20 0 V0 16 255 10 7 21 ?22 0 18 19 0 0 1 81 1 21 97 23 10 0
 0 24 25 26 17 255 22 0 27 22 22 0 28 10 0 0 +16 18 28 29 ?30 10 31 8 0 0 1 31 1
9 9 0 10 32 8 0 +0 .0381 -1905244257773495e-34 0 1 0 1 0 0 .0031115 31 32 94 0 3
3 34 19 0 +0 .0381 -482143444824313e-33 0 1 0 1 0 0 .0047625 16 33 62 35 ?36 31
 0 32 0 0 1 31 34 95 0 31 0 32 0 +0 .04445 -482143444824313e-33 0 1 0 1 0 0 .004
7625 16 31 65 37 ?38 18 33 34 0 0 1 81 1 37 67 23 31 0 0 35 39 40 17 38 0 41 38
 38 0 42 31 0 0 +15 255 41 83 0 38 43 0 17 42 0 44 42 42 0 38 31 0 0 -15 44 78 0
 42 45 46 14 255 45 75 47 ?43 48 44 6 49 -0 0 43 48 20 15 46 79 0 36 45 0 17 36
 0 46 36 36 0 50 33 0 0 +17 50 0 51 50 50 0 36 33 0 0 -15 51 88 0 50 52 0 14 52
 84 53 ?0 43 27 6 54 -0 0 0 43 20 81 1 53 106 55 52 25 0 56 0 57 14 43 80 56 ?52
 45 41 6 58 +0 0 52 45 20 15 27 87 0 22 52 51 50 255 54 92 0 52 58 49 0 +0 .0381
 0 0 1 0 1 0 0 13 20 14 0 0 0 0 0 0 9 15 14 15 35 59 ?48 0 60 6 7 -0 0 48 0 20 8
1 1 59 102 55 15 61 0 0 62 63 14 48 23 62 ?45 15 64 6 17 -0 0 45 15 20 15 60 34
 0 28 15 65 17 28 0 60 28 28 0 22 10 0 0 -15 65 36 0 30 15 0 17 30 0 65 30 30 0
 66 18 0 0 +17 66 0 64 66 66 0 30 18 0 0 -15 64 27 0 66 48 0 81 1 62 103 55 48 6
7 0 59 47 68 50 17 32 0 48 49 7 0 +0 0 0 0 1 0 1 0 0 51 49 91 0 45 54 17 0 -0 .0
4445 -482143444824313e-33 0 -1 0 .0047625 -1 0 0 80 7 CCCCCDI12 legal_owners0 16
 1 lCZ1 55 0 69 8001 0 0 0 0 3 5 0 0 0 FFFFTFTFFFFFFFFF2 81 1 67 47 23 48 0 62 6
1 35 70 81 1 47 104 55 45 39 0 62 56 71 83 255 3 68 .615686274509804 .8117647058
82353 .929411764705882 81 1 39 77 23 45 0 47 37 72 73 81 1 56 105 55 43 72 0 47
 53 74 83 3 71 .615686274509804 .811764705882353 .929411764705882 81 1 72 82 23
 43 0 56 39 24 75 83 3 74 .615686274509804 .811764705882353 .929411764705882 80
 1 23 76 77 9000 0 0 0 0 3 6 0 0 0 FFTFTFTTFFFFFFFF1 81 1 24 96 23 1 0 78 72 21
 79 82 255 3 75 9 2 2 81 1 78 99 80 1 24 12 0 0 81 82 3 79 6 0 3 80 1 80 82 83 8
038 0 0 0 0 0 0 0 0 0 TTTTTTTTTTTTTFTF10 81 1 12 100 82 1 78 2 0 0 84 98 255 6 8
1 80 97 114 116 32 49 80 1 82 85 86 8017 0 0 0 0 0 0 0 0 0 TTTTTTTTTTTTTFTF3 84
 255 6 84 Part 179 255 13 86 SDL/TYSA_NAME79 14 83 SDL/TYSA_UNAME79 9 77 BTI/Det
Id82 3 73 9 0 2 81 1 61 46 23 15 0 59 29 67 87 81 1 35 64 23 33 0 0 67 37 88 82
 3 70 6 1 2 82 3 88 9 0 1 81 1 29 44 23 18 0 0 0 61 89 82 3 87 6 0 2 82 3 89 6 0
 1 79 15 69 SDL/TYSA_COLOUR83 3 63 .615686274509804 .811764705882353 .9294117647
05882 50 58 93 0 43 0 54 0 +0 .04445 0 0 1 0 1 0 0 81 1 25 98 23 52 0 53 21 0 90
 83 3 57 .615686274509804 .811764705882353 .929411764705882 82 3 90 10 0 2 82 3
 40 9 1 1 82 3 26 10 0 1 19 16 40 0 1 0 9 6 0 S0 74 4 CI16 index_map_offset0 0 1
 dCCZ20 14 5 0 0 25 78 12 2 53 0 0 0 0 0 0 0 0 0 0 0 0 0 0 0 80 1 11 55 91 8040
 0 0 0 0 3 5 0 0 0 TTTFFFFFFFFFFFFF2 83 3 13 .615686274509804 .811764705882353 .
929411764705882 79 17 91 SDL/TYSA_COLOUR_21 0 
