**ABCDEFGHIJKLMNOPQRSTUVWXYZabcdefghijklmnopqrstuvwxyz**************************
**PARASOLID !"#$%&'()*+,-./:;<=>?@[\]^_`{|}~0123456789**************************
**PART1;
MC=unknown;
MC_MODEL=unknown;
MC_ID=unknown;
OS=unknown;
OS_RELEASE=unknown;
FRU=Parasolid 35.1.246;
APPL=Onshape;
SITE=unknown;
USER=unknown;
FORMAT=text;
GUISE=transmit;
KEY=BTGapi::writeModels_.xmt;
FILE=BTGapi::writeModels_.xmt;
DATE=2024-02-13T04:43:56 (UTC);
**PART2;
SCH=SCH_3501246_35102;
USFLD_SIZE=0;
**PART3;
**END_OF_HEADER*****************************************************************
T51 : TRANSMIT FILE created by modeller version 350124623 SCH_3501246_35102_1300
6231 0 12 36 CCCI7 lattice222 0 CCCI4 mesh1006 0 I8 polyline1008 0 CCCCCCCDI5 ow
ner1040 0 CCCI16 boundary_lattice222 0 CCCI13 boundary_mesh1006 0 I17 boundary_p
olyline1008 0 CCCA16 index_map_offset0 0 1 dA9 index_map82 0 A17 node_id_index_m
ap82 0 A20 schema_embedding_map82 0 A5 child12 0 A14 lowest_node_id0 0 1 dA16 me
sh_offset_data206 0 Z1 1145 2 3 0 0 0 0 0 0 0 1e3 1e-8 0 4 0 1 0 1 2 5 0 6 7 8 0
 0 9 10 11 0 0 0 0 0 0 0 81 255 1 2 1125 12 1 13 0 0 0 14 70 11 CI9 list_type0 0
 1 uI10 notransmit0 0 1 lCCCDCCDI12 finger_index0 0 1 dI12 finger_block1012 0 CZ
3 0 4 T1 0 0 5 20 1 15 15 13 255 5 405 0 1 0 16 0 0 17 0 51 255 6 979 0 18 19 0
 0 +-.03182149978637695 .003175 -.00478019366857527 0 -1 0 .00254 -1 0 0 30 255
 7 790 0 10 20 0 0 +-.00949780965609738 .003175 -.0187818450651398 0 -1 0 29 255
 8 692 0 11 21 0 -.03436149978637695 .003175 -.00478019366857527 19 9 CCCCCCI5 f
rame230 0 CA5 owner12 0 Z9 167 0 1 17 0 22 0 V0 16 255 10 788 23 ?24 0 25 7 0 0
 1 18 255 11 689 26 27 0 28 8 ?1 81 1 26 1035 29 11 0 0 30 31 32 17 255 27 0 33
 34 35 11 36 37 0 38 +18 28 685 39 40 11 41 21 ?1 81 1 39 1039 29 28 0 0 42 43 4
4 17 40 0 45 38 46 28 47 48 0 34 +18 41 681 49 50 28 51 52 ?1 29 21 688 0 28 52
 8 -.03436149978637695 .003175 .00478019366857528 29 52 684 0 41 53 21 -.0094978
0965609738 .003175 -.0187818450651398 29 53 680 0 51 54 52 -.03295742231894685 .
003175 -.00705203873371505 18 51 677 31 55 41 56 53 ?1 29 54 676 0 56 57 53 .041
2388875507736 .003175 -.01905 18 56 673 58 59 51 60 54 ?1 29 57 672 0 60 61 54 -
.00836188712352749 .003175 -.01905 18 60 669 62 63 56 64 57 ?1 29 61 668 0 64 65
 57 .04237481008334345 .003175 .0187818450651398 18 64 665 66 67 60 68 61 ?1 29
 65 664 0 68 69 61 .0658344227461929 .003175 .00705203873371506 18 68 661 70 71
 64 72 65 ?1 29 69 660 0 72 73 65 .0412388875507736 .003175 .01905 18 72 657 74
 75 68 76 69 ?1 29 73 656 0 76 77 69 -.00836188712352748 .003175 .01905 18 76 65
3 78 79 72 80 73 ?1 29 77 652 0 80 81 73 -.00949780965609737 .003175 .0187818450
651398 18 80 649 82 83 76 84 77 ?1 29 81 648 0 84 85 77 -.03295742231894685 .003
175 .00705203873371506 18 84 645 43 86 80 87 81 ?1 29 85 634 0 87 88 81 .0672385
002136231 .003175 .00478019366857527 18 87 631 89 90 84 91 85 ?1 29 88 630 0 91
 92 85 .0672385002136231 .003175 -.00478019366857527 18 91 627 93 94 87 95 88 ?1
 29 92 586 0 95 96 88 .0412388875507736 0 .01905 18 95 583 97 98 91 99 92 ?1 29
 96 582 0 99 100 92 -.00836188712352748 0 .01905 18 99 579 101 102 95 103 96 ?1
 29 100 578 0 103 104 96 .04237481008334345 0 .0187818450651398 18 103 575 105 1
06 99 107 100 ?1 29 104 574 0 107 108 100 .0658344227461929 0 .00705203873371506
 18 107 571 109 110 103 111 104 ?1 29 108 570 0 111 112 104 .0672385002136231 0
 .00478019366857527 18 111 567 113 114 107 115 108 ?1 29 112 566 0 115 116 108 .
0672385002136231 0 -.00478019366857527 18 115 563 117 118 111 119 112 ?1 29 116
 562 0 119 120 112 .0412388875507736 0 -.01905 18 119 559 121 122 115 123 116 ?1
 29 120 558 0 123 124 116 -.00836188712352749 0 -.01905 18 123 555 125 126 119 1
27 120 ?1 29 124 554 0 127 128 120 -.00949780965609738 0 -.0187818450651398 18 1
27 551 129 130 123 131 124 ?1 29 128 550 0 131 132 124 -.03295742231894685 0 -.0
0705203873371505 18 131 547 30 133 127 134 128 ?1 29 132 546 0 134 135 128 -.034
36149978637695 0 -.00478019366857527 18 134 543 136 137 131 138 132 ?1 29 135 54
2 0 138 139 132 -.03436149978637695 0 .00478019366857528 18 138 539 140 141 134
 142 135 ?1 29 139 538 0 142 143 135 -.00949780965609737 0 .0187818450651398 18
 142 535 144 145 138 146 139 ?1 29 143 534 0 146 147 139 -.03295742231894685 0 .
00705203873371506 18 146 531 42 148 142 149 143 ?1 29 147 520 0 149 150 143 .042
3748100833435 .003175 -.0187818450651398 18 149 517 151 152 146 153 147 ?1 29 15
0 516 0 153 154 147 .0658344227461929 .003175 -.00705203873371506 18 153 513 155
 156 149 157 150 ?1 29 154 512 0 157 158 150 .0423748100833435 0 -.0187818450651
398 18 157 509 159 160 153 161 154 ?1 29 158 508 0 161 0 154 .0658344227461929 0
 -.00705203873371506 18 161 505 162 163 157 0 158 ?1 81 1 162 1046 29 161 0 0 11
7 93 164 17 163 0 165 166 167 161 118 168 0 169 -15 255 165 821 0 170 171 0 17 1
66 0 165 170 163 153 169 172 0 0 -17 167 0 165 163 170 115 94 173 0 0 -17 118 0
 174 175 176 115 163 168 0 177 +16 168 622 178 ?118 179 180 181 0 0 1 17 169 0 1
82 183 184 161 166 172 0 176 +15 182 367 0 184 185 0 17 183 0 182 152 169 157 17
6 186 0 187 +17 184 0 182 169 152 153 188 189 0 166 -16 172 526 190 ?169 191 192
 193 0 0 1 17 176 0 174 118 160 161 183 186 0 0 -15 174 253 0 176 194 195 17 160
 0 174 176 196 157 122 180 0 183 +16 186 506 197 ?183 198 199 200 0 0 1 81 1 197
 1103 29 186 0 0 201 202 203 16 198 572 204 ?205 206 186 207 0 0 1 16 199 270 20
8 ?209 186 210 211 0 0 1 30 200 339 0 186 211 207 0 +.0545385002136231 0 -.0127
 -.894427190999916 0 -.447213595499958 31 255 211 340 0 199 212 200 0 +.06088850
02136231 0 -1882483809973655e-33 0 -1 0 1 0 0 .003175 30 207 338 0 198 200 213 0
 +.0545385002136231 0 .0127 -.894427190999916 0 .447213595499958 30 213 337 0 20
6 207 214 0 +.0672385002136231 0 .003175 0 0 1 16 206 564 215 ?175 216 198 213 0
 0 1 30 214 523 0 192 213 193 0 -.0423748100833435 .003175 -.0187818450651398 0
 -1 0 16 192 521 217 ?152 172 218 214 0 0 1 30 193 528 0 172 214 219 0 +.0658344
227461929 0 -.00705203873371506 0 -1 0 31 219 589 0 191 193 220 0 --.03182149978
637695 0 -.00478019366857527 0 1 0 1 0 0 .00254 16 191 587 221 ?133 222 172 219
 0 0 1 31 220 594 0 222 219 223 0 --.00836188712352749 0 -.01651 0 1 0 1 0 0 .00
254 16 222 592 224 ?126 225 191 220 0 0 1 31 223 599 0 225 220 226 0 --.03182149
978637695 0 .00478019366857528 0 1 0 1 0 0 .00254 16 225 597 227 ?141 228 222 22
3 0 0 1 31 226 604 0 228 223 229 0 --.00836188712352748 0 .01651 0 1 0 1 0 0 .00
254 16 228 602 230 ?145 231 225 226 0 0 1 31 229 609 0 231 226 232 0 -.041238887
5507736 0 .01651 0 1 0 1 0 0 .00254 16 231 607 233 ?98 234 228 229 0 0 1 31 232
 614 0 234 229 235 0 -.0646985002136231 0 .00478019366857527 0 1 0 1 0 0 .00254
 16 234 612 236 ?110 180 231 232 0 0 1 31 235 619 0 180 232 181 0 -.041238887550
7736 0 -.01651 0 1 0 1 0 0 .00254 16 180 617 237 ?160 168 234 235 0 0 1 31 181 6
24 0 168 235 238 0 -.0646985002136231 0 -.00478019366857527 0 1 0 1 0 0 .00254 3
0 238 637 0 179 181 239 0 +.0672385002136231 .003175 .00478019366857527 0 -1 0 1
6 179 635 240 ?241 173 168 238 0 0 1 30 239 642 0 173 238 242 0 -.06723850021362
31 .003175 -.00478019366857527 0 -1 0 16 173 640 243 ?94 37 179 239 0 0 1 31 242
 695 0 37 239 244 0 +-.03182149978637695 .003175 -.00478019366857527 0 1 0 1 0 0
 .00254 16 37 693 245 ?27 246 173 242 0 0 1 31 244 700 0 246 242 247 0 +-.008361
88712352749 .003175 -.01651 0 1 0 1 0 0 .00254 16 246 698 248 ?50 249 37 244 0 0
 1 31 247 705 0 249 244 250 0 +-.03182149978637695 .003175 .00478019366857528 0
 1 0 1 0 0 .00254 16 249 703 251 ?86 252 246 247 0 0 1 31 250 710 0 252 247 253
 0 +-.00836188712352748 .003175 .01651 0 1 0 1 0 0 .00254 16 252 708 254 ?79 255
 249 250 0 0 1 31 253 715 0 255 250 256 0 +.0412388875507736 .003175 .01651 0 1
 0 1 0 0 .00254 16 255 713 257 ?67 258 252 253 0 0 1 31 256 720 0 258 253 259 0
 +.0646985002136231 .003175 .00478019366857527 0 1 0 1 0 0 .00254 16 258 718 260
 ?90 261 255 256 0 0 1 31 259 725 0 261 256 262 0 +.0412388875507736 .003175 -.0
1651 0 1 0 1 0 0 .00254 16 261 723 263 ?59 264 258 259 0 0 1 31 262 730 0 264 25
9 265 0 +.0646985002136231 .003175 -.00478019366857527 0 1 0 1 0 0 .00254 16 264
 728 266 ?156 267 261 262 0 0 1 30 265 735 0 267 262 268 0 --.00836188712352749
 .003175 -.01905 0 -1 0 16 267 733 269 ?63 270 264 265 0 0 1 30 268 740 0 270 26
5 271 0 +.0412388875507736 0 -.01905 0 -1 0 16 270 738 272 ?273 274 267 268 0 0
 1 30 271 745 0 274 268 275 0 +.0423748100833435 0 .0187818450651398 0 -1 0 16 2
74 743 276 ?277 278 270 271 0 0 1 30 275 750 0 278 271 279 0 -.0658344227461929
 .003175 .00705203873371506 0 -1 0 16 278 748 280 ?71 281 274 275 0 0 1 30 279 7
55 0 281 275 282 0 +-.00836188712352748 .003175 .01905 0 -1 0 16 281 753 283 ?28
4 285 278 279 0 0 1 30 282 760 0 285 279 286 0 -.0412388875507736 .003175 .01905
 0 -1 0 16 285 758 287 ?75 288 281 282 0 0 1 30 286 765 0 288 282 289 0 +-.03295
742231894685 0 .00705203873371506 0 -1 0 16 288 763 290 ?291 292 285 286 0 0 1 3
0 289 770 0 292 286 293 0 --.00949780965609737 .003175 .0187818450651398 0 -1 0
 16 292 768 294 ?83 295 288 289 0 0 1 30 293 775 0 295 289 296 0 +-.034361499786
37695 .003175 -.00478019366857527 0 -1 0 16 295 773 297 ?298 48 292 293 0 0 1 30
 296 780 0 48 293 20 0 --.03436149978637695 .003175 .00478019366857528 0 -1 0 16
 48 778 299 ?40 25 295 296 0 0 1 30 20 785 0 25 296 7 0 --.03295742231894685 .00
3175 -.00705203873371505 0 -1 0 16 25 783 300 ?55 10 48 20 0 0 1 81 1 300 1068 2
9 25 0 0 297 227 301 17 55 0 302 303 304 51 305 25 0 35 +15 302 385 0 303 306 0
 17 303 0 302 24 55 41 35 216 0 307 +17 304 0 302 55 24 131 308 309 0 305 -17 30
5 0 310 137 36 131 55 25 0 0 -17 35 0 33 27 50 51 303 216 0 36 -15 33 6 0 311 31
2 313 17 50 0 33 35 314 41 315 246 0 303 +16 216 678 316 ?303 317 206 318 0 0 1
 17 36 0 310 305 319 51 27 37 0 0 -15 310 968 0 36 18 0 17 319 0 310 36 137 11 2
98 295 0 0 -17 137 0 310 319 305 134 133 191 0 298 -17 298 0 45 46 38 134 319 29
5 0 320 +15 45 383 0 46 321 0 17 46 0 45 40 298 138 320 322 0 47 -17 38 0 45 298
 40 11 34 317 0 319 +17 320 0 174 133 141 134 46 322 0 0 +17 133 0 174 308 320 1
31 137 191 0 304 +17 141 0 174 320 323 138 148 225 0 46 +16 322 540 324 ?320 325
 309 326 0 0 1 81 1 324 1093 29 322 0 0 327 328 329 16 325 532 330 ?331 332 322
 333 0 0 1 16 309 548 334 ?308 322 0 335 0 0 1 30 326 345 0 322 335 333 0 +-.034
36149978637695 0 -.003175 0 0 -1 30 335 346 0 309 336 326 0 +-.02166149978637695
 0 -.0127 .894427190999916 0 -.447213595499958 30 333 344 0 325 326 337 0 +-.021
66149978637695 0 .0127 .894427190999916 0 .4472135954999575 31 337 343 0 332 333
 338 0 +-.02801149978637695 0 356107121223633e-32 0 1 0 1 0 0 .003175 16 332 286
 339 ?340 341 325 337 0 0 1 30 338 342 0 341 337 212 0 +.003738500213623045 0 -.
01905 1 0 0 16 341 556 342 ?196 210 332 338 0 0 1 30 212 341 0 210 338 211 0 +.0
03738500213623055 0 .01905 1 0 0 16 210 580 343 ?344 199 341 212 0 0 1 81 1 343
 1091 29 210 0 0 345 327 346 17 344 0 347 75 284 95 348 210 0 349 +15 347 373 0
 344 350 0 17 75 0 347 351 344 72 349 285 0 352 +17 284 0 347 344 351 99 353 281
 0 348 +17 348 0 174 145 98 99 344 210 0 0 -17 349 0 354 106 355 95 75 285 0 0 -
15 354 884 0 355 356 0 17 106 0 354 357 349 103 98 231 0 277 -17 355 0 354 349 3
57 72 67 255 0 0 -17 357 0 354 355 106 64 277 274 0 0 -17 67 0 33 358 352 64 355
 255 0 359 +17 358 0 33 90 67 68 359 360 0 361 -17 352 0 33 67 79 72 351 362 0 3
55 +17 359 0 363 277 71 64 358 360 0 357 +15 363 365 0 364 365 0 17 277 0 363 36
4 359 103 357 274 0 205 +17 71 0 363 359 364 68 366 278 0 358 +16 360 662 201 ?3
59 218 189 367 0 0 1 81 1 201 1102 29 360 0 0 204 197 368 16 218 628 369 ?370 19
2 360 336 0 0 1 16 189 514 202 ?188 360 371 372 0 0 1 30 367 83 0 360 372 336 0
 +.0545385002136231 .003175 .0127 -.894427190999916 0 .447213595499958 30 372 73
 0 189 373 367 0 +.0545385002136231 .003175 -.0127 -.894427190999916 0 -.4472135
95499958 30 336 88 0 218 367 335 0 +.0672385002136231 .003175 .003175 0 0 1 31 3
73 68 0 371 374 372 0 +.0608885002136231 .003175 -1882483809973655e-33 0 -1 0 1
 0 0 .003175 16 371 66 375 ?376 189 362 373 0 0 1 30 374 58 0 362 377 373 0 +.00
3738500213623055 .003175 .01905 1 0 0 16 362 654 327 ?352 371 378 374 0 0 1 30 3
77 53 0 378 379 374 0 +.003738500213623045 .003175 -.01905 1 0 0 16 378 670 345
 ?380 362 381 377 0 0 1 31 379 48 0 381 382 377 0 +-.02801149978637695 .003175 3
56107121223633e-32 0 1 0 1 0 0 .003175 16 381 46 383 ?384 378 385 379 0 0 1 30 3
82 43 0 385 386 379 0 +-.02166149978637695 .003175 .0127 .894427190999916 0 .447
2135954999575 16 385 646 387 ?388 381 317 382 0 0 1 30 386 33 0 317 318 382 0 +-
.03436149978637695 .003175 -.003175 0 0 -1 16 317 686 328 ?38 385 216 386 0 0 1
 30 318 28 0 216 0 386 0 +-.02166149978637695 .003175 -.0127 .894427190999916 0
 -.447213595499958 81 1 328 1094 29 317 0 0 324 334 389 80 7 CCCCCDI12 legal_own
ers0 16 1 lCZ1 29 390 391 9000 0 0 0 0 3 6 0 0 0 FFTFTFTTFFFFFFFF1 81 1 334 1095
 29 309 0 0 328 316 392 82 255 3 389 7 37 1 81 1 316 1096 29 216 0 0 334 330 393
 82 3 392 7 38 1 81 1 330 1097 29 325 0 0 316 387 394 82 3 393 7 39 1 81 1 387 1
098 29 385 0 0 330 215 395 82 3 394 7 40 1 81 1 215 1099 29 206 0 0 387 369 396
 82 3 395 7 41 1 81 1 369 1100 29 218 0 0 215 204 397 82 3 396 7 42 1 81 1 204 1
101 29 198 0 0 369 201 398 82 3 397 7 43 1 82 3 398 7 44 1 79 255 9 391 BTI/DetI
d17 388 0 33 79 86 80 399 385 0 400 +17 79 0 33 352 388 76 400 252 0 351 +17 86
 0 33 388 34 84 401 249 0 399 +17 399 0 402 291 83 84 388 385 0 403 -17 400 0 40
4 405 353 80 79 252 0 0 -15 404 905 0 400 406 0 17 405 0 404 102 400 142 83 292
 0 0 -17 353 0 404 400 102 76 284 281 0 0 -17 102 0 404 353 405 99 145 228 0 284
 -17 145 0 174 323 348 142 102 228 0 331 +17 323 0 174 141 145 146 331 325 0 0 -
17 331 0 402 83 291 142 323 325 0 405 +15 402 381 0 331 16 0 17 83 0 402 399 331
 80 405 292 0 388 +17 291 0 402 331 399 146 403 288 0 323 +17 403 0 407 401 148
 84 291 288 0 0 -15 407 926 0 401 408 0 17 401 0 407 47 403 28 86 249 0 0 -17 14
8 0 407 403 47 146 141 225 0 291 -17 47 0 407 148 401 138 40 48 0 0 -14 255 408
 925 409 ?410 406 407 5 411 +0 0 410 406 22 81 1 409 1143 412 408 413 0 414 415
 416 14 410 946 415 ?18 408 417 5 19 +0 0 18 408 22 14 406 904 414 ?408 356 404
 5 418 +0 0 408 356 22 51 411 937 0 408 418 19 0 +-.03182149978637695 .003175 .0
0478019366857528 0 1 0 .00254 1 0 0 13 22 168 0 0 0 0 0 0 9 16 14 16 382 419 ?35
0 0 402 5 420 -0 0 350 0 22 81 1 419 1126 412 16 421 0 0 422 423 14 350 374 422
 ?365 16 347 5 424 -0 0 365 16 22 50 255 420 394 0 16 425 426 0 +-.0216614997863
7695 .003175 .0127 .4472135954999575 0 -.894427190999916 -.894427190999916 0 -.4
472135954999575 51 425 393 0 427 428 420 0 --.02801149978637695 .003175 35610712
1223633e-32 0 -1 0 .003175 -1 0 0 50 426 395 0 321 420 429 0 +-.0343614997863769
5 .003175 -.003175 -1 0 0 0 1 0 14 321 384 430 ?431 427 45 5 426 +0 0 431 427 22
 50 429 396 0 306 426 432 0 +-.02166149978637695 .003175 -.0127 -.44721359549995
8 0 -.894427190999916 -.894427190999916 0 .447213595499958 14 306 386 433 ?427 4
34 302 5 429 +0 0 427 434 22 51 432 832 0 171 429 435 0 +.0646985002136231 .0031
75 -.00478019366857527 0 1 0 .00254 1 0 0 14 171 820 436 ?437 194 165 5 432 +0 0
 437 194 22 51 435 853 0 437 432 438 0 +.0412388875507736 .003175 -.01651 0 1 0
 .00254 1 0 0 14 437 841 439 ?440 171 441 5 435 +0 0 440 171 22 51 438 874 0 440
 435 442 0 +.0646985002136231 .003175 .00478019366857527 0 -1 0 .00254 -1 0 0 14
 440 862 443 ?356 437 444 5 438 +0 0 356 437 22 51 442 895 0 356 438 418 0 +.041
2388875507736 .003175 .01651 0 1 0 .00254 1 0 0 14 356 883 445 ?406 440 354 5 44
2 +0 0 406 440 22 51 418 916 0 406 442 411 0 +-.00836188712352748 .003175 .01651
 0 -1 0 .00254 -1 0 0 81 1 445 1141 412 356 446 0 443 414 447 80 1 412 0 448 800
1 0 0 0 0 3 5 0 0 0 FFFFTFTFFFFFFFFF2 81 1 446 1112 29 356 0 445 449 450 451 81
 1 443 1140 412 440 452 0 439 445 453 81 1 414 1142 412 406 454 0 445 409 455 83
 255 3 447 .615686274509804 .811764705882353 .929411764705882 81 1 454 1106 29 4
06 0 414 456 457 458 83 3 455 .615686274509804 .811764705882353 .929411764705882
 81 1 456 1105 29 410 0 415 202 454 459 81 1 457 1107 29 18 0 460 454 413 461 82
 3 458 7 1 2 14 18 967 460 ?0 410 310 5 6 +0 0 0 410 22 81 1 460 1145 412 18 457
 0 415 0 462 81 1 413 1108 29 408 0 409 457 452 463 82 3 461 7 2 2 81 1 452 1109
 29 440 0 443 413 464 465 82 3 463 7 3 2 81 1 464 1110 29 171 0 436 452 449 466
 82 3 465 7 4 2 81 1 436 1138 412 171 464 0 467 439 468 81 1 449 1111 29 437 0 4
39 464 446 469 82 3 466 7 5 2 81 1 439 1139 412 437 449 0 436 443 470 82 3 469 7
 6 2 83 3 470 .615686274509804 .811764705882353 .929411764705882 81 1 467 1137 4
12 194 450 0 471 436 472 83 3 468 .615686274509804 .811764705882353 .92941176470
5882 14 194 233 467 ?171 312 174 5 473 -0 0 171 312 22 81 1 450 1113 29 194 0 46
7 446 474 475 81 1 471 1136 412 312 474 0 476 467 477 83 3 472 .615686274509804
 .811764705882353 .929411764705882 14 312 1 471 ?194 431 33 5 478 +0 0 194 431 2
2 81 1 474 1114 29 312 0 471 450 479 480 81 1 476 1135 412 431 481 0 430 471 482
 83 3 477 .615686274509804 .811764705882353 .929411764705882 14 431 370 476 ?312
 321 483 5 484 -0 0 312 321 22 81 1 481 493 29 431 0 476 485 486 487 81 1 430 11
34 412 321 488 0 489 476 490 83 3 482 .615686274509804 .811764705882353 .9294117
64705882 81 1 488 1117 29 321 0 430 491 492 493 81 1 489 1133 412 427 485 0 433
 430 494 83 3 490 .615686274509804 .811764705882353 .929411764705882 14 427 378
 489 ?321 306 495 5 425 +0 0 321 306 22 81 1 485 491 29 427 0 489 375 481 496 81
 1 433 1132 412 306 492 0 497 489 498 83 3 494 .615686274509804 .811764705882353
 .929411764705882 81 1 492 1118 29 306 0 433 488 421 499 81 1 497 1131 412 434 4
79 0 500 433 501 83 3 498 .615686274509804 .811764705882353 .929411764705882 14
 434 376 497 ?306 185 502 5 428 +0 0 306 185 22 81 1 479 1115 29 434 0 497 474 4
91 503 81 1 500 1130 412 185 504 0 505 497 506 83 3 501 .615686274509804 .811764
705882353 .929411764705882 14 185 368 500 ?434 507 182 5 508 -0 0 434 507 22 81
 1 504 1122 29 185 0 500 509 0 510 81 1 505 1129 412 507 511 0 512 500 513 83 3
 506 .615686274509804 .811764705882353 .929411764705882 14 507 364 505 ?185 365
 514 5 515 +0 0 185 365 22 81 1 511 1120 29 507 0 505 421 509 516 81 1 512 1128
 412 365 509 0 422 505 517 83 3 513 .615686274509804 .811764705882353 .929411764
705882 14 365 366 512 ?507 350 363 5 518 +0 0 507 350 22 81 1 509 1121 29 365 0
 512 511 504 519 81 1 422 1127 412 350 491 0 419 512 520 83 3 517 .6156862745098
04 .811764705882353 .929411764705882 81 1 491 1116 29 350 0 422 479 488 521 83 3
 520 .615686274509804 .811764705882353 .929411764705882 82 3 521 7 11 2 82 3 519
 7 16 2 50 518 388 0 365 515 508 0 +.0545385002136231 .003175 .0127 .44721359549
9958 0 .894427190999916 .894427190999916 0 -.447213595499958 50 515 387 0 507 47
3 518 0 +.0672385002136231 .003175 .003175 1 0 0 0 -1 0 50 508 389 0 185 518 484
 0 +.0545385002136231 .003175 -.0127 -.447213595499958 0 .894427190999916 .89442
7190999916 0 .447213595499958 51 484 390 0 431 508 424 0 +.0608885002136231 .003
175 -1882483809973655e-33 0 -1 0 .003175 -1 0 0 50 424 391 0 350 484 428 0 +.003
738500213623055 .003175 .01905 0 0 -1 0 1 0 50 428 392 0 434 424 425 0 +.0037385
00213623045 .003175 -.01905 0 0 -1 0 1 0 50 473 336 0 194 478 515 0 +.0164385002
1362305 0 -3469446951953615e-33 0 1 0 1 0 0 50 478 3 0 312 0 473 0 +.01643850021
362305 .003175 -3469446951953615e-33 0 1 0 1 0 0 81 1 421 1119 29 16 0 419 492 5
11 522 82 3 516 7 15 2 82 3 522 7 14 2 15 514 363 0 177 507 0 17 177 0 514 94 24
1 115 175 206 0 167 -17 94 0 514 370 177 91 167 173 0 311 +17 241 0 514 177 370
 111 523 179 0 175 +17 175 0 174 110 118 111 177 206 0 0 +17 110 0 174 205 175 1
07 114 234 0 364 +17 205 0 174 98 110 103 364 198 0 0 +17 114 0 444 523 366 111
 110 234 0 241 -17 364 0 363 71 277 107 205 198 0 366 -17 366 0 444 114 361 107
 71 278 0 0 -15 444 863 0 361 440 0 17 361 0 444 366 523 68 90 258 0 0 -17 523 0
 444 361 114 87 241 179 0 0 -17 90 0 33 311 358 87 361 258 0 370 +17 311 0 33 15
6 90 91 370 218 0 170 -17 370 0 514 241 94 87 311 218 0 523 +17 156 0 33 188 311
 153 170 264 0 184 +17 170 0 165 167 166 91 156 264 0 0 -17 188 0 33 59 156 149
 184 189 0 524 +17 59 0 33 314 188 56 524 261 0 380 +17 524 0 441 187 525 149 59
 261 0 0 -15 441 842 0 524 437 0 17 187 0 441 122 524 157 152 192 0 0 -17 525 0
 441 524 122 56 273 270 0 0 -17 122 0 441 525 187 119 160 180 0 273 -17 273 0 50
2 526 380 119 525 270 0 196 +15 502 375 0 380 434 0 17 526 0 502 63 273 123 196
 341 0 527 -17 380 0 502 273 63 56 314 378 0 525 +17 196 0 174 160 126 119 526 3
41 0 0 +17 126 0 174 196 308 123 130 222 0 526 +17 308 0 174 126 133 127 304 309
 0 0 +17 130 0 417 307 527 127 126 222 0 24 -15 417 947 0 315 410 0 17 307 0 417
 315 130 41 24 10 0 0 -17 527 0 417 130 315 123 63 267 0 0 -17 24 0 302 304 303
 127 307 10 0 308 +17 315 0 417 527 307 60 50 246 0 0 -17 63 0 502 380 526 60 52
7 267 0 314 +17 314 0 33 50 59 60 380 378 0 315 -17 152 0 182 184 183 149 187 19
2 0 188 +17 98 0 174 348 205 95 106 231 0 344 +82 3 510 7 17 2 82 3 503 7 10 2 8
2 3 499 7 13 2 81 1 375 479 29 371 0 0 208 485 528 82 3 496 6 7 2 81 1 208 478 2
9 199 0 0 383 375 529 82 3 528 6 23 1 81 1 383 475 29 381 0 0 339 208 530 82 3 5
29 6 22 1 81 1 339 474 29 332 0 0 0 383 531 82 3 530 6 19 1 82 3 531 6 18 1 15 4
95 377 0 384 427 532 17 384 0 495 384 384 0 533 381 0 0 +15 532 379 0 534 427 0
 17 534 0 532 534 534 0 340 332 0 0 -17 340 0 195 340 340 0 534 332 0 0 +15 195
 254 0 340 194 535 15 535 255 0 536 194 0 17 536 0 535 536 536 0 209 199 0 0 -17
 209 0 537 209 209 0 536 199 0 0 +15 537 371 0 209 431 0 17 533 0 313 533 533 0
 384 381 0 0 -15 313 7 0 533 312 538 15 538 15 0 376 312 0 17 376 0 538 376 376
 0 539 371 0 0 +17 539 0 483 539 539 0 376 371 0 0 -15 483 369 0 539 431 537 82
 3 493 7 12 2 81 1 486 496 29 1 0 540 481 125 541 82 3 487 6 9 2 81 1 540 1123 5
42 1 486 13 0 0 543 81 1 125 1025 29 123 0 0 486 129 544 82 3 541 6 0 3 81 1 129
 1026 29 127 0 0 125 62 545 82 3 544 7 0 0 81 1 62 1027 29 60 0 0 129 49 546 82
 3 545 7 1 0 81 1 49 1028 29 41 0 0 62 101 547 82 3 546 7 2 0 81 1 101 1029 29 9
9 0 0 49 144 548 82 3 547 7 3 0 81 1 144 1030 29 142 0 0 101 78 549 82 3 548 7 4
 0 81 1 78 1031 29 76 0 0 144 82 550 82 3 549 7 5 0 81 1 82 1032 29 80 0 0 78 13
6 551 82 3 550 7 6 0 81 1 136 1033 29 134 0 0 82 30 552 82 3 551 7 7 0 81 1 30 1
034 29 131 0 0 136 26 553 82 3 552 7 8 0 82 3 553 7 9 0 80 1 542 554 555 8038 0
 0 0 0 0 0 0 0 0 TTTTTTTTTTTTTFTF10 81 1 13 1124 554 1 540 2 0 0 556 98 255 6 54
3 80 97 114 116 32 49 80 1 554 557 558 8017 0 0 0 0 0 0 0 0 0 TTTTTTTTTTTTTFTF3
 84 255 6 556 Part 179 13 558 SDL/TYSA_NAME79 14 555 SDL/TYSA_UNAME82 3 480 7 9
 2 82 3 475 7 8 2 81 1 415 1144 412 410 456 0 409 460 559 83 3 462 .615686274509
804 .811764705882353 .929411764705882 83 3 559 .615686274509804 .811764705882353
 .929411764705882 81 1 202 1104 29 189 0 0 197 456 560 82 3 459 7 0 2 82 3 560 7
 47 1 83 3 453 .615686274509804 .811764705882353 .929411764705882 82 3 451 7 7 2
 79 15 448 SDL/TYSA_COLOUR83 3 423 .615686274509804 .811764705882353 .9294117647
05882 51 19 958 0 410 411 6 0 +-.00836188712352749 .003175 -.01651 0 -1 0 .00254
 -1 0 0 83 3 416 .615686274509804 .811764705882353 .929411764705882 17 34 0 33 8
6 27 28 38 317 0 401 -17 351 0 347 284 75 76 352 362 0 353 -81 1 345 1090 29 378
 0 0 342 343 561 81 1 342 1089 29 341 0 0 276 345 562 82 3 561 7 33 1 81 1 276 1
088 29 274 0 0 287 342 563 82 3 562 7 32 1 81 1 287 1087 29 285 0 0 257 276 564
 82 3 563 7 31 1 81 1 257 1086 29 255 0 0 233 287 565 82 3 564 7 30 1 81 1 233 1
085 29 231 0 0 217 257 566 82 3 565 7 29 1 81 1 217 1084 29 192 0 0 272 233 567
 82 3 566 7 28 1 81 1 272 1083 29 270 0 0 263 217 568 82 3 567 7 27 1 81 1 263 1
082 29 261 0 0 237 272 569 82 3 568 7 26 1 81 1 237 1081 29 180 0 0 190 263 570
 82 3 569 7 25 1 81 1 190 1080 29 172 0 0 243 237 571 82 3 570 7 24 1 81 1 243 1
079 29 173 0 0 266 190 572 82 3 571 7 23 1 81 1 266 1078 29 264 0 0 178 243 573
 82 3 572 7 22 1 81 1 178 1077 29 168 0 0 280 266 574 82 3 573 7 21 1 81 1 280 1
076 29 278 0 0 240 178 575 82 3 574 7 20 1 81 1 240 1075 29 179 0 0 260 280 576
 82 3 575 7 19 1 81 1 260 1074 29 258 0 0 236 240 577 82 3 576 7 18 1 81 1 236 1
073 29 234 0 0 290 260 578 82 3 577 7 17 1 81 1 290 1072 29 288 0 0 299 236 579
 82 3 578 7 16 1 81 1 299 1071 29 48 0 0 251 290 580 82 3 579 7 15 1 81 1 251 10
70 29 249 0 0 227 299 581 82 3 580 7 14 1 81 1 227 1069 29 225 0 0 300 251 582 8
2 3 581 7 13 1 82 3 582 7 12 1 81 1 327 1092 29 362 0 0 343 324 583 82 3 583 7 3
5 1 82 3 368 7 45 1 82 3 346 7 34 1 82 3 329 7 36 1 81 1 297 1067 29 295 0 0 245
 300 584 82 3 301 7 11 1 81 1 245 1066 29 37 0 0 221 297 585 82 3 584 7 10 1 81
 1 221 1065 29 191 0 0 294 245 586 82 3 585 7 9 1 81 1 294 1064 29 292 0 0 283 2
21 587 82 3 586 7 8 1 81 1 283 1063 29 281 0 0 254 294 588 82 3 587 7 7 1 81 1 2
54 1062 29 252 0 0 230 283 589 82 3 588 7 6 1 81 1 230 1061 29 228 0 0 23 254 59
0 82 3 589 7 5 1 81 1 23 1060 29 10 0 0 269 230 591 82 3 590 7 4 1 81 1 269 1059
 29 267 0 0 248 23 592 82 3 591 7 3 1 81 1 248 1058 29 246 0 0 224 269 593 82 3
 592 7 2 1 81 1 224 1057 29 222 0 0 66 248 594 82 3 593 7 1 1 81 1 66 1056 29 64
 0 0 74 224 595 82 3 594 7 0 1 81 1 74 1055 29 72 0 0 105 66 596 82 3 595 7 31 0
 81 1 105 1054 29 103 0 0 97 74 597 82 3 596 7 30 0 81 1 97 1053 29 95 0 0 151 1
05 598 82 3 597 7 29 0 81 1 151 1052 29 149 0 0 58 97 599 82 3 598 7 28 0 81 1 5
8 1051 29 56 0 0 159 151 600 82 3 599 7 27 0 81 1 159 1050 29 157 0 0 121 58 601
 82 3 600 7 26 0 81 1 121 1049 29 119 0 0 155 159 602 82 3 601 7 25 0 81 1 155 1
048 29 153 0 0 93 121 603 82 3 602 7 24 0 81 1 93 1047 29 91 0 0 162 155 604 82
 3 603 7 23 0 82 3 604 7 22 0 82 3 203 7 46 1 81 1 117 1045 29 115 0 0 70 162 60
5 82 3 164 7 21 0 81 1 70 1044 29 68 0 0 89 117 606 82 3 605 7 20 0 81 1 89 1043
 29 87 0 0 109 70 607 82 3 606 7 19 0 81 1 109 1042 29 107 0 0 113 89 608 82 3 6
07 7 18 0 81 1 113 1041 29 111 0 0 43 109 609 82 3 608 7 17 0 81 1 43 1040 29 84
 0 0 39 113 610 82 3 609 7 16 0 82 3 610 7 15 0 81 1 42 1038 29 146 0 0 140 39 6
11 81 1 140 1037 29 138 0 0 31 42 612 82 3 611 7 13 0 81 1 31 1036 29 51 0 0 26
 140 613 82 3 612 7 12 0 82 3 613 7 11 0 82 3 44 7 14 0 82 3 32 7 10 0 19 17 406
 0 1 0 9 5 0 S0 74 4 CI16 index_map_offset0 0 1 dCCZ20 15 5 0 0 504 540 13 2 460
 0 0 0 0 0 0 0 0 0 0 0 0 0 0 0 80 1 12 412 614 8040 0 0 0 0 3 5 0 0 0 TTTFFFFFFF
FFFFFF2 83 3 14 .615686274509804 .811764705882353 .929411764705882 79 17 614 SDL
/TYSA_COLOUR_21 0 
